Public Sans-Bold.ufo
<glyph name="exclam" format="1">
  <advance width="310"/>
  <unicode hex="0021"/>
  <outline>
    <contour>
      <point x="250" y="192" type="line"/>
      <point x="45" y="192" type="line"/>
      <point x="45" y="0" type="line"/>
      <point x="250" y="0" type="line"/>
    </contour>
    <contour>
      <point x="260" y="723" type="line"/>
      <point x="35" y="723" type="line"/>
      <point x="90" y="259" type="line"/>
      <point x="209" y="259" type="line"/>
    </contour>
  </outline>
</glyph>
<glyph name="numbersign" format="1">
  <advance width="628"/>
  <unicode hex="0023"/>
  <outline>
    <contour>
      <point x="299" y="716" type="line"/>
      <point x="206" y="725" type="line"/>
      <point x="101" y="9" type="line"/>
      <point x="195" y="-3" type="line"/>
    </contour>
    <contour>
      <point x="518" y="716" type="line"/>
      <point x="424" y="725" type="line"/>
      <point x="319" y="9" type="line"/>
      <point x="414" y="-3" type="line"/>
    </contour>
    <contour>
      <point x="566" y="310" type="line"/>
      <point x="20" y="310" type="line"/>
      <point x="20" y="216" type="line"/>
      <point x="566" y="216" type="line"/>
    </contour>
    <contour>
      <point x="598" y="515" type="line"/>
      <point x="52" y="515" type="line"/>
      <point x="52" y="421" type="line"/>
      <point x="598" y="421" type="line"/>
    </contour>
  </outline>
</glyph>
<glyph name="dollar" format="1">
  <advance width="701"/>
  <unicode hex="0024"/>
  <outline>
    <contour>
      <point x="367" y="-10" type="curve" smooth="yes"/>
      <point x="548" y="-10"/>
      <point x="661" y="72"/>
      <point x="661" y="205" type="curve" smooth="yes"/>
      <point x="661" y="327"/>
      <point x="601" y="410"/>
      <point x="461" y="439" type="curve" smooth="yes"/>
      <point x="348" y="462" type="line" smooth="yes"/>
      <point x="285" y="475"/>
      <point x="269" y="492"/>
      <point x="269" y="525" type="curve" smooth="yes"/>
      <point x="269" y="551"/>
      <point x="292" y="582"/>
      <point x="368" y="582" type="curve" smooth="yes"/>
      <point x="436" y="582"/>
      <point x="448" y="548"/>
      <point x="452" y="504" type="curve"/>
      <point x="649" y="504" type="line"/>
      <point x="656" y="633"/>
      <point x="541" y="732"/>
      <point x="364" y="732" type="curve" smooth="yes"/>
      <point x="197" y="732"/>
      <point x="59" y="647"/>
      <point x="61" y="501" type="curve" smooth="yes"/>
      <point x="63" y="378"/>
      <point x="138" y="306"/>
      <point x="251" y="288" type="curve" smooth="yes"/>
      <point x="364" y="269" type="line" smooth="yes"/>
      <point x="425" y="259"/>
      <point x="455" y="249"/>
      <point x="455" y="205" type="curve" smooth="yes"/>
      <point x="455" y="170"/>
      <point x="427" y="139"/>
      <point x="366" y="139" type="curve" smooth="yes"/>
      <point x="298" y="139"/>
      <point x="253" y="169"/>
      <point x="242" y="220" type="curve"/>
      <point x="40" y="220" type="line"/>
      <point x="53" y="59"/>
      <point x="175" y="-10"/>
    </contour>
    <contour>
      <point x="283" y="822" type="line"/>
      <point x="283" y="692" type="line"/>
      <point x="446" y="692" type="line"/>
      <point x="446" y="822" type="line"/>
    </contour>
    <contour>
      <point x="283" y="43" type="line"/>
      <point x="283" y="-87" type="line"/>
      <point x="446" y="-87" type="line"/>
      <point x="446" y="43" type="line"/>
    </contour>
  </outline>
</glyph>
<glyph name="ampersand" format="1">
  <advance width="854"/>
  <unicode hex="0026"/>
  <outline>
    <contour>
      <point x="396" y="734" type="curve" smooth="yes"/>
      <point x="255" y="734"/>
      <point x="158" y="658"/>
      <point x="158" y="556" type="curve" smooth="yes"/>
      <point x="158" y="492"/>
      <point x="195" y="461"/>
      <point x="242" y="407" type="curve"/>
      <point x="115" y="340"/>
      <point x="50" y="284"/>
      <point x="50" y="181" type="curve" smooth="yes"/>
      <point x="50" y="73"/>
      <point x="122" y="-5"/>
      <point x="297" y="-5" type="curve" smooth="yes"/>
      <point x="365" y="-5"/>
      <point x="454" y="9"/>
      <point x="536" y="62" type="curve"/>
      <point x="590" y="0" type="line"/>
      <point x="812" y="0" type="line"/>
      <point x="650" y="189" type="line"/>
      <point x="690" y="265"/>
      <point x="763" y="354"/>
      <point x="798" y="430" type="curve"/>
      <point x="596" y="430" type="line"/>
      <point x="586" y="387"/>
      <point x="569" y="332"/>
      <point x="560" y="299" type="curve"/>
      <point x="488" y="384" type="line"/>
      <point x="569" y="438"/>
      <point x="638" y="498"/>
      <point x="638" y="574" type="curve" smooth="yes"/>
      <point x="638" y="668"/>
      <point x="534" y="734"/>
    </contour>
    <contour>
      <point x="406" y="622" type="curve" smooth="yes"/>
      <point x="442" y="624"/>
      <point x="471" y="603"/>
      <point x="471" y="564" type="curve" smooth="yes"/>
      <point x="471" y="534"/>
      <point x="454" y="508"/>
      <point x="410" y="477" type="curve"/>
      <point x="387" y="501" type="line"/>
      <point x="359" y="531"/>
      <point x="349" y="552"/>
      <point x="349" y="570" type="curve"/>
      <point x="349" y="599"/>
      <point x="372" y="620"/>
    </contour>
    <contour>
      <point x="335" y="299" type="curve"/>
      <point x="444" y="174" type="line"/>
      <point x="416" y="149"/>
      <point x="370" y="140"/>
      <point x="347" y="140" type="curve" smooth="yes"/>
      <point x="320" y="140"/>
      <point x="279" y="156"/>
      <point x="269" y="195" type="curve" smooth="yes"/>
      <point x="258" y="241"/>
      <point x="297" y="277"/>
    </contour>
  </outline>
</glyph>
<glyph name="quotesingle" format="1">
  <advance width="273"/>
  <unicode hex="0027"/>
  <outline>
    <contour>
      <point x="228" y="723" type="line"/>
      <point x="45" y="723" type="line"/>
      <point x="91" y="401" type="line"/>
      <point x="182" y="401" type="line"/>
    </contour>
  </outline>
</glyph>
<glyph name="parenleft" format="1">
  <advance width="361"/>
  <unicode hex="0028"/>
  <outline>
    <contour>
      <point x="331" y="723" type="curve"/>
      <point x="192" y="723" type="line"/>
      <point x="106" y="598"/>
      <point x="50" y="445"/>
      <point x="50" y="278" type="curve" smooth="yes"/>
      <point x="50" y="106"/>
      <point x="108" y="-20"/>
      <point x="193" y="-161" type="curve"/>
      <point x="331" y="-161" type="line"/>
      <point x="258" y="-9"/>
      <point x="218" y="124"/>
      <point x="218" y="277" type="curve" smooth="yes"/>
      <point x="218" y="437"/>
      <point x="261" y="592"/>
    </contour>
  </outline>
</glyph>
<glyph name="asterisk" format="1">
  <advance width="545"/>
  <unicode hex="002A"/>
  <outline>
    <contour>
      <point x="353" y="274" type="line"/>
      <point x="453" y="343" type="line"/>
      <point x="344" y="471" type="line"/>
      <point x="500" y="513" type="line"/>
      <point x="465" y="623" type="line"/>
      <point x="311" y="554" type="line"/>
      <point x="328" y="723" type="line"/>
      <point x="208" y="723" type="line"/>
      <point x="221" y="555" type="line"/>
      <point x="70" y="624" type="line"/>
      <point x="30" y="515" type="line"/>
      <point x="191" y="471" type="line"/>
      <point x="80" y="342" type="line"/>
      <point x="179" y="272" type="line"/>
      <point x="266" y="420" type="line"/>
    </contour>
  </outline>
</glyph>
<glyph name="plus" format="1">
  <advance width="616"/>
  <unicode hex="002B"/>
  <outline>
    <contour>
      <point x="559" y="433" type="line"/>
      <point x="50" y="433" type="line"/>
      <point x="50" y="295" type="line"/>
      <point x="559" y="295" type="line"/>
    </contour>
    <contour>
      <point x="374" y="110" type="line"/>
      <point x="374" y="619" type="line"/>
      <point x="236" y="619" type="line"/>
      <point x="236" y="110" type="line"/>
    </contour>
  </outline>
</glyph>
<glyph name="comma" format="1">
  <advance width="309"/>
  <unicode hex="002C"/>
  <outline>
    <contour>
      <point x="50" y="-153" type="line"/>
      <point x="114" y="-153" type="line"/>
      <point x="229" y="20" type="line"/>
      <point x="229" y="170" type="line"/>
      <point x="52" y="170" type="line"/>
      <point x="52" y="1" type="line"/>
      <point x="110" y="-6" type="line"/>
    </contour>
  </outline>
</glyph>
<glyph name="hyphen" format="1">
  <advance width="410"/>
  <unicode hex="002D"/>
  <outline>
    <contour>
      <point x="345" y="325" type="line"/>
      <point x="55" y="325" type="line"/>
      <point x="55" y="188" type="line"/>
      <point x="345" y="188" type="line"/>
    </contour>
  </outline>
</glyph>
<glyph name="period" format="1">
  <advance width="310"/>
  <unicode hex="002E"/>
  <outline>
    <contour>
      <point x="250" y="196" type="line"/>
      <point x="45" y="196" type="line"/>
      <point x="45" y="0" type="line"/>
      <point x="250" y="0" type="line"/>
    </contour>
  </outline>
</glyph>
<glyph name="slash" format="1">
  <advance width="409"/>
  <unicode hex="002F"/>
  <outline>
    <contour>
      <point x="10" y="0" type="line"/>
      <point x="139" y="0" type="line"/>
      <point x="394" y="723" type="line"/>
      <point x="265" y="723" type="line"/>
    </contour>
  </outline>
</glyph>
<glyph name="zero" format="1">
  <advance width="654"/>
  <unicode hex="0030"/>
  <outline>
    <contour>
      <point x="328" y="734" type="curve" smooth="yes"/>
      <point x="141" y="734"/>
      <point x="30" y="595"/>
      <point x="30" y="360" type="curve" smooth="yes"/>
      <point x="30" y="126"/>
      <point x="138" y="-8"/>
      <point x="328" y="-8" type="curve" smooth="yes"/>
      <point x="517" y="-8"/>
      <point x="624" y="126"/>
      <point x="624" y="360" type="curve" smooth="yes"/>
      <point x="624" y="595"/>
      <point x="514" y="734"/>
    </contour>
    <contour>
      <point x="327" y="144" type="curve" smooth="yes"/>
      <point x="256" y="144"/>
      <point x="231" y="202"/>
      <point x="231" y="359" type="curve" smooth="yes"/>
      <point x="231" y="521"/>
      <point x="257" y="584"/>
      <point x="327" y="584" type="curve" smooth="yes"/>
      <point x="397" y="584"/>
      <point x="423" y="522"/>
      <point x="423" y="359" type="curve" smooth="yes"/>
      <point x="423" y="201"/>
      <point x="399" y="144"/>
    </contour>
  </outline>
</glyph>
<glyph name="one" format="1">
  <advance width="440"/>
  <unicode hex="0031"/>
  <outline>
    <contour>
      <point x="155" y="0" type="line"/>
      <point x="350" y="0" type="line"/>
      <point x="350" y="723" type="line"/>
      <point x="225" y="723" type="line"/>
      <point x="215" y="658"/>
      <point x="154" y="613"/>
      <point x="35" y="613" type="curve"/>
      <point x="35" y="511" type="line"/>
      <point x="155" y="511" type="line"/>
    </contour>
  </outline>
</glyph>
<glyph name="two" format="1">
  <advance width="670"/>
  <unicode hex="0032"/>
  <outline>
    <contour>
      <point x="51" y="0" type="line"/>
      <point x="625" y="0" type="line"/>
      <point x="625" y="160" type="line"/>
      <point x="268" y="160" type="line"/>
      <point x="268" y="160" type="line" smooth="yes"/>
      <point x="268" y="276"/>
      <point x="630" y="250"/>
      <point x="630" y="503" type="curve" smooth="yes"/>
      <point x="630" y="640"/>
      <point x="523" y="733"/>
      <point x="345" y="733" type="curve" smooth="yes"/>
      <point x="138" y="733"/>
      <point x="40" y="618"/>
      <point x="40" y="468" type="curve"/>
      <point x="223" y="468" type="line"/>
      <point x="238" y="548"/>
      <point x="288" y="576"/>
      <point x="341" y="576" type="curve" smooth="yes"/>
      <point x="394" y="576"/>
      <point x="426" y="544"/>
      <point x="426" y="501" type="curve" smooth="yes"/>
      <point x="426" y="378"/>
      <point x="51" y="384"/>
      <point x="51" y="130" type="curve" smooth="yes"/>
      <point x="51" y="86" type="line"/>
    </contour>
  </outline>
</glyph>
<glyph name="three" format="1">
  <advance width="666"/>
  <unicode hex="0033"/>
  <outline>
    <contour>
      <point x="25" y="490" type="curve"/>
      <point x="208" y="490" type="line"/>
      <point x="216" y="567"/>
      <point x="257" y="587"/>
      <point x="318" y="587" type="curve" smooth="yes"/>
      <point x="370" y="587"/>
      <point x="421" y="568"/>
      <point x="421" y="523" type="curve" smooth="yes"/>
      <point x="421" y="478"/>
      <point x="387" y="454"/>
      <point x="325" y="449" type="curve" smooth="yes"/>
      <point x="262" y="444" type="line"/>
      <point x="262" y="294" type="line"/>
      <point x="335" y="290" type="line" smooth="yes"/>
      <point x="397" y="287"/>
      <point x="435" y="257"/>
      <point x="435" y="218" type="curve" smooth="yes"/>
      <point x="435" y="174"/>
      <point x="394" y="142"/>
      <point x="320" y="142" type="curve" smooth="yes"/>
      <point x="269" y="142"/>
      <point x="223" y="162"/>
      <point x="209" y="238" type="curve"/>
      <point x="25" y="238" type="line"/>
      <point x="25" y="81"/>
      <point x="124" y="-10"/>
      <point x="320" y="-10" type="curve" smooth="yes"/>
      <point x="490" y="-10"/>
      <point x="641" y="59"/>
      <point x="641" y="210" type="curve" smooth="yes"/>
      <point x="641" y="311"/>
      <point x="567" y="360"/>
      <point x="500" y="378" type="curve"/>
      <point x="593" y="409"/>
      <point x="627" y="461"/>
      <point x="627" y="532" type="curve" smooth="yes"/>
      <point x="627" y="676"/>
      <point x="495" y="733"/>
      <point x="323" y="733" type="curve" smooth="yes"/>
      <point x="154" y="733"/>
      <point x="25" y="659"/>
    </contour>
  </outline>
</glyph>
<glyph name="four" format="1">
  <advance width="650"/>
  <unicode hex="0034"/>
  <outline>
    <contour>
      <point x="343" y="723" type="line"/>
      <point x="20" y="290" type="line"/>
      <point x="20" y="138" type="line"/>
      <point x="346" y="138" type="line"/>
      <point x="345" y="0" type="line"/>
      <point x="531" y="0" type="line"/>
      <point x="531" y="138" type="line"/>
      <point x="635" y="138" type="line"/>
      <point x="635" y="297" type="line"/>
      <point x="531" y="297" type="line"/>
      <point x="531" y="723" type="line"/>
    </contour>
    <contour>
      <point x="197" y="297" type="line"/>
      <point x="348" y="498" type="line"/>
      <point x="348" y="297" type="line"/>
    </contour>
  </outline>
</glyph>
<glyph name="five" format="1">
  <advance width="686"/>
  <unicode hex="0035"/>
  <outline>
    <contour>
      <point x="107" y="723" type="line"/>
      <point x="73" y="364" type="line"/>
      <point x="205" y="293" type="line" smooth="yes"/>
      <point x="219" y="286"/>
      <point x="220" y="286"/>
      <point x="234" y="292" type="curve" smooth="yes"/>
      <point x="278" y="311"/>
      <point x="301" y="318"/>
      <point x="332" y="318" type="curve" smooth="yes"/>
      <point x="407" y="318"/>
      <point x="448" y="274"/>
      <point x="448" y="229" type="curve" smooth="yes"/>
      <point x="448" y="181"/>
      <point x="401" y="142"/>
      <point x="329" y="142" type="curve" smooth="yes"/>
      <point x="251" y="142"/>
      <point x="213" y="188"/>
      <point x="170" y="243" type="curve"/>
      <point x="25" y="145" type="line"/>
      <point x="78" y="56"/>
      <point x="201" y="-10"/>
      <point x="352" y="-10" type="curve" smooth="yes"/>
      <point x="536" y="-10"/>
      <point x="651" y="81"/>
      <point x="651" y="236" type="curve" smooth="yes"/>
      <point x="651" y="385"/>
      <point x="544" y="472"/>
      <point x="387" y="472" type="curve" smooth="yes"/>
      <point x="337" y="472"/>
      <point x="303" y="463"/>
      <point x="245" y="447" type="curve"/>
      <point x="256" y="567" type="line"/>
      <point x="593" y="567" type="line"/>
      <point x="601" y="723" type="line"/>
    </contour>
  </outline>
</glyph>
<glyph name="six" format="1">
  <advance width="679"/>
  <unicode hex="0036"/>
  <outline>
    <contour>
      <point x="352" y="733" type="curve" smooth="yes"/>
      <point x="156" y="733"/>
      <point x="30" y="588"/>
      <point x="30" y="345" type="curve" smooth="yes"/>
      <point x="30" y="135"/>
      <point x="148" y="-6"/>
      <point x="348" y="-6" type="curve" smooth="yes"/>
      <point x="519" y="-6"/>
      <point x="644" y="97"/>
      <point x="644" y="236" type="curve" smooth="yes"/>
      <point x="644" y="363"/>
      <point x="543" y="451"/>
      <point x="392" y="451" type="curve" smooth="yes"/>
      <point x="340" y="451"/>
      <point x="286" y="442"/>
      <point x="247" y="418" type="curve"/>
      <point x="232" y="502"/>
      <point x="275" y="583"/>
      <point x="357" y="583" type="curve" smooth="yes"/>
      <point x="408" y="583"/>
      <point x="440" y="560"/>
      <point x="456" y="506" type="curve"/>
      <point x="632" y="506" type="line"/>
      <point x="632" y="649"/>
      <point x="502" y="733"/>
    </contour>
    <contour>
      <point x="341" y="311" type="curve" smooth="yes"/>
      <point x="387" y="311"/>
      <point x="440" y="289"/>
      <point x="440" y="227" type="curve" smooth="yes"/>
      <point x="440" y="173"/>
      <point x="391" y="135"/>
      <point x="340" y="135" type="curve" smooth="yes"/>
      <point x="284" y="135"/>
      <point x="245" y="174"/>
      <point x="245" y="258" type="curve"/>
      <point x="245" y="276"/>
      <point x="296" y="311"/>
    </contour>
  </outline>
</glyph>
<glyph name="seven" format="1">
  <advance width="609"/>
  <unicode hex="0037"/>
  <outline>
    <contour>
      <point x="25" y="723" type="line"/>
      <point x="25" y="567" type="line"/>
      <point x="396" y="567" type="line"/>
      <point x="215" y="348"/>
      <point x="157" y="104"/>
      <point x="157" y="0" type="curve"/>
      <point x="366" y="0" type="line"/>
      <point x="362" y="178"/>
      <point x="493" y="455"/>
      <point x="594" y="567" type="curve"/>
      <point x="594" y="723" type="line"/>
    </contour>
  </outline>
</glyph>
<glyph name="eight" format="1">
  <advance width="652"/>
  <unicode hex="0038"/>
  <outline>
    <contour>
      <point x="326" y="731" type="curve" smooth="yes"/>
      <point x="169" y="731"/>
      <point x="51" y="660"/>
      <point x="51" y="524" type="curve" smooth="yes"/>
      <point x="51" y="453"/>
      <point x="97" y="402"/>
      <point x="150" y="374" type="curve"/>
      <point x="89" y="360"/>
      <point x="20" y="287"/>
      <point x="20" y="205" type="curve" smooth="yes"/>
      <point x="20" y="72"/>
      <point x="143" y="-8"/>
      <point x="326" y="-8" type="curve" smooth="yes"/>
      <point x="509" y="-8"/>
      <point x="632" y="72"/>
      <point x="632" y="205" type="curve" smooth="yes"/>
      <point x="632" y="287"/>
      <point x="563" y="360"/>
      <point x="502" y="374" type="curve"/>
      <point x="555" y="402"/>
      <point x="601" y="453"/>
      <point x="601" y="524" type="curve" smooth="yes"/>
      <point x="601" y="660"/>
      <point x="483" y="731"/>
    </contour>
    <contour>
      <point x="326" y="446" type="curve" smooth="yes"/>
      <point x="280" y="446"/>
      <point x="243" y="477"/>
      <point x="243" y="527" type="curve" smooth="yes"/>
      <point x="243" y="577"/>
      <point x="280" y="608"/>
      <point x="326" y="608" type="curve" smooth="yes"/>
      <point x="372" y="608"/>
      <point x="409" y="577"/>
      <point x="409" y="527" type="curve" smooth="yes"/>
      <point x="409" y="477"/>
      <point x="372" y="446"/>
    </contour>
    <contour>
      <point x="326" y="132" type="curve" smooth="yes"/>
      <point x="262" y="132"/>
      <point x="226" y="164"/>
      <point x="226" y="212" type="curve" smooth="yes"/>
      <point x="226" y="261"/>
      <point x="262" y="294"/>
      <point x="326" y="294" type="curve" smooth="yes"/>
      <point x="390" y="294"/>
      <point x="426" y="261"/>
      <point x="426" y="212" type="curve" smooth="yes"/>
      <point x="426" y="164"/>
      <point x="390" y="132"/>
    </contour>
  </outline>
</glyph>
<glyph name="nine" format="1">
  <advance width="680"/>
  <unicode hex="0039"/>
  <outline>
    <contour>
      <point x="322" y="-8" type="curve" smooth="yes"/>
      <point x="518" y="-8"/>
      <point x="645" y="107"/>
      <point x="645" y="380" type="curve" smooth="yes"/>
      <point x="645" y="591"/>
      <point x="527" y="731"/>
      <point x="327" y="731" type="curve" smooth="yes"/>
      <point x="156" y="731"/>
      <point x="35" y="629"/>
      <point x="35" y="489" type="curve" smooth="yes"/>
      <point x="35" y="353"/>
      <point x="145" y="264"/>
      <point x="296" y="264" type="curve" smooth="yes"/>
      <point x="367" y="264"/>
      <point x="417" y="282"/>
      <point x="449" y="315" type="curve"/>
      <point x="462" y="183"/>
      <point x="395" y="142"/>
      <point x="313" y="142" type="curve" smooth="yes"/>
      <point x="262" y="142"/>
      <point x="230" y="172"/>
      <point x="222" y="219" type="curve"/>
      <point x="39" y="219" type="line"/>
      <point x="40" y="82"/>
      <point x="172" y="-8"/>
    </contour>
    <contour>
      <point x="334" y="414" type="curve" smooth="yes"/>
      <point x="288" y="414"/>
      <point x="243" y="442"/>
      <point x="243" y="498" type="curve" smooth="yes"/>
      <point x="243" y="553"/>
      <point x="284" y="591"/>
      <point x="335" y="591" type="curve" smooth="yes"/>
      <point x="391" y="591"/>
      <point x="430" y="552"/>
      <point x="430" y="467" type="curve"/>
      <point x="430" y="449"/>
      <point x="379" y="414"/>
    </contour>
  </outline>
</glyph>
<glyph name="colon" format="1">
  <advance width="310"/>
  <unicode hex="003A"/>
  <outline>
    <contour>
      <point x="250" y="512" type="line"/>
      <point x="45" y="512" type="line"/>
      <point x="45" y="320" type="line"/>
      <point x="250" y="320" type="line"/>
    </contour>
    <contour>
      <point x="250" y="195" type="line"/>
      <point x="45" y="195" type="line"/>
      <point x="45" y="3" type="line"/>
      <point x="250" y="3" type="line"/>
    </contour>
  </outline>
</glyph>
<glyph name="semicolon" format="1">
  <advance width="313"/>
  <unicode hex="003B"/>
  <outline>
    <contour>
      <point x="45" y="-165" type="line"/>
      <point x="122" y="-165" type="line"/>
      <point x="253" y="22" type="line"/>
      <point x="253" y="193" type="line"/>
      <point x="48" y="193" type="line"/>
      <point x="48" y="0" type="line"/>
      <point x="118" y="0" type="line"/>
    </contour>
    <contour>
      <point x="48" y="313" type="line"/>
      <point x="253" y="313" type="line"/>
      <point x="253" y="509" type="line"/>
      <point x="48" y="509" type="line"/>
    </contour>
  </outline>
</glyph>
<glyph name="less" format="1">
  <advance width="606"/>
  <unicode hex="003C"/>
  <outline>
    <contour>
      <point x="551" y="234" type="line"/>
      <point x="261" y="339" type="line"/>
      <point x="551" y="449" type="line"/>
      <point x="551" y="609" type="line"/>
      <point x="55" y="418" type="line"/>
      <point x="55" y="263" type="line"/>
      <point x="551" y="72" type="line"/>
    </contour>
  </outline>
</glyph>
<glyph name="equal" format="1">
  <advance width="619"/>
  <unicode hex="003D"/>
  <outline>
    <contour>
      <point x="564" y="527" type="line"/>
      <point x="55" y="527" type="line"/>
      <point x="55" y="389" type="line"/>
      <point x="564" y="389" type="line"/>
    </contour>
    <contour>
      <point x="564" y="292" type="line"/>
      <point x="55" y="292" type="line"/>
      <point x="55" y="154" type="line"/>
      <point x="564" y="154" type="line"/>
    </contour>
  </outline>
</glyph>
<glyph name="greater" format="1">
  <advance width="607"/>
  <unicode hex="003E"/>
  <outline>
    <contour>
      <point x="55" y="234" type="line"/>
      <point x="55" y="72" type="line"/>
      <point x="552" y="263" type="line"/>
      <point x="552" y="418" type="line"/>
      <point x="55" y="609" type="line"/>
      <point x="55" y="449" type="line"/>
      <point x="346" y="339" type="line"/>
    </contour>
  </outline>
</glyph>
<glyph name="question" format="1">
  <advance width="557"/>
  <unicode hex="003F"/>
  <outline>
    <contour>
      <point x="361" y="192" type="line"/>
      <point x="156" y="192" type="line"/>
      <point x="156" y="0" type="line"/>
      <point x="361" y="0" type="line"/>
    </contour>
    <contour>
      <point x="0" y="551" type="curve"/>
      <point x="162" y="516" type="line"/>
      <point x="184" y="574"/>
      <point x="224" y="606"/>
      <point x="268" y="606" type="curve" smooth="yes"/>
      <point x="302" y="606"/>
      <point x="332" y="586"/>
      <point x="332" y="555" type="curve" smooth="yes"/>
      <point x="332" y="478"/>
      <point x="183" y="442"/>
      <point x="183" y="262" type="curve"/>
      <point x="335" y="262" type="line"/>
      <point x="335" y="402"/>
      <point x="522" y="409"/>
      <point x="522" y="566" type="curve" smooth="yes"/>
      <point x="522" y="654"/>
      <point x="421" y="733"/>
      <point x="270" y="733" type="curve" smooth="yes"/>
      <point x="135" y="733"/>
      <point x="43" y="670"/>
    </contour>
  </outline>
</glyph>
<glyph name="at" format="1">
  <advance width="1698"/>
  <unicode hex="0040"/>
  <outline>
    <contour>
      <point x="1360" y="-68" type="curve"/>
      <point x="1254" y="74" type="line"/>
      <point x="1158" y="10"/>
      <point x="1076" y="-40"/>
      <point x="894" y="-40" type="curve" smooth="yes"/>
      <point x="544" y="-40"/>
      <point x="310" y="144"/>
      <point x="310" y="516" type="curve" smooth="yes"/>
      <point x="310" y="826"/>
      <point x="472" y="1092"/>
      <point x="904" y="1092" type="curve" smooth="yes"/>
      <point x="1168" y="1092"/>
      <point x="1406" y="990"/>
      <point x="1406" y="648" type="curve" smooth="yes"/>
      <point x="1406" y="444"/>
      <point x="1324" y="360"/>
      <point x="1256" y="360" type="curve" smooth="yes"/>
      <point x="1222" y="360"/>
      <point x="1196" y="382"/>
      <point x="1210" y="458" type="curve" smooth="yes"/>
      <point x="1280" y="876" type="line"/>
      <point x="1072" y="876" type="line"/>
      <point x="1068" y="852" type="line" smooth="yes"/>
      <point x="1066" y="838"/>
      <point x="1058" y="836"/>
      <point x="1050" y="844" type="curve" smooth="yes"/>
      <point x="1004" y="886"/>
      <point x="958" y="926"/>
      <point x="848" y="926" type="curve" smooth="yes"/>
      <point x="596" y="926"/>
      <point x="442" y="708"/>
      <point x="442" y="476" type="curve" smooth="yes"/>
      <point x="440" y="266"/>
      <point x="572" y="130"/>
      <point x="752" y="130" type="curve" smooth="yes"/>
      <point x="856" y="130"/>
      <point x="946" y="176"/>
      <point x="1004" y="240" type="curve" smooth="yes"/>
      <point x="1016" y="254"/>
      <point x="1018" y="256"/>
      <point x="1030" y="242" type="curve" smooth="yes"/>
      <point x="1054" y="214"/>
      <point x="1106" y="158"/>
      <point x="1228" y="158" type="curve" smooth="yes"/>
      <point x="1462" y="158"/>
      <point x="1618" y="364"/>
      <point x="1618" y="660" type="curve" smooth="yes"/>
      <point x="1618" y="1102"/>
      <point x="1266" y="1288"/>
      <point x="904" y="1288" type="curve" smooth="yes"/>
      <point x="398" y="1288"/>
      <point x="90" y="930"/>
      <point x="90" y="510" type="curve" smooth="yes"/>
      <point x="90" y="108"/>
      <point x="376" y="-220"/>
      <point x="860" y="-220" type="curve" smooth="yes"/>
      <point x="1090" y="-220"/>
      <point x="1272" y="-144"/>
    </contour>
    <contour>
      <point x="698" y="504" type="curve" smooth="yes"/>
      <point x="698" y="620"/>
      <point x="780" y="710"/>
      <point x="868" y="710" type="curve" smooth="yes"/>
      <point x="952" y="710"/>
      <point x="994" y="630"/>
      <point x="994" y="552" type="curve" smooth="yes"/>
      <point x="994" y="452"/>
      <point x="922" y="348"/>
      <point x="822" y="348" type="curve" smooth="yes"/>
      <point x="736" y="348"/>
      <point x="698" y="426"/>
    </contour>
  </outline>
</glyph>
<glyph name="A" format="1">
  <advance width="731"/>
  <unicode hex="0041"/>
  <outline>
    <contour>
      <point x="10" y="0" type="line"/>
      <point x="204" y="0" type="line"/>
      <point x="253" y="140" type="line"/>
      <point x="481" y="140" type="line"/>
      <point x="529" y="0" type="line"/>
      <point x="721" y="0" type="line"/>
      <point x="465" y="723" type="line"/>
      <point x="266" y="723" type="line"/>
    </contour>
    <contour>
      <point x="294" y="306" type="line"/>
      <point x="366" y="537" type="line"/>
      <point x="437" y="306" type="line"/>
    </contour>
    <contour>
      <point x="366" y="0" type="move" name="bottom"/>
    </contour>
    <contour>
      <point x="698" y="5" type="move" name="ogonek"/>
    </contour>
    <contour>
      <point x="366" y="723" type="move" name="top"/>
    </contour>
  </outline>
</glyph>
<glyph name="B" format="1">
  <advance width="706"/>
  <unicode hex="0042"/>
  <outline>
    <contour>
      <point x="70" y="0" type="line"/>
      <point x="375" y="0" type="line" smooth="yes"/>
      <point x="585" y="0"/>
      <point x="666" y="62"/>
      <point x="666" y="197" type="curve"/>
      <point x="666" y="251"/>
      <point x="659" y="334"/>
      <point x="532" y="372" type="curve"/>
      <point x="621" y="416"/>
      <point x="649" y="465"/>
      <point x="649" y="532" type="curve" smooth="yes"/>
      <point x="649" y="655"/>
      <point x="561" y="723"/>
      <point x="359" y="723" type="curve" smooth="yes"/>
      <point x="70" y="723" type="line"/>
    </contour>
    <contour>
      <point x="265" y="146" type="line"/>
      <point x="265" y="291" type="line"/>
      <point x="387" y="291" type="line"/>
      <point x="436" y="291"/>
      <point x="468" y="261"/>
      <point x="468" y="221" type="curve" smooth="yes"/>
      <point x="468" y="183"/>
      <point x="439" y="146"/>
      <point x="382" y="146" type="curve"/>
    </contour>
    <contour>
      <point x="265" y="441" type="line"/>
      <point x="265" y="577" type="line"/>
      <point x="380" y="577" type="line" smooth="yes"/>
      <point x="426" y="577"/>
      <point x="462" y="550"/>
      <point x="462" y="507" type="curve" smooth="yes"/>
      <point x="462" y="469"/>
      <point x="433" y="441"/>
      <point x="387" y="441" type="curve" smooth="yes"/>
    </contour>
  </outline>
</glyph>
<glyph name="C" format="1">
  <advance width="1490"/>
  <unicode hex="0043"/>
  <outline>
    <contour>
      <point x="782" y="1466" type="curve" smooth="yes"/>
      <point x="360" y="1466"/>
      <point x="90" y="1182"/>
      <point x="90" y="742" type="curve" smooth="yes"/>
      <point x="90" y="302"/>
      <point x="364" y="-20"/>
      <point x="782" y="-20" type="curve" smooth="yes"/>
      <point x="1244" y="-20"/>
      <point x="1370" y="240"/>
      <point x="1410" y="540" type="curve"/>
      <point x="1004" y="540" type="line"/>
      <point x="982" y="406"/>
      <point x="902" y="292"/>
      <point x="768" y="292" type="curve" smooth="yes"/>
      <point x="622" y="292"/>
      <point x="516" y="414"/>
      <point x="516" y="736" type="curve" smooth="yes"/>
      <point x="516" y="1054"/>
      <point x="622" y="1154"/>
      <point x="768" y="1154" type="curve" smooth="yes"/>
      <point x="902" y="1154"/>
      <point x="982" y="1070"/>
      <point x="1004" y="936" type="curve"/>
      <point x="1410" y="936" type="line"/>
      <point x="1378" y="1248"/>
      <point x="1126" y="1466"/>
    </contour>
    <contour>
      <point x="782" y="0" type="move" name="bottom"/>
    </contour>
    <contour>
      <point x="782" y="1446" type="move" name="top"/>
    </contour>
  </outline>
</glyph>
<glyph name="D" format="1">
  <advance width="744"/>
  <unicode hex="0044"/>
  <outline>
    <contour>
      <point x="70" y="723" type="curve"/>
      <point x="70" y="0" type="line"/>
      <point x="329" y="0" type="line" smooth="yes"/>
      <point x="585" y="0"/>
      <point x="704" y="153"/>
      <point x="704" y="364" type="curve" smooth="yes"/>
      <point x="704" y="569"/>
      <point x="591" y="713"/>
      <point x="330" y="722" type="curve" smooth="yes"/>
      <point x="267" y="724"/>
      <point x="91" y="723"/>
    </contour>
    <contour>
      <point x="265" y="570" type="line"/>
      <point x="335" y="570" type="line" smooth="yes"/>
      <point x="434" y="570"/>
      <point x="501" y="500"/>
      <point x="501" y="367" type="curve" smooth="yes"/>
      <point x="501" y="210"/>
      <point x="409" y="153"/>
      <point x="335" y="153" type="curve" smooth="yes"/>
      <point x="265" y="153" type="line"/>
    </contour>
    <contour>
      <point x="355" y="0" type="move" name="bottom"/>
    </contour>
    <contour>
      <point x="374" y="362" type="move" name="center"/>
    </contour>
    <contour>
      <point x="374" y="723" type="move" name="top"/>
    </contour>
  </outline>
</glyph>
<glyph name="E" format="1">
  <advance width="660"/>
  <unicode hex="0045"/>
  <outline>
    <contour>
      <point x="70" y="0" type="line"/>
      <point x="605" y="0" type="line"/>
      <point x="605" y="162" type="line"/>
      <point x="265" y="162" type="line"/>
      <point x="265" y="285" type="line"/>
      <point x="548" y="285" type="line"/>
      <point x="548" y="442" type="line"/>
      <point x="266" y="442" type="line"/>
      <point x="266" y="562" type="line"/>
      <point x="603" y="562" type="line"/>
      <point x="604" y="723" type="line"/>
      <point x="70" y="723" type="line"/>
    </contour>
    <contour>
      <point x="337" y="0" type="move" name="bottom"/>
    </contour>
    <contour>
      <point x="604" y="10" type="move" name="ogonek"/>
    </contour>
    <contour>
      <point x="337" y="723" type="move" name="top"/>
    </contour>
  </outline>
</glyph>
<glyph name="F" format="1">
  <advance width="630"/>
  <unicode hex="0046"/>
  <outline>
    <contour>
      <point x="70" y="723" type="line"/>
      <point x="70" y="0" type="line"/>
      <point x="265" y="0" type="line"/>
      <point x="265" y="279" type="line"/>
      <point x="544" y="279" type="line"/>
      <point x="544" y="434" type="line"/>
      <point x="265" y="434" type="line"/>
      <point x="265" y="564" type="line"/>
      <point x="599" y="564" type="line"/>
      <point x="600" y="723" type="line"/>
    </contour>
  </outline>
</glyph>
<glyph name="G" format="1">
  <advance width="1572"/>
  <unicode hex="0047"/>
  <outline>
    <contour>
      <point x="774" y="-20" type="curve" smooth="yes"/>
      <point x="1012" y="-20"/>
      <point x="1114" y="86"/>
      <point x="1186" y="160" type="curve"/>
      <point x="1186" y="0" type="line"/>
      <point x="1442" y="0" type="line"/>
      <point x="1442" y="764" type="line"/>
      <point x="780" y="768" type="line"/>
      <point x="780" y="506" type="line"/>
      <point x="1032" y="506" type="line"/>
      <point x="1014" y="454" type="line"/>
      <point x="994" y="388"/>
      <point x="914" y="318"/>
      <point x="804" y="318" type="curve" smooth="yes"/>
      <point x="680" y="318"/>
      <point x="514" y="376"/>
      <point x="514" y="730" type="curve" smooth="yes"/>
      <point x="514" y="1042"/>
      <point x="644" y="1144"/>
      <point x="788" y="1144" type="curve" smooth="yes"/>
      <point x="924" y="1144"/>
      <point x="998" y="1054"/>
      <point x="1024" y="936" type="curve"/>
      <point x="1430" y="936" type="line"/>
      <point x="1426" y="1206"/>
      <point x="1186" y="1466"/>
      <point x="798" y="1466" type="curve" smooth="yes"/>
      <point x="382" y="1466"/>
      <point x="90" y="1168"/>
      <point x="90" y="718" type="curve" smooth="yes"/>
      <point x="90" y="282"/>
      <point x="362" y="-20"/>
    </contour>
    <contour>
      <point x="778" y="0" type="move" name="bottom"/>
    </contour>
    <contour>
      <point x="786" y="1446" type="move" name="top"/>
    </contour>
  </outline>
</glyph>
<glyph name="H" format="1">
  <advance width="749"/>
  <unicode hex="0048"/>
  <outline>
    <contour>
      <point x="484" y="290" type="line"/>
      <point x="484" y="0" type="line"/>
      <point x="679" y="0" type="line"/>
      <point x="679" y="723" type="line"/>
      <point x="484" y="723" type="line"/>
      <point x="484" y="449" type="line"/>
      <point x="265" y="449" type="line"/>
      <point x="265" y="723" type="line"/>
      <point x="70" y="723" type="line"/>
      <point x="70" y="0" type="line"/>
      <point x="265" y="0" type="line"/>
      <point x="265" y="290" type="line"/>
    </contour>
    <contour>
      <point x="370" y="0" type="move" name="bottom"/>
    </contour>
    <contour>
      <point x="374" y="723" type="move" name="top"/>
    </contour>
  </outline>
</glyph>
<glyph name="I" format="1">
  <advance width="335"/>
  <unicode hex="0049"/>
  <outline>
    <contour>
      <point x="70" y="723" type="line"/>
      <point x="70" y="0" type="line"/>
      <point x="265" y="0" type="line"/>
      <point x="265" y="723" type="line"/>
    </contour>
    <contour>
      <point x="178" y="0" type="move" name="bottom"/>
    </contour>
    <contour>
      <point x="241" y="3" type="move" name="ogonek"/>
    </contour>
    <contour>
      <point x="168" y="723" type="move" name="top"/>
    </contour>
  </outline>
</glyph>
<glyph name="J" format="1">
  <advance width="850"/>
  <unicode hex="004A"/>
  <outline>
    <contour>
      <point x="740" y="458" type="curve" smooth="yes"/>
      <point x="740" y="1446" type="line"/>
      <point x="350" y="1446" type="line"/>
      <point x="350" y="558" type="line" smooth="yes"/>
      <point x="350" y="408"/>
      <point x="316" y="340"/>
      <point x="178" y="340" type="curve" smooth="yes"/>
      <point x="136" y="340"/>
      <point x="86" y="346"/>
      <point x="50" y="350" type="curve"/>
      <point x="50" y="0" type="line"/>
      <point x="110" y="-12"/>
      <point x="230" y="-20"/>
      <point x="312" y="-20" type="curve" smooth="yes"/>
      <point x="662" y="-20"/>
      <point x="740" y="138"/>
    </contour>
    <contour>
      <point x="536" y="1446" type="move" name="top"/>
    </contour>
  </outline>
</glyph>
<glyph name="K" format="1">
  <advance width="752"/>
  <unicode hex="004B"/>
  <outline>
    <contour>
      <point x="732" y="0" type="line"/>
      <point x="501" y="447" type="line"/>
      <point x="700" y="723" type="line"/>
      <point x="481" y="723" type="line"/>
      <point x="272" y="431" type="line"/>
      <point x="272" y="723" type="line"/>
      <point x="70" y="723" type="line"/>
      <point x="70" y="0" type="line"/>
      <point x="272" y="0" type="line"/>
      <point x="272" y="189" type="line"/>
      <point x="362" y="305" type="line"/>
      <point x="523" y="0" type="line"/>
    </contour>
    <contour>
      <point x="362" y="0" type="move" name="bottom"/>
    </contour>
    <contour>
      <point x="375" y="723" type="move" name="top"/>
    </contour>
  </outline>
</glyph>
<glyph name="L" format="1">
  <advance width="579"/>
  <unicode hex="004C"/>
  <outline>
    <contour>
      <point x="70" y="723" type="line"/>
      <point x="70" y="0" type="line"/>
      <point x="554" y="0" type="line"/>
      <point x="554" y="160" type="line"/>
      <point x="265" y="160" type="line"/>
      <point x="265" y="723" type="line"/>
    </contour>
    <contour>
      <point x="309" y="0" type="move" name="bottom"/>
    </contour>
    <contour>
      <point x="163" y="723" type="move" name="top"/>
    </contour>
    <contour>
      <point x="491" y="723" type="move" name="topright"/>
    </contour>
  </outline>
</glyph>
<glyph name="M" format="1">
  <advance width="1904"/>
  <unicode hex="004D"/>
  <outline>
    <contour>
      <point x="140" y="0" type="line"/>
      <point x="530" y="0" type="line"/>
      <point x="530" y="1048" type="line"/>
      <point x="812" y="0" type="line"/>
      <point x="1092" y="0" type="line"/>
      <point x="1374" y="1048" type="line"/>
      <point x="1374" y="0" type="line"/>
      <point x="1764" y="0" type="line"/>
      <point x="1764" y="1446" type="line"/>
      <point x="1188" y="1446" type="line"/>
      <point x="952" y="564" type="line"/>
      <point x="718" y="1446" type="line"/>
      <point x="140" y="1446" type="line"/>
    </contour>
  </outline>
</glyph>
<glyph name="N" format="1">
  <advance width="813"/>
  <unicode hex="004E"/>
  <outline>
    <contour>
      <point x="548" y="723" type="line"/>
      <point x="548" y="320" type="line"/>
      <point x="266" y="723" type="line"/>
      <point x="70" y="723" type="line"/>
      <point x="70" y="0" type="line"/>
      <point x="265" y="0" type="line"/>
      <point x="265" y="431" type="line"/>
      <point x="567" y="0" type="line"/>
      <point x="743" y="0" type="line"/>
      <point x="743" y="723" type="line"/>
    </contour>
    <contour>
      <point x="406" y="0" type="move" name="bottom"/>
    </contour>
    <contour>
      <point x="406" y="723" type="move" name="top"/>
    </contour>
  </outline>
</glyph>
<glyph name="O" format="1">
  <advance width="1580"/>
  <unicode hex="004F"/>
  <outline>
    <contour>
      <point x="792" y="-20" type="curve" smooth="yes"/>
      <point x="1218" y="-20"/>
      <point x="1490" y="272"/>
      <point x="1490" y="720" type="curve" smooth="yes"/>
      <point x="1490" y="1172"/>
      <point x="1212" y="1466"/>
      <point x="792" y="1466" type="curve" smooth="yes"/>
      <point x="370" y="1466"/>
      <point x="90" y="1172"/>
      <point x="90" y="720" type="curve" smooth="yes"/>
      <point x="90" y="270"/>
      <point x="362" y="-20"/>
    </contour>
    <contour>
      <point x="792" y="292" type="curve" smooth="yes"/>
      <point x="632" y="292"/>
      <point x="514" y="402"/>
      <point x="514" y="714" type="curve" smooth="yes"/>
      <point x="514" y="1036"/>
      <point x="632" y="1154"/>
      <point x="792" y="1154" type="curve" smooth="yes"/>
      <point x="952" y="1154"/>
      <point x="1068" y="1036"/>
      <point x="1068" y="714" type="curve" smooth="yes"/>
      <point x="1068" y="402"/>
      <point x="952" y="292"/>
    </contour>
    <contour>
      <point x="794" y="0" type="move" name="bottom"/>
    </contour>
    <contour>
      <point x="1280" y="1094" type="move" name="horn"/>
    </contour>
    <contour>
      <point x="972" y="20" type="move" name="ogonek"/>
    </contour>
    <contour>
      <point x="790" y="1446" type="move" name="top"/>
    </contour>
  </outline>
</glyph>
<glyph name="P" format="1">
  <advance width="1340"/>
  <unicode hex="0050"/>
  <outline>
    <contour>
      <point x="140" y="0" type="line"/>
      <point x="530" y="0" type="line"/>
      <point x="530" y="498" type="line"/>
      <point x="762" y="498" type="line" smooth="yes"/>
      <point x="1080" y="498"/>
      <point x="1280" y="670"/>
      <point x="1280" y="956" type="curve" smooth="yes"/>
      <point x="1280" y="1270"/>
      <point x="1032" y="1446"/>
      <point x="712" y="1446" type="curve" smooth="yes"/>
      <point x="140" y="1446" type="line"/>
    </contour>
    <contour>
      <point x="526" y="788" type="line"/>
      <point x="526" y="1158" type="line"/>
      <point x="750" y="1158" type="line" smooth="yes"/>
      <point x="836" y="1158"/>
      <point x="922" y="1076"/>
      <point x="922" y="976" type="curve" smooth="yes"/>
      <point x="922" y="882"/>
      <point x="848" y="788"/>
      <point x="750" y="788" type="curve" smooth="yes"/>
    </contour>
  </outline>
</glyph>
<glyph name="Q" format="1">
  <advance width="786"/>
  <unicode hex="0051"/>
  <outline>
    <contour>
      <point x="30" y="360" type="curve" smooth="yes"/>
      <point x="30" y="135"/>
      <point x="166" y="-10"/>
      <point x="381" y="-10" type="curve" smooth="yes"/>
      <point x="406" y="-10"/>
      <point x="426" y="-9"/>
      <point x="461" y="-5" type="curve"/>
      <point x="547" y="-113"/>
      <point x="615" y="-125"/>
      <point x="731" y="-125" type="curve"/>
      <point x="731" y="27" type="line"/>
      <point x="682" y="27"/>
      <point x="637" y="52"/>
      <point x="629" y="80" type="curve"/>
      <point x="694" y="150"/>
      <point x="731" y="243"/>
      <point x="731" y="360" type="curve" smooth="yes"/>
      <point x="731" y="586"/>
      <point x="592" y="733"/>
      <point x="381" y="733" type="curve" smooth="yes"/>
      <point x="170" y="733"/>
      <point x="30" y="586"/>
    </contour>
    <contour>
      <point x="243" y="358" type="curve" smooth="yes"/>
      <point x="243" y="519"/>
      <point x="297" y="577"/>
      <point x="381" y="577" type="curve" smooth="yes"/>
      <point x="465" y="577"/>
      <point x="519" y="519"/>
      <point x="519" y="358" type="curve" smooth="yes"/>
      <point x="519" y="201"/>
      <point x="467" y="146"/>
      <point x="381" y="146" type="curve" smooth="yes"/>
      <point x="295" y="146"/>
      <point x="243" y="201"/>
    </contour>
  </outline>
</glyph>
<glyph name="R" format="1">
  <advance width="716"/>
  <unicode hex="0052"/>
  <outline>
    <contour>
      <point x="671" y="0" type="line"/>
      <point x="544" y="280" type="line"/>
      <point x="611" y="321"/>
      <point x="659" y="379"/>
      <point x="659" y="490" type="curve" smooth="yes"/>
      <point x="659" y="621"/>
      <point x="586" y="723"/>
      <point x="398" y="723" type="curve" smooth="yes"/>
      <point x="70" y="723" type="line"/>
      <point x="70" y="0" type="line"/>
      <point x="265" y="0" type="line"/>
      <point x="265" y="249" type="line"/>
      <point x="367" y="249" type="line"/>
      <point x="472" y="0" type="line"/>
    </contour>
    <contour>
      <point x="376" y="394" type="curve" smooth="yes"/>
      <point x="265" y="394" type="line"/>
      <point x="265" y="579" type="line"/>
      <point x="376" y="579" type="line" smooth="yes"/>
      <point x="420" y="579"/>
      <point x="463" y="538"/>
      <point x="463" y="488" type="curve" smooth="yes"/>
      <point x="463" y="441"/>
      <point x="426" y="394"/>
    </contour>
    <contour>
      <point x="362" y="0" type="move" name="bottom"/>
    </contour>
    <contour>
      <point x="352" y="723" type="move" name="top"/>
    </contour>
  </outline>
</glyph>
<glyph name="S" format="1">
  <advance width="724"/>
  <unicode hex="0053"/>
  <outline>
    <contour>
      <point x="367" y="-10" type="curve" smooth="yes"/>
      <point x="548" y="-10"/>
      <point x="684" y="82"/>
      <point x="684" y="205" type="curve" smooth="yes"/>
      <point x="684" y="277"/>
      <point x="671" y="407"/>
      <point x="461" y="443" type="curve" smooth="yes"/>
      <point x="348" y="462" type="line" smooth="yes"/>
      <point x="285" y="473"/>
      <point x="269" y="492"/>
      <point x="269" y="525" type="curve" smooth="yes"/>
      <point x="269" y="551"/>
      <point x="292" y="582"/>
      <point x="368" y="582" type="curve" smooth="yes"/>
      <point x="436" y="582"/>
      <point x="476" y="560"/>
      <point x="482" y="504" type="curve"/>
      <point x="679" y="504" type="line"/>
      <point x="666" y="623"/>
      <point x="541" y="732"/>
      <point x="364" y="732" type="curve" smooth="yes"/>
      <point x="197" y="732"/>
      <point x="59" y="647"/>
      <point x="61" y="501" type="curve" smooth="yes"/>
      <point x="63" y="378"/>
      <point x="138" y="306"/>
      <point x="251" y="288" type="curve" smooth="yes"/>
      <point x="364" y="269" type="line" smooth="yes"/>
      <point x="425" y="259"/>
      <point x="485" y="249"/>
      <point x="485" y="205" type="curve" smooth="yes"/>
      <point x="485" y="154"/>
      <point x="427" y="139"/>
      <point x="366" y="139" type="curve" smooth="yes"/>
      <point x="298" y="139"/>
      <point x="253" y="169"/>
      <point x="242" y="220" type="curve"/>
      <point x="40" y="220" type="line"/>
      <point x="53" y="59"/>
      <point x="215" y="-10"/>
    </contour>
    <contour>
      <point x="364" y="0" type="move" name="bottom"/>
    </contour>
    <contour>
      <point x="364" y="723" type="move" name="top"/>
    </contour>
  </outline>
</glyph>
<glyph name="T" format="1">
  <advance width="637"/>
  <unicode hex="0054"/>
  <outline>
    <contour>
      <point x="15" y="552" type="line"/>
      <point x="220" y="552" type="line"/>
      <point x="220" y="0" type="line"/>
      <point x="415" y="0" type="line"/>
      <point x="415" y="552" type="line"/>
      <point x="622" y="552" type="line"/>
      <point x="622" y="723" type="line"/>
      <point x="15" y="723" type="line"/>
    </contour>
    <contour>
      <point x="327" y="0" type="move" name="bottom"/>
    </contour>
    <contour>
      <point x="327" y="723" type="move" name="top"/>
    </contour>
  </outline>
</glyph>
<glyph name="U" format="1">
  <advance width="749"/>
  <unicode hex="0055"/>
  <outline>
    <contour>
      <point x="694" y="299" type="curve" smooth="yes"/>
      <point x="694" y="723" type="line"/>
      <point x="497" y="723" type="line"/>
      <point x="497" y="291" type="line" smooth="yes"/>
      <point x="497" y="191"/>
      <point x="442" y="153"/>
      <point x="382" y="153" type="curve" smooth="yes"/>
      <point x="321" y="153"/>
      <point x="267" y="191"/>
      <point x="267" y="291" type="curve" smooth="yes"/>
      <point x="267" y="723" type="line"/>
      <point x="70" y="723" type="line"/>
      <point x="70" y="299" type="line" smooth="yes"/>
      <point x="70" y="115"/>
      <point x="149" y="-10"/>
      <point x="382" y="-10" type="curve" smooth="yes"/>
      <point x="615" y="-10"/>
      <point x="694" y="115"/>
    </contour>
    <contour>
      <point x="382" y="0" type="move" name="bottom"/>
    </contour>
    <contour>
      <point x="660" y="547" type="move" name="horn"/>
    </contour>
    <contour>
      <point x="461" y="12" type="move" name="ogonek"/>
    </contour>
    <contour>
      <point x="382" y="723" type="move" name="top"/>
    </contour>
  </outline>
</glyph>
<glyph name="V" format="1">
  <advance width="722"/>
  <unicode hex="0056"/>
  <outline>
    <contour>
      <point x="712" y="723" type="line"/>
      <point x="528" y="723" type="line"/>
      <point x="361" y="228" type="line"/>
      <point x="193" y="723" type="line"/>
      <point x="10" y="723" type="line"/>
      <point x="254" y="0" type="line"/>
      <point x="468" y="0" type="line"/>
    </contour>
  </outline>
</glyph>
<glyph name="W" format="1">
  <advance width="982"/>
  <unicode hex="0057"/>
  <outline>
    <contour>
      <point x="967" y="723" type="line"/>
      <point x="779" y="723" type="line"/>
      <point x="671" y="335" type="line"/>
      <point x="559" y="723" type="line"/>
      <point x="423" y="723" type="line"/>
      <point x="315" y="335" type="line"/>
      <point x="203" y="723" type="line"/>
      <point x="15" y="723" type="line"/>
      <point x="233" y="0" type="line"/>
      <point x="376" y="0" type="line"/>
      <point x="491" y="393" type="line"/>
      <point x="606" y="0" type="line"/>
      <point x="751" y="0" type="line"/>
    </contour>
    <contour>
      <point x="491" y="723" type="move" name="top"/>
    </contour>
  </outline>
</glyph>
<glyph name="X" format="1">
  <advance width="743"/>
  <unicode hex="0058"/>
  <outline>
    <contour>
      <point x="728" y="0" type="line"/>
      <point x="473" y="393" type="line"/>
      <point x="689" y="723" type="line"/>
      <point x="485" y="723" type="line"/>
      <point x="374" y="527" type="line"/>
      <point x="262" y="723" type="line"/>
      <point x="21" y="723" type="line"/>
      <point x="251" y="365" type="line"/>
      <point x="15" y="0" type="line"/>
      <point x="222" y="0" type="line"/>
      <point x="352" y="227" type="line"/>
      <point x="485" y="0" type="line"/>
    </contour>
  </outline>
</glyph>
<glyph name="Y" format="1">
  <advance width="1434"/>
  <unicode hex="0059"/>
  <outline>
    <contour>
      <point x="1424" y="1446" type="line"/>
      <point x="1000" y="1446" type="line"/>
      <point x="716" y="932" type="line"/>
      <point x="430" y="1446" type="line"/>
      <point x="10" y="1446" type="line"/>
      <point x="520" y="602" type="line"/>
      <point x="520" y="0" type="line"/>
      <point x="910" y="0" type="line"/>
      <point x="910" y="602" type="line"/>
    </contour>
    <contour>
      <point x="716" y="0" type="move" name="bottom"/>
    </contour>
    <contour>
      <point x="766" y="1446" type="move" name="top"/>
    </contour>
  </outline>
</glyph>
<glyph name="Z" format="1">
  <advance width="1412"/>
  <unicode hex="005A"/>
  <outline>
    <contour>
      <point x="90" y="0" type="line"/>
      <point x="1320" y="0" type="line"/>
      <point x="1320" y="324" type="line"/>
      <point x="636" y="324" type="line"/>
      <point x="1332" y="1276" type="line"/>
      <point x="1332" y="1446" type="line"/>
      <point x="154" y="1446" type="line"/>
      <point x="154" y="1126" type="line"/>
      <point x="772" y="1126" type="line"/>
      <point x="90" y="178" type="line"/>
    </contour>
    <contour>
      <point x="716" y="0" type="move" name="bottom"/>
    </contour>
    <contour>
      <point x="762" y="1446" type="move" name="top"/>
    </contour>
  </outline>
</glyph>
<glyph name="bracketleft" format="1">
  <advance width="368"/>
  <unicode hex="005B"/>
  <outline>
    <contour>
      <point x="60" y="723" type="line"/>
      <point x="60" y="-161" type="line"/>
      <point x="328" y="-161" type="line"/>
      <point x="328" y="-57" type="line"/>
      <point x="215" y="-57" type="line"/>
      <point x="215" y="619" type="line"/>
      <point x="328" y="619" type="line"/>
      <point x="328" y="723" type="line"/>
    </contour>
  </outline>
</glyph>
<glyph name="backslash" format="1">
  <advance width="409"/>
  <unicode hex="005C"/>
  <outline>
    <contour>
      <point x="260" y="0" type="line"/>
      <point x="389" y="0" type="line"/>
      <point x="134" y="723" type="line"/>
      <point x="5" y="723" type="line"/>
    </contour>
  </outline>
</glyph>
<glyph name="asciicircum" format="1">
  <advance width="494"/>
  <unicode hex="005E"/>
  <outline>
    <contour>
      <point x="332" y="117" type="line"/>
      <point x="454" y="117" type="line"/>
      <point x="294" y="492" type="line" smooth="yes"/>
      <point x="273" y="539"/>
      <point x="207" y="536"/>
      <point x="187" y="491" type="curve" smooth="yes"/>
      <point x="25" y="117" type="line"/>
      <point x="148" y="117" type="line"/>
      <point x="240" y="339" type="line"/>
    </contour>
  </outline>
</glyph>
<glyph name="underscore" format="1">
  <advance width="585"/>
  <unicode hex="005F"/>
  <outline>
    <contour>
      <point x="523" y="-20" type="line"/>
      <point x="53" y="-20" type="line"/>
      <point x="53" y="-156" type="line"/>
      <point x="523" y="-156" type="line"/>
    </contour>
  </outline>
</glyph>
<glyph name="a" format="1">
  <advance width="572"/>
  <unicode hex="0061"/>
  <outline>
    <contour>
      <point x="204" y="-10" type="curve" smooth="yes"/>
      <point x="274" y="-10"/>
      <point x="317" y="12"/>
      <point x="348" y="82" type="curve"/>
      <point x="365" y="0" type="line"/>
      <point x="526" y="0" type="line"/>
      <point x="526" y="366" type="line" smooth="yes"/>
      <point x="526" y="461"/>
      <point x="472" y="527"/>
      <point x="292" y="527" type="curve" smooth="yes"/>
      <point x="159" y="527"/>
      <point x="51" y="478"/>
      <point x="45" y="356" type="curve"/>
      <point x="203" y="356" type="line"/>
      <point x="219" y="391"/>
      <point x="256" y="400"/>
      <point x="283" y="401" type="curve" smooth="yes"/>
      <point x="322" y="402"/>
      <point x="340" y="387"/>
      <point x="340" y="354" type="curve" smooth="yes"/>
      <point x="340" y="332" type="line"/>
      <point x="300" y="332" type="line" smooth="yes"/>
      <point x="112" y="332"/>
      <point x="25" y="267"/>
      <point x="25" y="155" type="curve" smooth="yes"/>
      <point x="25" y="48"/>
      <point x="106" y="-10"/>
    </contour>
    <contour>
      <point x="272" y="113" type="curve" smooth="yes"/>
      <point x="239" y="113"/>
      <point x="208" y="136"/>
      <point x="208" y="175" type="curve" smooth="yes"/>
      <point x="208" y="226"/>
      <point x="278" y="240"/>
      <point x="309" y="240" type="curve" smooth="yes"/>
      <point x="340" y="240" type="line"/>
      <point x="340" y="175" type="line"/>
      <point x="339" y="142"/>
      <point x="310" y="113"/>
    </contour>
    <contour>
      <point x="291" y="0" type="move" name="bottom"/>
    </contour>
    <contour>
      <point x="498" y="10" type="move" name="ogonek"/>
    </contour>
    <contour>
      <point x="292" y="517" type="move" name="top"/>
    </contour>
  </outline>
</glyph>
<glyph name="b" format="1">
  <advance width="615"/>
  <unicode hex="0062"/>
  <outline>
    <contour>
      <point x="366" y="-10" type="curve" smooth="yes"/>
      <point x="509" y="-10"/>
      <point x="588" y="97"/>
      <point x="588" y="262" type="curve" smooth="yes"/>
      <point x="588" y="425"/>
      <point x="514" y="527"/>
      <point x="387" y="527" type="curve" smooth="yes"/>
      <point x="336" y="527"/>
      <point x="280" y="502"/>
      <point x="245" y="439" type="curve"/>
      <point x="245" y="743" type="line"/>
      <point x="50" y="743" type="line"/>
      <point x="50" y="0" type="line"/>
      <point x="187" y="0" type="line"/>
      <point x="207" y="72" type="line"/>
      <point x="235" y="16"/>
      <point x="302" y="-10"/>
    </contour>
    <contour>
      <point x="314" y="126" type="curve"/>
      <point x="271" y="126"/>
      <point x="245" y="168"/>
      <point x="245" y="264" type="curve"/>
      <point x="245" y="264" type="line"/>
      <point x="245" y="353"/>
      <point x="273" y="390"/>
      <point x="317" y="390" type="curve" smooth="yes"/>
      <point x="357" y="390"/>
      <point x="391" y="368"/>
      <point x="391" y="264" type="curve" smooth="yes"/>
      <point x="391" y="160"/>
      <point x="360" y="126"/>
    </contour>
  </outline>
</glyph>
<glyph name="c" format="1">
  <advance width="1086"/>
  <unicode hex="0063"/>
  <outline>
    <contour>
      <point x="582" y="1054" type="curve" smooth="yes"/>
      <point x="282" y="1054"/>
      <point x="60" y="832"/>
      <point x="60" y="512" type="curve" smooth="yes"/>
      <point x="60" y="196"/>
      <point x="286" y="-20"/>
      <point x="582" y="-20" type="curve" smooth="yes"/>
      <point x="864" y="-20"/>
      <point x="1030" y="180"/>
      <point x="1030" y="400" type="curve"/>
      <point x="724" y="400" type="line"/>
      <point x="718" y="358"/>
      <point x="690" y="248"/>
      <point x="592" y="248" type="curve" smooth="yes"/>
      <point x="492" y="248"/>
      <point x="418" y="346"/>
      <point x="418" y="516" type="curve" smooth="yes"/>
      <point x="418" y="682"/>
      <point x="484" y="766"/>
      <point x="584" y="766" type="curve" smooth="yes"/>
      <point x="684" y="766"/>
      <point x="712" y="670"/>
      <point x="720" y="612" type="curve"/>
      <point x="1036" y="612" type="line"/>
      <point x="1030" y="844"/>
      <point x="874" y="1054"/>
    </contour>
    <contour>
      <point x="580" y="0" type="move" name="bottom"/>
    </contour>
    <contour>
      <point x="582" y="1034" type="move" name="top"/>
    </contour>
  </outline>
</glyph>
<glyph name="d" format="1">
  <advance width="610"/>
  <unicode hex="0064"/>
  <outline>
    <contour>
      <point x="247" y="-10" type="curve" smooth="yes"/>
      <point x="331" y="-10"/>
      <point x="380" y="34"/>
      <point x="403" y="106" type="curve"/>
      <point x="426" y="0" type="line"/>
      <point x="564" y="0" type="line"/>
      <point x="564" y="743" type="line"/>
      <point x="369" y="743" type="line"/>
      <point x="369" y="458" type="line"/>
      <point x="337" y="511"/>
      <point x="277" y="527"/>
      <point x="226" y="527" type="curve" smooth="yes"/>
      <point x="99" y="527"/>
      <point x="25" y="425"/>
      <point x="25" y="262" type="curve" smooth="yes"/>
      <point x="25" y="97"/>
      <point x="104" y="-10"/>
    </contour>
    <contour>
      <point x="294" y="126" type="curve"/>
      <point x="249" y="126"/>
      <point x="213" y="160"/>
      <point x="213" y="264" type="curve" smooth="yes"/>
      <point x="213" y="368"/>
      <point x="252" y="390"/>
      <point x="292" y="390" type="curve" smooth="yes"/>
      <point x="335" y="390"/>
      <point x="369" y="364"/>
      <point x="369" y="284" type="curve"/>
      <point x="369" y="239" type="line"/>
      <point x="369" y="162"/>
      <point x="337" y="126"/>
    </contour>
    <contour>
      <point x="298" y="0" type="move" name="bottom"/>
    </contour>
    <contour>
      <point x="298" y="258" type="move" name="center"/>
    </contour>
    <contour>
      <point x="577" y="517" type="move" name="topright"/>
    </contour>
  </outline>
</glyph>
<glyph name="e" format="1">
  <advance width="1138"/>
  <unicode hex="0065"/>
  <outline>
    <contour>
      <point x="432" y="428" type="curve"/>
      <point x="1084" y="428" type="line"/>
      <point x="1084" y="518" type="line"/>
      <point x="1084" y="824"/>
      <point x="914" y="1054"/>
      <point x="576" y="1054" type="curve" smooth="yes"/>
      <point x="244" y="1054"/>
      <point x="50" y="800"/>
      <point x="50" y="504" type="curve" smooth="yes"/>
      <point x="50" y="190"/>
      <point x="270" y="-20"/>
      <point x="592" y="-20" type="curve" smooth="yes"/>
      <point x="822" y="-20"/>
      <point x="1056" y="122"/>
      <point x="1088" y="352" type="curve"/>
      <point x="744" y="352" type="line"/>
      <point x="712" y="272"/>
      <point x="654" y="252"/>
      <point x="582" y="252" type="curve" smooth="yes"/>
      <point x="498" y="252"/>
      <point x="430" y="304"/>
    </contour>
    <contour>
      <point x="430" y="646" type="line"/>
      <point x="430" y="724"/>
      <point x="496" y="792"/>
      <point x="576" y="792" type="curve" smooth="yes"/>
      <point x="674" y="792"/>
      <point x="726" y="724"/>
      <point x="726" y="646" type="curve"/>
    </contour>
    <contour>
      <point x="584" y="0" type="move" name="bottom"/>
    </contour>
    <contour>
      <point x="834" y="50" type="move" name="ogonek"/>
    </contour>
    <contour>
      <point x="578" y="1034" type="move" name="top"/>
    </contour>
  </outline>
</glyph>
<glyph name="f" format="1">
  <advance width="387"/>
  <unicode hex="0066"/>
  <outline>
    <contour>
      <point x="382" y="517" type="line"/>
      <point x="284" y="517" type="line"/>
      <point x="284" y="547" type="line" smooth="yes"/>
      <point x="284" y="585"/>
      <point x="295" y="597"/>
      <point x="327" y="597" type="curve" smooth="yes"/>
      <point x="387" y="597" type="line"/>
      <point x="386" y="723" type="line"/>
      <point x="248" y="723" type="line" smooth="yes"/>
      <point x="153" y="723"/>
      <point x="93" y="671"/>
      <point x="93" y="586" type="curve" smooth="yes"/>
      <point x="93" y="517" type="line"/>
      <point x="10" y="517" type="line"/>
      <point x="10" y="385" type="line"/>
      <point x="93" y="385" type="line"/>
      <point x="93" y="0" type="line"/>
      <point x="288" y="0" type="line"/>
      <point x="288" y="385" type="line"/>
      <point x="382" y="385" type="line"/>
    </contour>
  </outline>
</glyph>
<glyph name="g" format="1">
  <advance width="633"/>
  <unicode hex="0067"/>
  <outline>
    <contour>
      <point x="308" y="-171" type="curve" smooth="yes"/>
      <point x="504" y="-171"/>
      <point x="603" y="-97"/>
      <point x="603" y="3" type="curve" smooth="yes"/>
      <point x="603" y="83"/>
      <point x="540" y="148"/>
      <point x="397" y="158" type="curve" smooth="yes"/>
      <point x="353" y="161"/>
      <point x="312" y="163"/>
      <point x="294" y="164" type="curve" smooth="yes"/>
      <point x="243" y="167"/>
      <point x="211" y="167"/>
      <point x="211" y="181" type="curve"/>
      <point x="211" y="186"/>
      <point x="215" y="188"/>
      <point x="225" y="190" type="curve"/>
      <point x="242" y="188"/>
      <point x="278" y="187"/>
      <point x="294" y="187" type="curve" smooth="yes"/>
      <point x="458" y="187"/>
      <point x="545" y="277"/>
      <point x="545" y="365" type="curve" smooth="yes"/>
      <point x="545" y="371"/>
      <point x="543" y="390"/>
      <point x="539" y="405" type="curve"/>
      <point x="627" y="417" type="line"/>
      <point x="628" y="555" type="line"/>
      <point x="571" y="531"/>
      <point x="497" y="503"/>
      <point x="458" y="488" type="curve"/>
      <point x="420" y="508"/>
      <point x="380" y="525"/>
      <point x="306" y="525" type="curve" smooth="yes"/>
      <point x="165" y="525"/>
      <point x="43" y="468"/>
      <point x="43" y="364" type="curve" smooth="yes"/>
      <point x="43" y="309"/>
      <point x="79" y="243"/>
      <point x="154" y="210" type="curve"/>
      <point x="73" y="199"/>
      <point x="35" y="160"/>
      <point x="35" y="119" type="curve" smooth="yes"/>
      <point x="35" y="62"/>
      <point x="93" y="40"/>
      <point x="108" y="32" type="curve"/>
      <point x="100" y="30"/>
      <point x="5" y="15"/>
      <point x="5" y="-52" type="curve" smooth="yes"/>
      <point x="5" y="-118"/>
      <point x="104" y="-171"/>
    </contour>
    <contour>
      <point x="338" y="-69" type="curve" smooth="yes"/>
      <point x="239" y="-69"/>
      <point x="194" y="-62"/>
      <point x="194" y="-29" type="curve" smooth="yes"/>
      <point x="194" y="-12"/>
      <point x="207" y="11"/>
      <point x="261" y="8" type="curve" smooth="yes"/>
      <point x="355" y="2" type="line" smooth="yes"/>
      <point x="395" y="-1"/>
      <point x="419" y="-15"/>
      <point x="419" y="-37" type="curve" smooth="yes"/>
      <point x="419" y="-56"/>
      <point x="406" y="-69"/>
    </contour>
    <contour>
      <point x="300" y="289" type="curve" smooth="yes"/>
      <point x="263" y="289"/>
      <point x="238" y="318"/>
      <point x="238" y="357" type="curve" smooth="yes"/>
      <point x="238" y="396"/>
      <point x="263" y="430"/>
      <point x="300" y="430" type="curve" smooth="yes"/>
      <point x="337" y="430"/>
      <point x="362" y="396"/>
      <point x="362" y="357" type="curve" smooth="yes"/>
      <point x="362" y="318"/>
      <point x="337" y="289"/>
    </contour>
    <contour>
      <point x="307" y="517" type="move" name="top"/>
    </contour>
  </outline>
</glyph>
<glyph name="h" format="1">
  <advance width="1214"/>
  <unicode hex="0068"/>
  <outline>
    <contour>
      <point x="100" y="0" type="line"/>
      <point x="490" y="0" type="line"/>
      <point x="490" y="642" type="line"/>
      <point x="490" y="700"/>
      <point x="554" y="740"/>
      <point x="612" y="740" type="curve" smooth="yes"/>
      <point x="670" y="740"/>
      <point x="734" y="704"/>
      <point x="734" y="646" type="curve" smooth="yes"/>
      <point x="734" y="0" type="line"/>
      <point x="1124" y="0" type="line"/>
      <point x="1124" y="692" type="line" smooth="yes"/>
      <point x="1124" y="898"/>
      <point x="956" y="1034"/>
      <point x="762" y="1034" type="curve" smooth="yes"/>
      <point x="600" y="1034"/>
      <point x="538" y="966"/>
      <point x="490" y="906" type="curve"/>
      <point x="490" y="1486" type="line"/>
      <point x="100" y="1486" type="line"/>
    </contour>
    <contour>
      <point x="614" y="0" type="move" name="bottom"/>
    </contour>
    <contour>
      <point x="886" y="1034" type="move" name="top"/>
    </contour>
  </outline>
</glyph>
<glyph name="i" format="1">
  <advance width="580"/>
  <unicode hex="0069"/>
  <outline>
    <contour>
      <point x="490" y="1034" type="line"/>
      <point x="100" y="1034" type="line"/>
      <point x="100" y="0" type="line"/>
      <point x="490" y="0" type="line"/>
    </contour>
    <contour>
      <point x="490" y="1486" type="line"/>
      <point x="100" y="1486" type="line"/>
      <point x="100" y="1158" type="line"/>
      <point x="490" y="1158" type="line"/>
    </contour>
    <contour>
      <point x="296" y="0" type="move" name="bottom"/>
    </contour>
  </outline>
</glyph>
<glyph name="j" format="1">
  <advance width="316"/>
  <unicode hex="006A"/>
  <outline>
    <contour>
      <point x="262" y="28" type="curve" smooth="yes"/>
      <point x="262" y="517" type="line"/>
      <point x="67" y="517" type="line"/>
      <point x="67" y="28" type="line"/>
      <point x="67" y="7"/>
      <point x="57" y="-6"/>
      <point x="20" y="-14" type="curve"/>
      <point x="-10" y="-19" type="line"/>
      <point x="-9" y="-149" type="line"/>
      <point x="-9" y="-149"/>
      <point x="6" y="-166"/>
      <point x="58" y="-166" type="curve"/>
      <point x="196" y="-166"/>
      <point x="262" y="-100"/>
    </contour>
    <contour>
      <point x="262" y="743" type="line"/>
      <point x="67" y="743" type="line"/>
      <point x="67" y="579" type="line"/>
      <point x="262" y="579" type="line"/>
    </contour>
  </outline>
</glyph>
<glyph name="k" format="1">
  <advance width="1202"/>
  <unicode hex="006B"/>
  <outline>
    <contour>
      <point x="1182" y="0" type="line"/>
      <point x="802" y="606" type="line"/>
      <point x="1180" y="1034" type="line"/>
      <point x="774" y="1034" type="line"/>
      <point x="490" y="686" type="line"/>
      <point x="490" y="1486" type="line"/>
      <point x="100" y="1486" type="line"/>
      <point x="100" y="0" type="line"/>
      <point x="490" y="0" type="line"/>
      <point x="490" y="292" type="line"/>
      <point x="566" y="380" type="line"/>
      <point x="804" y="0" type="line"/>
    </contour>
    <contour>
      <point x="606" y="0" type="move" name="bottom"/>
    </contour>
  </outline>
</glyph>
<glyph name="l" format="1">
  <advance width="340"/>
  <unicode hex="006C"/>
  <outline>
    <contour>
      <point x="247" y="-11" type="curve" smooth="yes"/>
      <point x="272" y="-11"/>
      <point x="297" y="-4"/>
      <point x="320" y="5" type="curve"/>
      <point x="320" y="123" type="line"/>
      <point x="299" y="125" type="line"/>
      <point x="247" y="132"/>
      <point x="241" y="157"/>
      <point x="241" y="182" type="curve" smooth="yes"/>
      <point x="241" y="743" type="line"/>
      <point x="50" y="743" type="line"/>
      <point x="50" y="156" type="line"/>
      <point x="50" y="80"/>
      <point x="56" y="-11"/>
    </contour>
    <contour>
      <point x="133" y="0" type="move" name="bottom"/>
    </contour>
    <contour>
      <point x="147" y="765" type="move" name="top"/>
    </contour>
    <contour>
      <point x="390" y="765" type="move" name="topright"/>
    </contour>
  </outline>
</glyph>
<glyph name="m" format="1">
  <advance width="1848"/>
  <unicode hex="006D"/>
  <outline>
    <contour>
      <point x="100" y="0" type="line"/>
      <point x="490" y="0" type="line"/>
      <point x="490" y="682" type="line"/>
      <point x="490" y="742"/>
      <point x="554" y="778"/>
      <point x="612" y="778" type="curve" smooth="yes"/>
      <point x="670" y="778"/>
      <point x="734" y="742"/>
      <point x="734" y="682" type="curve" smooth="yes"/>
      <point x="734" y="0" type="line"/>
      <point x="1122" y="0" type="line"/>
      <point x="1122" y="620" type="line" smooth="yes"/>
      <point x="1122" y="716"/>
      <point x="1136" y="778"/>
      <point x="1248" y="778" type="curve" smooth="yes"/>
      <point x="1306" y="778"/>
      <point x="1368" y="742"/>
      <point x="1368" y="682" type="curve" smooth="yes"/>
      <point x="1368" y="0" type="line"/>
      <point x="1758" y="0" type="line"/>
      <point x="1758" y="728" type="line" smooth="yes"/>
      <point x="1758" y="934"/>
      <point x="1580" y="1054"/>
      <point x="1420" y="1054" type="curve" smooth="yes"/>
      <point x="1308" y="1054"/>
      <point x="1178" y="998"/>
      <point x="1106" y="910" type="curve"/>
      <point x="1038" y="1018"/>
      <point x="920" y="1054"/>
      <point x="820" y="1054" type="curve" smooth="yes"/>
      <point x="658" y="1054"/>
      <point x="552" y="992"/>
      <point x="484" y="910" type="curve"/>
      <point x="484" y="1034" type="line"/>
      <point x="100" y="1034" type="line"/>
    </contour>
  </outline>
</glyph>
<glyph name="n" format="1">
  <advance width="1216"/>
  <unicode hex="006E"/>
  <outline>
    <contour>
      <point x="100" y="0" type="line"/>
      <point x="490" y="0" type="line"/>
      <point x="490" y="646" type="line"/>
      <point x="490" y="704"/>
      <point x="558" y="740"/>
      <point x="616" y="740" type="curve" smooth="yes"/>
      <point x="674" y="740"/>
      <point x="736" y="704"/>
      <point x="736" y="646" type="curve" smooth="yes"/>
      <point x="736" y="0" type="line"/>
      <point x="1126" y="0" type="line"/>
      <point x="1126" y="698" type="line" smooth="yes"/>
      <point x="1126" y="892"/>
      <point x="946" y="1038"/>
      <point x="764" y="1038" type="curve" smooth="yes"/>
      <point x="602" y="1038"/>
      <point x="550" y="976"/>
      <point x="486" y="910" type="curve"/>
      <point x="486" y="1034" type="line"/>
      <point x="100" y="1034" type="line"/>
    </contour>
    <contour>
      <point x="612" y="0" type="move" name="bottom"/>
    </contour>
    <contour>
      <point x="612" y="1034" type="move" name="top"/>
    </contour>
  </outline>
</glyph>
<glyph name="o" format="1">
  <advance width="577"/>
  <unicode hex="006F"/>
  <outline>
    <contour>
      <point x="287" y="-10" type="curve" smooth="yes"/>
      <point x="448" y="-10"/>
      <point x="550" y="101"/>
      <point x="550" y="255" type="curve" smooth="yes"/>
      <point x="550" y="412"/>
      <point x="450" y="527"/>
      <point x="288" y="527" type="curve" smooth="yes"/>
      <point x="134" y="527"/>
      <point x="25" y="418"/>
      <point x="25" y="255" type="curve" smooth="yes"/>
      <point x="25" y="100"/>
      <point x="127" y="-10"/>
    </contour>
    <contour>
      <point x="288" y="131" type="curve" smooth="yes"/>
      <point x="225" y="131"/>
      <point x="214" y="207"/>
      <point x="214" y="262" type="curve" smooth="yes"/>
      <point x="214" y="318"/>
      <point x="225" y="388"/>
      <point x="288" y="388" type="curve" smooth="yes"/>
      <point x="350" y="388"/>
      <point x="361" y="318"/>
      <point x="361" y="262" type="curve" smooth="yes"/>
      <point x="361" y="207"/>
      <point x="350" y="131"/>
    </contour>
    <contour>
      <point x="285" y="0" type="move" name="bottom"/>
    </contour>
    <contour>
      <point x="364" y="10" type="move" name="ogonek"/>
    </contour>
    <contour>
      <point x="288" y="517" type="move" name="top"/>
    </contour>
  </outline>
</glyph>
<glyph name="p" format="1">
  <advance width="615"/>
  <unicode hex="0070"/>
  <outline>
    <contour>
      <point x="50" y="-161" type="line"/>
      <point x="245" y="-161" type="line"/>
      <point x="245" y="78" type="line"/>
      <point x="277" y="4"/>
      <point x="319" y="-10"/>
      <point x="367" y="-10" type="curve" smooth="yes"/>
      <point x="477" y="-10"/>
      <point x="588" y="63"/>
      <point x="588" y="260" type="curve" smooth="yes"/>
      <point x="588" y="443"/>
      <point x="496" y="527"/>
      <point x="388" y="527" type="curve" smooth="yes"/>
      <point x="339" y="527"/>
      <point x="285" y="510"/>
      <point x="246" y="457" type="curve"/>
      <point x="246" y="517" type="line"/>
      <point x="50" y="517" type="line"/>
    </contour>
    <contour>
      <point x="326" y="126" type="curve"/>
      <point x="284" y="126"/>
      <point x="245" y="167"/>
      <point x="245" y="221" type="curve"/>
      <point x="245" y="299" type="line"/>
      <point x="245" y="344"/>
      <point x="284" y="390"/>
      <point x="326" y="390" type="curve" smooth="yes"/>
      <point x="369" y="390"/>
      <point x="408" y="344"/>
      <point x="408" y="260" type="curve" smooth="yes"/>
      <point x="408" y="167"/>
      <point x="369" y="126"/>
    </contour>
  </outline>
</glyph>
<glyph name="q" format="1">
  <advance width="610"/>
  <unicode hex="0071"/>
  <outline>
    <contour>
      <point x="564" y="-161" type="line"/>
      <point x="564" y="517" type="line"/>
      <point x="368" y="517" type="line"/>
      <point x="368" y="477" type="line"/>
      <point x="328" y="510"/>
      <point x="275" y="527"/>
      <point x="226" y="527" type="curve" smooth="yes"/>
      <point x="118" y="527"/>
      <point x="25" y="443"/>
      <point x="25" y="260" type="curve" smooth="yes"/>
      <point x="25" y="63"/>
      <point x="122" y="-10"/>
      <point x="231" y="-10" type="curve" smooth="yes"/>
      <point x="275" y="-10"/>
      <point x="320" y="2"/>
      <point x="369" y="48" type="curve"/>
      <point x="369" y="-161" type="line"/>
    </contour>
    <contour>
      <point x="299" y="116" type="curve"/>
      <point x="255" y="116"/>
      <point x="222" y="171"/>
      <point x="222" y="264" type="curve" smooth="yes"/>
      <point x="222" y="358"/>
      <point x="255" y="400"/>
      <point x="299" y="400" type="curve" smooth="yes"/>
      <point x="343" y="400"/>
      <point x="369" y="358"/>
      <point x="369" y="264" type="curve"/>
      <point x="369" y="264" type="line"/>
      <point x="369" y="171"/>
      <point x="343" y="116"/>
    </contour>
  </outline>
</glyph>
<glyph name="r" format="1">
  <advance width="846"/>
  <unicode hex="0072"/>
  <outline>
    <contour>
      <point x="100" y="0" type="line"/>
      <point x="490" y="0" type="line"/>
      <point x="490" y="496" type="line" smooth="yes"/>
      <point x="490" y="604"/>
      <point x="536" y="718"/>
      <point x="826" y="688" type="curve"/>
      <point x="824" y="1054" type="line"/>
      <point x="632" y="1054"/>
      <point x="524" y="914"/>
      <point x="476" y="748" type="curve"/>
      <point x="476" y="1034" type="line"/>
      <point x="100" y="1034" type="line"/>
    </contour>
    <contour>
      <point x="318" y="0" type="move" name="bottom"/>
    </contour>
    <contour>
      <point x="472" y="1034" type="move" name="top"/>
    </contour>
  </outline>
</glyph>
<glyph name="s" format="1">
  <advance width="543"/>
  <unicode hex="0073"/>
  <outline>
    <contour>
      <point x="278" y="-10" type="curve" smooth="yes"/>
      <point x="410" y="-10"/>
      <point x="513" y="49"/>
      <point x="513" y="160" type="curve" smooth="yes"/>
      <point x="513" y="203"/>
      <point x="490" y="290"/>
      <point x="357" y="322" type="curve"/>
      <point x="291" y="334" type="line"/>
      <point x="235" y="343"/>
      <point x="213" y="353"/>
      <point x="213" y="371" type="curve" smooth="yes"/>
      <point x="213" y="391"/>
      <point x="239" y="399"/>
      <point x="275" y="399" type="curve" smooth="yes"/>
      <point x="311" y="399"/>
      <point x="344" y="387"/>
      <point x="352" y="356" type="curve"/>
      <point x="510" y="356" type="line"/>
      <point x="514" y="461"/>
      <point x="421" y="527"/>
      <point x="280" y="527" type="curve" smooth="yes"/>
      <point x="129" y="527"/>
      <point x="44" y="451"/>
      <point x="45" y="355" type="curve" smooth="yes"/>
      <point x="46" y="262"/>
      <point x="112" y="215"/>
      <point x="211" y="197" type="curve"/>
      <point x="288" y="185" type="line"/>
      <point x="334" y="178"/>
      <point x="350" y="168"/>
      <point x="350" y="149" type="curve" smooth="yes"/>
      <point x="350" y="128"/>
      <point x="320" y="118"/>
      <point x="277" y="118" type="curve" smooth="yes"/>
      <point x="260" y="118"/>
      <point x="208" y="124"/>
      <point x="195" y="174" type="curve"/>
      <point x="30" y="174" type="line"/>
      <point x="52" y="42"/>
      <point x="170" y="-10"/>
    </contour>
    <contour>
      <point x="279" y="0" type="move" name="bottom"/>
    </contour>
    <contour>
      <point x="280" y="517" type="move" name="top"/>
    </contour>
  </outline>
</glyph>
<glyph name="t" format="1">
  <advance width="446"/>
  <unicode hex="0074"/>
  <outline>
    <contour>
      <point x="406" y="385" type="line"/>
      <point x="406" y="518" type="line"/>
      <point x="293" y="518" type="line"/>
      <point x="293" y="678" type="line"/>
      <point x="135" y="678" type="line"/>
      <point x="106" y="517" type="line"/>
      <point x="15" y="517" type="line"/>
      <point x="15" y="385" type="line"/>
      <point x="99" y="385" type="line"/>
      <point x="99" y="142" type="line" smooth="yes"/>
      <point x="99" y="59"/>
      <point x="140" y="-8"/>
      <point x="303" y="-8" type="curve" smooth="yes"/>
      <point x="365" y="-8"/>
      <point x="392" y="1"/>
      <point x="406" y="8" type="curve"/>
      <point x="406" y="123" type="line"/>
      <point x="325" y="123" type="line" smooth="yes"/>
      <point x="308" y="123"/>
      <point x="294" y="128"/>
      <point x="294" y="151" type="curve" smooth="yes"/>
      <point x="293" y="385" type="line"/>
    </contour>
    <contour>
      <point x="253" y="9" type="move" name="bottom"/>
    </contour>
    <contour>
      <point x="217" y="258" type="move" name="center"/>
    </contour>
    <contour>
      <point x="427" y="795" type="move" name="topright"/>
    </contour>
  </outline>
</glyph>
<glyph name="u" format="1">
  <advance width="1226"/>
  <unicode hex="0075"/>
  <outline>
    <contour>
      <point x="482" y="-20" type="curve" smooth="yes"/>
      <point x="582" y="-20"/>
      <point x="746" y="6"/>
      <point x="784" y="212" type="curve"/>
      <point x="830" y="0" type="line"/>
      <point x="1118" y="0" type="line"/>
      <point x="1126" y="1034" type="line"/>
      <point x="732" y="1034" type="line"/>
      <point x="732" y="360" type="line"/>
      <point x="732" y="300"/>
      <point x="688" y="254"/>
      <point x="610" y="254" type="curve" smooth="yes"/>
      <point x="532" y="254"/>
      <point x="490" y="300"/>
      <point x="490" y="360" type="curve" smooth="yes"/>
      <point x="490" y="1034" type="line"/>
      <point x="100" y="1034" type="line"/>
      <point x="100" y="306" type="line" smooth="yes"/>
      <point x="100" y="98"/>
      <point x="314" y="-20"/>
    </contour>
    <contour>
      <point x="614" y="0" type="move" name="bottom"/>
    </contour>
    <contour>
      <point x="1062" y="714" type="move" name="horn"/>
    </contour>
    <contour>
      <point x="1064" y="20" type="move" name="ogonek"/>
    </contour>
    <contour>
      <point x="612" y="1034" type="move" name="top"/>
    </contour>
  </outline>
</glyph>
<glyph name="v" format="1">
  <advance width="537"/>
  <unicode hex="0076"/>
  <outline>
    <contour>
      <point x="532" y="517" type="line"/>
      <point x="356" y="517" type="line"/>
      <point x="269" y="253" type="line"/>
      <point x="269" y="253" type="line"/>
      <point x="178" y="517" type="line"/>
      <point x="5" y="517" type="line"/>
      <point x="206" y="0" type="line"/>
      <point x="331" y="0" type="line"/>
    </contour>
  </outline>
</glyph>
<glyph name="w" format="1">
  <advance width="798"/>
  <unicode hex="0077"/>
  <outline>
    <contour>
      <point x="793" y="517" type="line"/>
      <point x="620" y="517" type="line"/>
      <point x="540" y="265" type="line"/>
      <point x="540" y="265" type="line"/>
      <point x="466" y="517" type="line"/>
      <point x="331" y="517" type="line"/>
      <point x="255" y="266" type="line"/>
      <point x="255" y="266" type="line"/>
      <point x="174" y="517" type="line"/>
      <point x="5" y="517" type="line"/>
      <point x="180" y="0" type="line"/>
      <point x="313" y="0" type="line"/>
      <point x="395" y="251" type="line"/>
      <point x="472" y="0" type="line"/>
      <point x="611" y="0" type="line"/>
    </contour>
    <contour>
      <point x="403" y="517" type="move" name="top"/>
    </contour>
  </outline>
</glyph>
<glyph name="x" format="1">
  <advance width="609"/>
  <unicode hex="0078"/>
  <outline>
    <contour>
      <point x="604" y="0" type="line"/>
      <point x="406" y="270" type="line"/>
      <point x="588" y="517" type="line"/>
      <point x="388" y="517" type="line"/>
      <point x="306" y="405" type="line"/>
      <point x="223" y="517" type="line"/>
      <point x="23" y="517" type="line"/>
      <point x="203" y="270" type="line"/>
      <point x="5" y="0" type="line"/>
      <point x="205" y="0" type="line"/>
      <point x="305" y="137" type="line"/>
      <point x="404" y="0" type="line"/>
    </contour>
  </outline>
</glyph>
<glyph name="y" format="1">
  <advance width="591"/>
  <unicode hex="0079"/>
  <outline>
    <contour>
      <point x="159" y="-165" type="curve" smooth="yes"/>
      <point x="248" y="-165"/>
      <point x="317" y="-133"/>
      <point x="384" y="30" type="curve" smooth="yes"/>
      <point x="586" y="517" type="line"/>
      <point x="396" y="517" type="line"/>
      <point x="294" y="236" type="line"/>
      <point x="196" y="517" type="line"/>
      <point x="5" y="517" type="line"/>
      <point x="206" y="30" type="line"/>
      <point x="204" y="20" type="line"/>
      <point x="202" y="14"/>
      <point x="197" y="-31"/>
      <point x="96" y="-23" type="curve" smooth="yes"/>
      <point x="46" y="-20" type="line"/>
      <point x="46" y="-143" type="line" smooth="yes"/>
      <point x="46" y="-143"/>
      <point x="79" y="-165"/>
    </contour>
    <contour>
      <point x="319" y="517" type="move" name="top"/>
    </contour>
  </outline>
</glyph>
<glyph name="z" format="1">
  <advance width="549"/>
  <unicode hex="007A"/>
  <outline>
    <contour>
      <point x="25" y="0" type="line"/>
      <point x="514" y="0" type="line"/>
      <point x="514" y="121" type="line"/>
      <point x="269" y="121" type="line"/>
      <point x="513" y="428" type="line"/>
      <point x="513" y="517" type="line"/>
      <point x="47" y="517" type="line"/>
      <point x="47" y="398" type="line"/>
      <point x="266" y="398" type="line"/>
      <point x="25" y="92" type="line"/>
    </contour>
    <contour>
      <point x="280" y="0" type="move" name="bottom"/>
    </contour>
    <contour>
      <point x="280" y="517" type="move" name="top"/>
    </contour>
  </outline>
</glyph>
<glyph name="braceleft" format="1">
  <advance width="436"/>
  <unicode hex="007B"/>
  <outline>
    <contour>
      <point x="128" y="591" type="curve" smooth="yes"/>
      <point x="128" y="414" type="line" smooth="yes"/>
      <point x="128" y="356"/>
      <point x="97" y="332"/>
      <point x="15" y="332" type="curve"/>
      <point x="15" y="242" type="line"/>
      <point x="96" y="242"/>
      <point x="128" y="211"/>
      <point x="128" y="164" type="curve" smooth="yes"/>
      <point x="128" y="-28" type="line" smooth="yes"/>
      <point x="128" y="-121"/>
      <point x="226" y="-161"/>
      <point x="306" y="-161" type="curve" smooth="yes"/>
      <point x="396" y="-161" type="line"/>
      <point x="396" y="-57" type="line"/>
      <point x="345" y="-57" type="line" smooth="yes"/>
      <point x="297" y="-57"/>
      <point x="283" y="-42"/>
      <point x="283" y="-5" type="curve" smooth="yes"/>
      <point x="283" y="182" type="line" smooth="yes"/>
      <point x="280" y="264"/>
      <point x="217" y="280"/>
      <point x="172" y="284" type="curve" smooth="yes"/>
      <point x="163" y="285"/>
      <point x="164" y="289"/>
      <point x="172" y="290" type="curve" smooth="yes"/>
      <point x="218" y="295"/>
      <point x="280" y="316"/>
      <point x="283" y="382" type="curve" smooth="yes"/>
      <point x="283" y="567" type="line" smooth="yes"/>
      <point x="283" y="593"/>
      <point x="283" y="619"/>
      <point x="345" y="619" type="curve" smooth="yes"/>
      <point x="396" y="619" type="line"/>
      <point x="396" y="723" type="line"/>
      <point x="303" y="723" type="line" smooth="yes"/>
      <point x="226" y="723"/>
      <point x="128" y="682"/>
    </contour>
  </outline>
</glyph>
<glyph name="bar" format="1">
  <advance width="276"/>
  <unicode hex="007C"/>
  <outline>
    <contour>
      <point x="207" y="-161" type="line"/>
      <point x="207" y="826" type="line"/>
      <point x="69" y="826" type="line"/>
      <point x="69" y="-161" type="line"/>
    </contour>
  </outline>
</glyph>
<glyph name="asciitilde" format="1">
  <advance width="652"/>
  <unicode hex="007E"/>
  <outline>
    <contour>
      <point x="587" y="381" type="curve"/>
      <point x="531" y="471" type="line"/>
      <point x="505" y="424"/>
      <point x="465" y="387"/>
      <point x="419" y="387" type="curve" smooth="yes"/>
      <point x="358" y="387"/>
      <point x="320" y="456"/>
      <point x="234" y="456" type="curve" smooth="yes"/>
      <point x="164" y="456"/>
      <point x="114" y="410"/>
      <point x="55" y="347" type="curve"/>
      <point x="110" y="255" type="line"/>
      <point x="146" y="297"/>
      <point x="180" y="339"/>
      <point x="231" y="339" type="curve" smooth="yes"/>
      <point x="297" y="339"/>
      <point x="341" y="269"/>
      <point x="423" y="269" type="curve" smooth="yes"/>
      <point x="480" y="269"/>
      <point x="545" y="304"/>
    </contour>
  </outline>
</glyph>
<glyph name="exclamdown" format="1">
  <advance width="306"/>
  <unicode hex="00A1"/>
  <outline>
    <contour>
      <point x="250" y="325" type="line"/>
      <point x="250" y="517" type="line"/>
      <point x="45" y="517" type="line"/>
      <point x="45" y="325" type="line"/>
    </contour>
    <contour>
      <point x="261" y="-161" type="line"/>
      <point x="208" y="257" type="line"/>
      <point x="90" y="257" type="line"/>
      <point x="35" y="-161" type="line"/>
    </contour>
  </outline>
</glyph>
<glyph name="cent" format="1">
  <advance width="578"/>
  <unicode hex="00A2"/>
  <outline>
    <contour>
      <point x="372" y="0" type="line"/>
      <point x="372" y="191" type="line"/>
      <point x="250" y="191" type="line"/>
      <point x="250" y="0" type="line"/>
    </contour>
    <contour>
      <point x="372" y="532" type="line"/>
      <point x="372" y="723" type="line"/>
      <point x="250" y="723" type="line"/>
      <point x="250" y="532" type="line"/>
    </contour>
    <component base="c" xOffset="20" yOffset="111"/>
  </outline>
</glyph>
<glyph name="sterling" format="1">
  <advance width="680"/>
  <unicode hex="00A3"/>
  <outline>
    <contour>
      <point x="25" y="0" type="line"/>
      <point x="399" y="0" type="line" smooth="yes"/>
      <point x="533" y="0"/>
      <point x="612" y="70"/>
      <point x="645" y="206" type="curve"/>
      <point x="482" y="238" type="line"/>
      <point x="462" y="181"/>
      <point x="444" y="160"/>
      <point x="383" y="160" type="curve" smooth="yes"/>
      <point x="284" y="160" type="line"/>
      <point x="319" y="191"/>
      <point x="332" y="205"/>
      <point x="342" y="237" type="curve" smooth="yes"/>
      <point x="352" y="267"/>
      <point x="353" y="290"/>
      <point x="352" y="334" type="curve"/>
      <point x="471" y="334" type="line"/>
      <point x="471" y="435" type="line"/>
      <point x="338" y="435" type="line"/>
      <point x="331" y="481"/>
      <point x="328" y="504"/>
      <point x="328" y="523" type="curve" smooth="yes"/>
      <point x="328" y="561"/>
      <point x="346" y="583"/>
      <point x="376" y="583" type="curve" smooth="yes"/>
      <point x="404" y="583"/>
      <point x="417" y="566"/>
      <point x="437" y="519" type="curve"/>
      <point x="605" y="567" type="line"/>
      <point x="558" y="677"/>
      <point x="465" y="733"/>
      <point x="345" y="733" type="curve" smooth="yes"/>
      <point x="213" y="733"/>
      <point x="91" y="666"/>
      <point x="101" y="532" type="curve" smooth="yes"/>
      <point x="106" y="435" type="line"/>
      <point x="25" y="435" type="line"/>
      <point x="25" y="334" type="line"/>
      <point x="128" y="334" type="line"/>
      <point x="134" y="282"/>
      <point x="137" y="261"/>
      <point x="137" y="231" type="curve" smooth="yes"/>
      <point x="137" y="178"/>
      <point x="105" y="159"/>
      <point x="56" y="159" type="curve" smooth="yes"/>
      <point x="25" y="159" type="line"/>
    </contour>
  </outline>
</glyph>
<glyph name="currency" format="1">
  <advance width="613"/>
  <unicode hex="00A4"/>
  <outline>
    <contour>
      <point x="304" y="123" type="curve" smooth="yes"/>
      <point x="349" y="123"/>
      <point x="391" y="137"/>
      <point x="430" y="161" type="curve"/>
      <point x="492" y="98" type="line"/>
      <point x="568" y="176" type="line"/>
      <point x="507" y="236" type="line" smooth="yes"/>
      <point x="506" y="237"/>
      <point x="506" y="239"/>
      <point x="507" y="241" type="curve" smooth="yes"/>
      <point x="531" y="276"/>
      <point x="542" y="321"/>
      <point x="542" y="364" type="curve" smooth="yes"/>
      <point x="542" y="410"/>
      <point x="529" y="451"/>
      <point x="505" y="490" type="curve"/>
      <point x="568" y="552" type="line"/>
      <point x="492" y="630" type="line"/>
      <point x="435" y="572" type="line" smooth="yes"/>
      <point x="432" y="569"/>
      <point x="428" y="569"/>
      <point x="424" y="571" type="curve" smooth="yes"/>
      <point x="386" y="593"/>
      <point x="343" y="605"/>
      <point x="299" y="605" type="curve" smooth="yes"/>
      <point x="256" y="605"/>
      <point x="212" y="590"/>
      <point x="174" y="567" type="curve"/>
      <point x="101" y="640" type="line"/>
      <point x="25" y="561" type="line"/>
      <point x="89" y="497" type="line" smooth="yes"/>
      <point x="95" y="491"/>
      <point x="95" y="488"/>
      <point x="91" y="480" type="curve" smooth="yes"/>
      <point x="70" y="444"/>
      <point x="61" y="407"/>
      <point x="61" y="363" type="curve" smooth="yes"/>
      <point x="61" y="313"/>
      <point x="73" y="278"/>
      <point x="97" y="238" type="curve"/>
      <point x="25" y="167" type="line"/>
      <point x="101" y="89" type="line"/>
      <point x="166" y="153" type="line" smooth="yes"/>
      <point x="170" y="157"/>
      <point x="176" y="159"/>
      <point x="183" y="155" type="curve" smooth="yes"/>
      <point x="219" y="134"/>
      <point x="261" y="123"/>
    </contour>
    <contour>
      <point x="301" y="244" type="curve" smooth="yes"/>
      <point x="233" y="244"/>
      <point x="181" y="300"/>
      <point x="181" y="364" type="curve" smooth="yes"/>
      <point x="181" y="427"/>
      <point x="233" y="484"/>
      <point x="301" y="484" type="curve" smooth="yes"/>
      <point x="370" y="484"/>
      <point x="421" y="427"/>
      <point x="421" y="364" type="curve" smooth="yes"/>
      <point x="421" y="300"/>
      <point x="370" y="244"/>
    </contour>
  </outline>
</glyph>
<glyph name="yen" format="1">
  <advance width="704"/>
  <unicode hex="00A5"/>
  <outline>
    <contour>
      <point x="717" y="723" type="line"/>
      <point x="514" y="723" type="line"/>
      <point x="377" y="471" type="line"/>
      <point x="237" y="723" type="line"/>
      <point x="-15" y="723" type="line"/>
      <point x="244" y="301" type="line"/>
      <point x="244" y="0" type="line"/>
      <point x="465" y="0" type="line"/>
      <point x="465" y="319" type="line"/>
    </contour>
    <contour>
      <point x="611" y="357" type="line"/>
      <point x="98" y="357" type="line"/>
      <point x="98" y="258" type="line"/>
      <point x="611" y="258" type="line"/>
    </contour>
    <contour>
      <point x="611" y="191" type="line"/>
      <point x="98" y="191" type="line"/>
      <point x="98" y="93" type="line"/>
      <point x="611" y="93" type="line"/>
    </contour>
  </outline>
</glyph>
<glyph name="brokenbar" format="1">
  <advance width="278"/>
  <unicode hex="00A6"/>
  <outline>
    <contour>
      <point x="208" y="412" type="line"/>
      <point x="208" y="826" type="line"/>
      <point x="70" y="826" type="line"/>
      <point x="70" y="412" type="line"/>
    </contour>
    <contour>
      <point x="208" y="-161" type="line"/>
      <point x="208" y="253" type="line"/>
      <point x="70" y="253" type="line"/>
      <point x="70" y="-161" type="line"/>
    </contour>
  </outline>
</glyph>
<glyph name="section" format="1">
  <advance width="533"/>
  <unicode hex="00A7"/>
  <outline>
    <contour>
      <point x="263" y="-83" type="curve" smooth="yes"/>
      <point x="419" y="-83"/>
      <point x="498" y="-10"/>
      <point x="498" y="95" type="curve" smooth="yes"/>
      <point x="498" y="150"/>
      <point x="476" y="187"/>
      <point x="415" y="221" type="curve"/>
      <point x="462" y="251"/>
      <point x="489" y="293"/>
      <point x="489" y="353" type="curve" smooth="yes"/>
      <point x="489" y="438"/>
      <point x="437" y="481"/>
      <point x="319" y="525" type="curve"/>
      <point x="246" y="552" type="line"/>
      <point x="234" y="556"/>
      <point x="209" y="566"/>
      <point x="209" y="585" type="curve"/>
      <point x="209" y="607"/>
      <point x="228" y="621"/>
      <point x="258" y="621" type="curve" smooth="yes"/>
      <point x="306" y="621"/>
      <point x="336" y="589"/>
      <point x="363" y="561" type="curve"/>
      <point x="479" y="616" type="line"/>
      <point x="451" y="676"/>
      <point x="367" y="733"/>
      <point x="254" y="733" type="curve" smooth="yes"/>
      <point x="119" y="733"/>
      <point x="39" y="660"/>
      <point x="39" y="566" type="curve" smooth="yes"/>
      <point x="39" y="519"/>
      <point x="59" y="482"/>
      <point x="108" y="449" type="curve"/>
      <point x="58" y="423"/>
      <point x="29" y="378"/>
      <point x="29" y="317" type="curve" smooth="yes"/>
      <point x="29" y="232"/>
      <point x="81" y="189"/>
      <point x="199" y="145" type="curve" smooth="yes"/>
      <point x="267" y="120" type="line" smooth="yes"/>
      <point x="315" y="102"/>
      <point x="329" y="88"/>
      <point x="329" y="68" type="curve" smooth="yes"/>
      <point x="329" y="41"/>
      <point x="300" y="29"/>
      <point x="258" y="29" type="curve" smooth="yes"/>
      <point x="191" y="29"/>
      <point x="161" y="61"/>
      <point x="136" y="90" type="curve"/>
      <point x="20" y="34" type="line"/>
      <point x="48" y="-25"/>
      <point x="133" y="-83"/>
    </contour>
    <contour>
      <point x="292" y="276" type="curve"/>
      <point x="251" y="292" type="line" smooth="yes"/>
      <point x="194" y="313"/>
      <point x="182" y="323"/>
      <point x="182" y="346" type="curve" smooth="yes"/>
      <point x="182" y="369"/>
      <point x="194" y="389"/>
      <point x="231" y="392" type="curve"/>
      <point x="267" y="378" type="line" smooth="yes"/>
      <point x="311" y="362"/>
      <point x="331" y="346"/>
      <point x="335" y="327" type="curve" smooth="yes"/>
      <point x="340" y="297"/>
      <point x="324" y="272"/>
    </contour>
  </outline>
</glyph>
<glyph name="copyright" format="1">
  <advance width="843"/>
  <unicode hex="00A9"/>
  <outline>
    <contour>
      <point x="416" y="-10" type="curve" smooth="yes"/>
      <point x="621" y="-10"/>
      <point x="788" y="155"/>
      <point x="788" y="362" type="curve" smooth="yes"/>
      <point x="788" y="566"/>
      <point x="621" y="733"/>
      <point x="416" y="733" type="curve" smooth="yes"/>
      <point x="211" y="733"/>
      <point x="45" y="566"/>
      <point x="45" y="362" type="curve" smooth="yes"/>
      <point x="45" y="155"/>
      <point x="211" y="-10"/>
    </contour>
    <contour>
      <point x="416" y="89" type="curve" smooth="yes"/>
      <point x="255" y="89"/>
      <point x="154" y="195"/>
      <point x="154" y="362" type="curve" smooth="yes"/>
      <point x="154" y="527"/>
      <point x="255" y="636"/>
      <point x="416" y="636" type="curve" smooth="yes"/>
      <point x="575" y="636"/>
      <point x="679" y="527"/>
      <point x="679" y="362" type="curve" smooth="yes"/>
      <point x="679" y="195"/>
      <point x="575" y="89"/>
    </contour>
    <contour>
      <point x="419" y="569" type="curve" smooth="yes"/>
      <point x="301" y="569"/>
      <point x="213" y="486"/>
      <point x="213" y="362" type="curve" smooth="yes"/>
      <point x="213" y="241"/>
      <point x="300" y="157"/>
      <point x="419" y="157" type="curve" smooth="yes"/>
      <point x="543" y="157"/>
      <point x="594" y="254"/>
      <point x="601" y="297" type="curve"/>
      <point x="509" y="315" type="line"/>
      <point x="491" y="279"/>
      <point x="475" y="251"/>
      <point x="432" y="251" type="curve" smooth="yes"/>
      <point x="389" y="251"/>
      <point x="364" y="280"/>
      <point x="364" y="364" type="curve" smooth="yes"/>
      <point x="364" y="444"/>
      <point x="387" y="475"/>
      <point x="423" y="475" type="curve" smooth="yes"/>
      <point x="460" y="475"/>
      <point x="468" y="440"/>
      <point x="471" y="416" type="curve"/>
      <point x="602" y="423" type="line"/>
      <point x="590" y="489"/>
      <point x="529" y="569"/>
    </contour>
  </outline>
</glyph>
<glyph name="ordfeminine" format="1">
  <advance width="398"/>
  <unicode hex="00AA"/>
  <outline>
    <contour>
      <point x="131" y="398" type="curve" smooth="yes"/>
      <point x="169" y="398"/>
      <point x="191" y="410"/>
      <point x="226" y="432" type="curve"/>
      <point x="233" y="404" type="line"/>
      <point x="352" y="404" type="line"/>
      <point x="345" y="428" type="line"/>
      <point x="341" y="443"/>
      <point x="341" y="494"/>
      <point x="341" y="501" type="curve" smooth="yes"/>
      <point x="341" y="549"/>
      <point x="341" y="576"/>
      <point x="341" y="633" type="curve" smooth="yes"/>
      <point x="341" y="695"/>
      <point x="308" y="732"/>
      <point x="193" y="733" type="curve" smooth="yes"/>
      <point x="95" y="733"/>
      <point x="59" y="702"/>
      <point x="33" y="643" type="curve"/>
      <point x="138" y="623" type="line"/>
      <point x="149" y="653"/>
      <point x="170" y="660"/>
      <point x="190" y="660" type="curve" smooth="yes"/>
      <point x="202" y="660"/>
      <point x="226" y="656"/>
      <point x="226" y="625" type="curve"/>
      <point x="226" y="605" type="line"/>
      <point x="202" y="605" type="line" smooth="yes"/>
      <point x="94" y="605"/>
      <point x="25" y="557"/>
      <point x="25" y="491" type="curve" smooth="yes"/>
      <point x="25" y="436"/>
      <point x="62" y="398"/>
    </contour>
    <contour>
      <point x="180" y="470" type="curve" smooth="yes"/>
      <point x="156" y="470"/>
      <point x="143" y="482"/>
      <point x="143" y="499" type="curve" smooth="yes"/>
      <point x="143" y="527"/>
      <point x="170" y="545"/>
      <point x="206" y="545" type="curve" smooth="yes"/>
      <point x="226" y="545" type="line"/>
      <point x="226" y="501" type="line" smooth="yes"/>
      <point x="226" y="491"/>
      <point x="222" y="487"/>
      <point x="216" y="482" type="curve" smooth="yes"/>
      <point x="208" y="475"/>
      <point x="194" y="470"/>
    </contour>
  </outline>
</glyph>
<glyph name="guillemetleft" format="1">
  <advance width="540"/>
  <unicode hex="00AB"/>
  <outline>
    <contour>
      <point x="406" y="251" type="line"/>
      <point x="470" y="451" type="line"/>
      <point x="369" y="451" type="line"/>
      <point x="262" y="251" type="line"/>
      <point x="370" y="59" type="line"/>
      <point x="470" y="59" type="line"/>
    </contour>
    <contour>
      <point x="203" y="251" type="line"/>
      <point x="267" y="451" type="line"/>
      <point x="166" y="451" type="line"/>
      <point x="60" y="251" type="line"/>
      <point x="167" y="59" type="line"/>
      <point x="267" y="59" type="line"/>
    </contour>
  </outline>
</glyph>
<glyph name="logicalnot" format="1">
  <advance width="619"/>
  <unicode hex="00AC"/>
  <outline>
    <contour>
      <point x="564" y="433" type="line"/>
      <point x="55" y="433" type="line"/>
      <point x="55" y="295" type="line"/>
      <point x="564" y="295" type="line"/>
    </contour>
    <contour>
      <point x="564" y="383" type="line"/>
      <point x="408" y="383" type="line"/>
      <point x="408" y="137" type="line"/>
      <point x="564" y="137" type="line"/>
    </contour>
  </outline>
</glyph>
<glyph name="registered" format="1">
  <advance width="565"/>
  <unicode hex="00AE"/>
  <outline>
    <contour>
      <point x="278" y="268" type="curve" smooth="yes"/>
      <point x="406" y="268"/>
      <point x="510" y="371"/>
      <point x="510" y="500" type="curve" smooth="yes"/>
      <point x="510" y="629"/>
      <point x="406" y="733"/>
      <point x="278" y="733" type="curve" smooth="yes"/>
      <point x="148" y="733"/>
      <point x="45" y="629"/>
      <point x="45" y="500" type="curve" smooth="yes"/>
      <point x="45" y="371"/>
      <point x="148" y="268"/>
    </contour>
    <contour>
      <point x="278" y="337" type="curve" smooth="yes"/>
      <point x="181" y="337"/>
      <point x="121" y="401"/>
      <point x="121" y="500" type="curve" smooth="yes"/>
      <point x="121" y="599"/>
      <point x="181" y="664"/>
      <point x="278" y="664" type="curve" smooth="yes"/>
      <point x="373" y="664"/>
      <point x="434" y="599"/>
      <point x="434" y="500" type="curve" smooth="yes"/>
      <point x="434" y="401"/>
      <point x="373" y="337"/>
    </contour>
    <contour>
      <point x="180" y="384" type="line"/>
      <point x="250" y="384" type="line"/>
      <point x="250" y="480" type="line"/>
      <point x="279" y="480" type="line"/>
      <point x="311" y="384" type="line"/>
      <point x="388" y="384" type="line"/>
      <point x="342" y="488" type="line"/>
      <point x="368" y="499"/>
      <point x="387" y="521"/>
      <point x="387" y="550" type="curve" smooth="yes"/>
      <point x="387" y="591"/>
      <point x="351" y="614"/>
      <point x="292" y="614" type="curve" smooth="yes"/>
      <point x="180" y="614" type="line"/>
    </contour>
    <contour>
      <point x="250" y="526" type="line"/>
      <point x="250" y="568" type="line"/>
      <point x="288" y="568" type="line" smooth="yes"/>
      <point x="301" y="568"/>
      <point x="314" y="561"/>
      <point x="314" y="547" type="curve"/>
      <point x="314" y="535"/>
      <point x="305" y="526"/>
      <point x="291" y="526" type="curve"/>
    </contour>
  </outline>
</glyph>
<glyph name="degree" format="1">
  <advance width="484"/>
  <unicode hex="00B0"/>
  <outline>
    <contour>
      <point x="414" y="658" type="curve" smooth="yes"/>
      <point x="414" y="761"/>
      <point x="338" y="836"/>
      <point x="237" y="836" type="curve" smooth="yes"/>
      <point x="135" y="836"/>
      <point x="60" y="761"/>
      <point x="60" y="658" type="curve" smooth="yes"/>
      <point x="60" y="554"/>
      <point x="135" y="481"/>
      <point x="237" y="481" type="curve" smooth="yes"/>
      <point x="338" y="481"/>
      <point x="414" y="554"/>
    </contour>
    <contour>
      <point x="305" y="657" type="curve" smooth="yes"/>
      <point x="305" y="614"/>
      <point x="278" y="584"/>
      <point x="236" y="584" type="curve" smooth="yes"/>
      <point x="193" y="584"/>
      <point x="167" y="614"/>
      <point x="166" y="657" type="curve" smooth="yes"/>
      <point x="165" y="699"/>
      <point x="193" y="729"/>
      <point x="235" y="729" type="curve" smooth="yes"/>
      <point x="278" y="729"/>
      <point x="305" y="699"/>
    </contour>
  </outline>
</glyph>
<glyph name="plusminus" format="1">
  <advance width="616"/>
  <unicode hex="00B1"/>
  <outline>
    <contour>
      <point x="559" y="152" type="line"/>
      <point x="50" y="152" type="line"/>
      <point x="50" y="15" type="line"/>
      <point x="559" y="15" type="line"/>
    </contour>
    <contour>
      <point x="559" y="526" type="line"/>
      <point x="50" y="526" type="line"/>
      <point x="50" y="388" type="line"/>
      <point x="559" y="388" type="line"/>
    </contour>
    <contour>
      <point x="374" y="203" type="line"/>
      <point x="374" y="712" type="line"/>
      <point x="236" y="712" type="line"/>
      <point x="236" y="203" type="line"/>
    </contour>
  </outline>
</glyph>
<glyph name="micro" format="1">
  <advance width="622"/>
  <unicode hex="00B5"/>
  <outline>
    <contour>
      <point x="50" y="-165" type="line"/>
      <point x="250" y="-165" type="line"/>
      <point x="250" y="34" type="line"/>
      <point x="273" y="30"/>
      <point x="298" y="32"/>
      <point x="319" y="39" type="curve" smooth="yes"/>
      <point x="343" y="47"/>
      <point x="364" y="62"/>
      <point x="377" y="82" type="curve"/>
      <point x="377" y="0" type="line"/>
      <point x="572" y="0" type="line"/>
      <point x="576" y="530" type="line"/>
      <point x="374" y="530" type="line"/>
      <point x="374" y="229" type="line"/>
      <point x="372" y="197"/>
      <point x="348" y="176"/>
      <point x="314" y="176" type="curve" smooth="yes"/>
      <point x="276" y="176"/>
      <point x="250" y="197"/>
      <point x="250" y="229" type="curve"/>
      <point x="250" y="530" type="line"/>
      <point x="50" y="530" type="line"/>
    </contour>
  </outline>
</glyph>
<glyph name="paragraph" format="1">
  <advance width="631"/>
  <unicode hex="00B6"/>
  <outline>
    <contour>
      <point x="585" y="617" type="line"/>
      <point x="585" y="723" type="line"/>
      <point x="261" y="723" type="line" smooth="yes"/>
      <point x="110" y="723"/>
      <point x="25" y="632"/>
      <point x="25" y="512" type="curve" smooth="yes"/>
      <point x="25" y="373"/>
      <point x="124" y="312"/>
      <point x="226" y="300" type="curve"/>
      <point x="226" y="-83" type="line"/>
      <point x="341" y="-83" type="line"/>
      <point x="341" y="617" type="line"/>
      <point x="406" y="617" type="line"/>
      <point x="406" y="-83" type="line"/>
      <point x="521" y="-83" type="line"/>
      <point x="521" y="617" type="line"/>
    </contour>
  </outline>
</glyph>
<glyph name="periodcentered" format="1">
  <advance width="285"/>
  <unicode hex="00B7"/>
  <outline>
    <contour>
      <point x="226" y="451" type="line"/>
      <point x="45" y="451" type="line"/>
      <point x="45" y="277" type="line"/>
      <point x="226" y="277" type="line"/>
    </contour>
  </outline>
</glyph>
<glyph name="ordmasculine" format="1">
  <advance width="393"/>
  <unicode hex="00BA"/>
  <outline>
    <contour>
      <point x="195" y="733" type="curve" smooth="yes"/>
      <point x="99" y="733"/>
      <point x="25" y="665"/>
      <point x="25" y="564" type="curve" smooth="yes"/>
      <point x="25" y="467"/>
      <point x="95" y="398"/>
      <point x="195" y="398" type="curve" smooth="yes"/>
      <point x="295" y="398"/>
      <point x="366" y="467"/>
      <point x="366" y="564" type="curve" smooth="yes"/>
      <point x="366" y="662"/>
      <point x="297" y="733"/>
    </contour>
    <contour>
      <point x="195" y="657" type="curve" smooth="yes"/>
      <point x="228" y="657"/>
      <point x="243" y="630"/>
      <point x="243" y="566" type="curve" smooth="yes"/>
      <point x="243" y="503"/>
      <point x="228" y="476"/>
      <point x="195" y="476" type="curve" smooth="yes"/>
      <point x="163" y="476"/>
      <point x="148" y="503"/>
      <point x="148" y="566" type="curve" smooth="yes"/>
      <point x="148" y="630"/>
      <point x="163" y="657"/>
    </contour>
  </outline>
</glyph>
<glyph name="guillemetright" format="1">
  <advance width="537"/>
  <unicode hex="00BB"/>
  <outline>
    <contour>
      <point x="124" y="251" type="line"/>
      <point x="60" y="59" type="line"/>
      <point x="160" y="59" type="line"/>
      <point x="267" y="251" type="line"/>
      <point x="161" y="451" type="line"/>
      <point x="60" y="451" type="line"/>
    </contour>
    <contour>
      <point x="327" y="251" type="line"/>
      <point x="262" y="59" type="line"/>
      <point x="363" y="59" type="line"/>
      <point x="470" y="251" type="line"/>
      <point x="364" y="451" type="line"/>
      <point x="262" y="451" type="line"/>
    </contour>
  </outline>
</glyph>
<glyph name="questiondown" format="1">
  <advance width="568"/>
  <unicode hex="00BF"/>
  <outline>
    <contour>
      <point x="196" y="325" type="line"/>
      <point x="401" y="325" type="line"/>
      <point x="401" y="517" type="line"/>
      <point x="196" y="517" type="line"/>
    </contour>
    <contour>
      <point x="557" y="12" type="curve"/>
      <point x="395" y="46" type="line"/>
      <point x="374" y="-7"/>
      <point x="333" y="-39"/>
      <point x="289" y="-39" type="curve" smooth="yes"/>
      <point x="255" y="-39"/>
      <point x="225" y="-19"/>
      <point x="225" y="8" type="curve" smooth="yes"/>
      <point x="225" y="86"/>
      <point x="374" y="115"/>
      <point x="374" y="264" type="curve"/>
      <point x="221" y="264" type="line"/>
      <point x="221" y="155"/>
      <point x="35" y="156"/>
      <point x="35" y="-3" type="curve" smooth="yes"/>
      <point x="35" y="-92"/>
      <point x="116" y="-171"/>
      <point x="287" y="-171" type="curve" smooth="yes"/>
      <point x="422" y="-171"/>
      <point x="514" y="-107"/>
    </contour>
  </outline>
</glyph>
<glyph name="AE" format="1">
  <advance width="1110"/>
  <unicode hex="00C6"/>
  <outline>
    <contour>
      <point x="1055" y="160" type="line"/>
      <point x="705" y="160" type="line"/>
      <point x="705" y="285" type="line"/>
      <point x="918" y="285" type="line"/>
      <point x="918" y="442" type="line"/>
      <point x="705" y="442" type="line"/>
      <point x="705" y="564" type="line"/>
      <point x="1045" y="564" type="line"/>
      <point x="1046" y="723" type="line"/>
      <point x="375" y="723" type="line"/>
      <point x="0" y="0" type="line"/>
      <point x="194" y="0" type="line"/>
      <point x="263" y="140" type="line"/>
      <point x="483" y="140" type="line"/>
      <point x="483" y="0" type="line"/>
      <point x="1055" y="0" type="line"/>
    </contour>
    <contour>
      <point x="483" y="306" type="line"/>
      <point x="334" y="306" type="line"/>
      <point x="483" y="601" type="line"/>
    </contour>
    <contour>
      <point x="691" y="723" type="move" name="top"/>
    </contour>
  </outline>
</glyph>
<glyph name="Eth" format="1">
  <advance width="786"/>
  <unicode hex="00D0"/>
  <outline>
    <contour>
      <point x="433" y="423" type="line"/>
      <point x="35" y="423" type="line"/>
      <point x="35" y="286" type="line"/>
      <point x="433" y="286" type="line"/>
    </contour>
    <component base="D" xOffset="43"/>
  </outline>
</glyph>
<glyph name="multiply" format="1">
  <advance width="616"/>
  <unicode hex="00D7"/>
  <outline>
    <contour>
      <point x="553" y="213" type="line"/>
      <point x="151" y="614" type="line"/>
      <point x="55" y="516" type="line"/>
      <point x="455" y="115" type="line"/>
    </contour>
    <contour>
      <point x="152" y="115" type="line"/>
      <point x="555" y="516" type="line"/>
      <point x="457" y="614" type="line"/>
      <point x="56" y="213" type="line"/>
    </contour>
  </outline>
</glyph>
<glyph name="Oslash" format="1">
  <advance width="799"/>
  <unicode hex="00D8"/>
  <outline>
    <contour>
      <point x="93" y="-14" type="line"/>
      <point x="171" y="61" type="line"/>
      <point x="229" y="16"/>
      <point x="305" y="-10"/>
      <point x="395" y="-10" type="curve" smooth="yes"/>
      <point x="608" y="-10"/>
      <point x="744" y="136"/>
      <point x="744" y="360" type="curve" smooth="yes"/>
      <point x="744" y="442"/>
      <point x="726" y="513"/>
      <point x="692" y="570" type="curve"/>
      <point x="779" y="656" type="line"/>
      <point x="703" y="736" type="line"/>
      <point x="621" y="657" type="line"/>
      <point x="563" y="706"/>
      <point x="486" y="733"/>
      <point x="395" y="733" type="curve" smooth="yes"/>
      <point x="183" y="733"/>
      <point x="44" y="586"/>
      <point x="44" y="360" type="curve" smooth="yes"/>
      <point x="44" y="276"/>
      <point x="63" y="204"/>
      <point x="97" y="146" type="curve"/>
      <point x="15" y="67" type="line"/>
    </contour>
    <contour>
      <point x="395" y="142" type="curve" smooth="yes"/>
      <point x="352" y="142"/>
      <point x="322" y="157"/>
      <point x="303" y="190" type="curve"/>
      <point x="512" y="395" type="line"/>
      <point x="512" y="335"/>
      <point x="509" y="288"/>
      <point x="501" y="251" type="curve" smooth="yes"/>
      <point x="486" y="174"/>
      <point x="452" y="142"/>
    </contour>
    <contour>
      <point x="276" y="320" type="line"/>
      <point x="276" y="370"/>
      <point x="278" y="412"/>
      <point x="284" y="447" type="curve" smooth="yes"/>
      <point x="298" y="542"/>
      <point x="333" y="583"/>
      <point x="395" y="583" type="curve" smooth="yes"/>
      <point x="438" y="583"/>
      <point x="468" y="566"/>
      <point x="487" y="526" type="curve"/>
    </contour>
    <contour>
      <point x="394" y="723" type="move" name="top"/>
    </contour>
  </outline>
</glyph>
<glyph name="Yacute" format="1">
  <advance width="717"/>
  <unicode hex="00DD"/>
  <outline>
    <component base="Y"/>
    <component base="acutecomb" xOffset="216" yOffset="206"/>
    <contour>
      <point x="358" y="12" type="move" name="bottom"/>
    </contour>
  </outline>
</glyph>
<glyph name="Thorn" format="1">
  <advance width="748"/>
  <unicode hex="00DE"/>
  <outline>
    <contour>
      <point x="718" y="363" type="curve" smooth="yes"/>
      <point x="718" y="517"/>
      <point x="584" y="593"/>
      <point x="424" y="593" type="curve" smooth="yes"/>
      <point x="292" y="593" type="line"/>
      <point x="292" y="723" type="line"/>
      <point x="70" y="723" type="line"/>
      <point x="70" y="0" type="line"/>
      <point x="292" y="0" type="line"/>
      <point x="292" y="138" type="line"/>
      <point x="450" y="138" type="line" smooth="yes"/>
      <point x="609" y="138"/>
      <point x="718" y="223"/>
    </contour>
    <contour>
      <point x="492" y="366" type="curve" smooth="yes"/>
      <point x="492" y="327"/>
      <point x="463" y="294"/>
      <point x="416" y="294" type="curve" smooth="yes"/>
      <point x="292" y="294" type="line"/>
      <point x="292" y="437" type="line"/>
      <point x="411" y="437" type="line" smooth="yes"/>
      <point x="455" y="437"/>
      <point x="492" y="410"/>
    </contour>
  </outline>
</glyph>
<glyph name="germandbls" format="1">
  <advance width="692"/>
  <unicode hex="00DF"/>
  <outline>
    <contour>
      <point x="359" y="723" type="curve" smooth="yes"/>
      <point x="150" y="723"/>
      <point x="88" y="601"/>
      <point x="83" y="484" type="curve"/>
      <point x="30" y="484" type="line"/>
      <point x="30" y="352" type="line"/>
      <point x="84" y="352" type="line"/>
      <point x="84" y="0" type="line"/>
      <point x="275" y="0" type="line"/>
      <point x="275" y="522" type="line" smooth="yes"/>
      <point x="275" y="566"/>
      <point x="301" y="602"/>
      <point x="352" y="602" type="curve" smooth="yes"/>
      <point x="393" y="602"/>
      <point x="414" y="580"/>
      <point x="414" y="554" type="curve" smooth="yes"/>
      <point x="414" y="522"/>
      <point x="385" y="499"/>
      <point x="357" y="470" type="curve" smooth="yes"/>
      <point x="332" y="444"/>
      <point x="307" y="410"/>
      <point x="307" y="359" type="curve" smooth="yes"/>
      <point x="307" y="288"/>
      <point x="353" y="243"/>
      <point x="415" y="215" type="curve" smooth="yes"/>
      <point x="466" y="193"/>
      <point x="490" y="182"/>
      <point x="490" y="154" type="curve" smooth="yes"/>
      <point x="490" y="123"/>
      <point x="463" y="110"/>
      <point x="433" y="110" type="curve" smooth="yes"/>
      <point x="398" y="110"/>
      <point x="375" y="127"/>
      <point x="359" y="138" type="curve"/>
      <point x="306" y="22" type="line"/>
      <point x="336" y="4"/>
      <point x="377" y="-10"/>
      <point x="437" y="-10" type="curve" smooth="yes"/>
      <point x="575" y="-10"/>
      <point x="662" y="54"/>
      <point x="662" y="175" type="curve" smooth="yes"/>
      <point x="662" y="305"/>
      <point x="560" y="351"/>
      <point x="451" y="400" type="curve" smooth="yes"/>
      <point x="446" y="402"/>
      <point x="444" y="405"/>
      <point x="444" y="408" type="curve" smooth="yes"/>
      <point x="444" y="410"/>
      <point x="446" y="413"/>
      <point x="449" y="414" type="curve" smooth="yes"/>
      <point x="550" y="455"/>
      <point x="588" y="498"/>
      <point x="588" y="566" type="curve" smooth="yes"/>
      <point x="588" y="670"/>
      <point x="502" y="723"/>
    </contour>
  </outline>
</glyph>
<glyph name="ae" format="1">
  <advance width="906"/>
  <unicode hex="00E6"/>
  <outline>
    <contour>
      <point x="546" y="223" type="curve"/>
      <point x="881" y="223" type="line"/>
      <point x="881" y="415"/>
      <point x="769" y="527"/>
      <point x="616" y="527" type="curve" smooth="yes"/>
      <point x="566" y="527"/>
      <point x="517" y="513"/>
      <point x="475" y="488" type="curve"/>
      <point x="438" y="512"/>
      <point x="380" y="526"/>
      <point x="293" y="527" type="curve" smooth="yes"/>
      <point x="137" y="527"/>
      <point x="77" y="477"/>
      <point x="38" y="383" type="curve"/>
      <point x="206" y="350" type="line"/>
      <point x="224" y="398"/>
      <point x="259" y="410"/>
      <point x="289" y="410" type="curve" smooth="yes"/>
      <point x="328" y="410"/>
      <point x="346" y="390"/>
      <point x="346" y="354" type="curve" smooth="yes"/>
      <point x="346" y="325" type="line"/>
      <point x="306" y="323" type="line" smooth="yes"/>
      <point x="119" y="314"/>
      <point x="25" y="244"/>
      <point x="25" y="139" type="curve" smooth="yes"/>
      <point x="25" y="51"/>
      <point x="84" y="-10"/>
      <point x="194" y="-10" type="curve" smooth="yes"/>
      <point x="284" y="-10"/>
      <point x="347" y="12"/>
      <point x="407" y="69" type="curve" smooth="yes"/>
      <point x="410" y="73"/>
      <point x="413" y="73"/>
      <point x="417" y="69" type="curve" smooth="yes"/>
      <point x="466" y="20"/>
      <point x="538" y="-10"/>
      <point x="620" y="-10" type="curve" smooth="yes"/>
      <point x="734" y="-10"/>
      <point x="804" y="20"/>
      <point x="878" y="132" type="curve"/>
      <point x="760" y="180" type="line"/>
      <point x="714" y="134"/>
      <point x="682" y="119"/>
      <point x="646" y="119" type="curve" smooth="yes"/>
      <point x="590" y="119"/>
      <point x="546" y="152"/>
    </contour>
    <contour>
      <point x="625" y="412" type="curve" smooth="yes"/>
      <point x="674" y="412"/>
      <point x="692" y="354"/>
      <point x="692" y="324" type="curve"/>
      <point x="549" y="325" type="line"/>
      <point x="548" y="385"/>
      <point x="585" y="412"/>
    </contour>
    <contour>
      <point x="346" y="229" type="line"/>
      <point x="346" y="156" type="line" smooth="yes"/>
      <point x="346" y="124"/>
      <point x="310" y="105"/>
      <point x="273" y="105" type="curve" smooth="yes"/>
      <point x="235" y="105"/>
      <point x="215" y="124"/>
      <point x="215" y="152" type="curve" smooth="yes"/>
      <point x="215" y="200"/>
      <point x="278" y="224"/>
      <point x="315" y="227" type="curve" smooth="yes"/>
    </contour>
    <contour>
      <point x="452" y="517" type="move" name="top"/>
    </contour>
  </outline>
</glyph>
<glyph name="eth" format="1">
  <advance width="1188"/>
  <unicode hex="00F0"/>
  <outline>
    <contour>
      <point x="1138" y="550" type="curve" smooth="yes"/>
      <point x="1138" y="858"/>
      <point x="992" y="1134"/>
      <point x="750" y="1304" type="curve"/>
      <point x="858" y="1366" type="line"/>
      <point x="798" y="1474" type="line"/>
      <point x="626" y="1378" type="line"/>
      <point x="546" y="1418"/>
      <point x="458" y="1446"/>
      <point x="364" y="1468" type="curve"/>
      <point x="164" y="1302" type="line"/>
      <point x="230" y="1280"/>
      <point x="292" y="1254"/>
      <point x="350" y="1224" type="curve"/>
      <point x="188" y="1136" type="line"/>
      <point x="254" y="1030" type="line"/>
      <point x="470" y="1150" type="line"/>
      <point x="524" y="1110"/>
      <point x="562" y="1074"/>
      <point x="598" y="1024" type="curve" smooth="yes"/>
      <point x="602" y="1018"/>
      <point x="602" y="1014"/>
      <point x="594" y="1014" type="curve" smooth="yes"/>
      <point x="286" y="1014"/>
      <point x="50" y="798"/>
      <point x="50" y="492" type="curve" smooth="yes"/>
      <point x="50" y="200"/>
      <point x="274" y="-20"/>
      <point x="592" y="-20" type="curve" smooth="yes"/>
      <point x="918" y="-20"/>
      <point x="1138" y="198"/>
    </contour>
    <contour>
      <point x="594" y="230" type="curve" smooth="yes"/>
      <point x="492" y="230"/>
      <point x="444" y="316"/>
      <point x="444" y="500" type="curve" smooth="yes"/>
      <point x="444" y="684"/>
      <point x="492" y="772"/>
      <point x="594" y="772" type="curve" smooth="yes"/>
      <point x="700" y="772"/>
      <point x="744" y="684"/>
      <point x="744" y="500" type="curve" smooth="yes"/>
      <point x="744" y="318"/>
      <point x="700" y="230"/>
    </contour>
  </outline>
</glyph>
<glyph name="divide" format="1">
  <advance width="619"/>
  <unicode hex="00F7"/>
  <outline>
    <contour>
      <point x="403" y="237" type="line"/>
      <point x="218" y="237" type="line"/>
      <point x="218" y="59" type="line"/>
      <point x="403" y="59" type="line"/>
    </contour>
    <contour>
      <point x="564" y="433" type="line"/>
      <point x="55" y="433" type="line"/>
      <point x="55" y="295" type="line"/>
      <point x="564" y="295" type="line"/>
    </contour>
    <contour>
      <point x="403" y="669" type="line"/>
      <point x="218" y="669" type="line"/>
      <point x="218" y="491" type="line"/>
      <point x="403" y="491" type="line"/>
    </contour>
  </outline>
</glyph>
<glyph name="oslash" format="1">
  <advance width="636"/>
  <unicode hex="00F8"/>
  <outline>
    <contour>
      <point x="595" y="463" type="line"/>
      <point x="538" y="525" type="line"/>
      <point x="30" y="53" type="line"/>
      <point x="88" y="-9" type="line"/>
    </contour>
    <component base="o" xOffset="38"/>
    <contour>
      <point x="313" y="517" type="move" name="top"/>
    </contour>
  </outline>
</glyph>
<glyph name="thorn" format="1">
  <advance width="615"/>
  <unicode hex="00FE"/>
  <outline>
    <contour>
      <point x="246" y="723" type="line"/>
      <point x="50" y="723" type="line"/>
      <point x="50" y="-161" type="line"/>
      <point x="245" y="-161" type="line"/>
      <point x="245" y="35" type="line" smooth="yes"/>
      <point x="245" y="55"/>
      <point x="249" y="54"/>
      <point x="265" y="40" type="curve" smooth="yes"/>
      <point x="306" y="1"/>
      <point x="346" y="-10"/>
      <point x="390" y="-10" type="curve" smooth="yes"/>
      <point x="499" y="-10"/>
      <point x="588" y="63"/>
      <point x="588" y="260" type="curve" smooth="yes"/>
      <point x="588" y="443"/>
      <point x="505" y="527"/>
      <point x="397" y="527" type="curve" smooth="yes"/>
      <point x="329" y="527"/>
      <point x="287" y="501"/>
      <point x="246" y="457" type="curve"/>
    </contour>
    <contour>
      <point x="245" y="147" type="curve"/>
      <point x="245" y="354" type="line" smooth="yes"/>
      <point x="245" y="385"/>
      <point x="275" y="409"/>
      <point x="313" y="409" type="curve" smooth="yes"/>
      <point x="364" y="409"/>
      <point x="391" y="379"/>
      <point x="391" y="266" type="curve" smooth="yes"/>
      <point x="391" y="141"/>
      <point x="362" y="108"/>
      <point x="313" y="108" type="curve" smooth="yes"/>
      <point x="282" y="108"/>
      <point x="261" y="124"/>
    </contour>
  </outline>
</glyph>
<glyph name="dcroat" format="1">
  <advance width="620"/>
  <unicode hex="0111"/>
  <outline>
    <contour>
      <point x="579" y="670" type="line"/>
      <point x="217" y="670" type="line"/>
      <point x="217" y="566" type="line"/>
      <point x="579" y="566" type="line"/>
    </contour>
    <component base="d"/>
  </outline>
</glyph>
<glyph name="gcommaaccent" format="1">
  <advance width="631"/>
  <unicode hex="0123"/>
  <outline>
    <contour>
      <point x="214" y="584" type="line"/>
      <point x="340" y="584" type="line"/>
      <point x="340" y="684" type="line"/>
      <point x="279" y="684" type="line"/>
      <point x="347" y="776" type="line"/>
      <point x="281" y="776" type="line"/>
      <point x="214" y="692" type="line"/>
    </contour>
    <component base="g"/>
    <contour>
      <point x="277" y="536" type="move" name="_top"/>
    </contour>
  </outline>
</glyph>
<glyph name="Hbar" format="1">
  <advance width="1638"/>
  <unicode hex="0126"/>
  <outline>
    <contour>
      <point x="1598" y="1284" type="line"/>
      <point x="40" y="1284" type="line"/>
      <point x="40" y="1082" type="line"/>
      <point x="1598" y="1082" type="line"/>
    </contour>
    <component base="H" xOffset="90"/>
  </outline>
</glyph>
<glyph name="hbar" format="1">
  <advance width="646"/>
  <unicode hex="0127"/>
  <outline>
    <contour>
      <point x="381" y="670" type="line"/>
      <point x="20" y="670" type="line"/>
      <point x="20" y="566" type="line"/>
      <point x="381" y="566" type="line"/>
    </contour>
    <component base="h" xOffset="39"/>
  </outline>
</glyph>
<glyph name="idotless" format="1">
  <advance width="580"/>
  <unicode hex="0131"/>
  <outline>
    <contour>
      <point x="490" y="1034" type="line"/>
      <point x="100" y="1034" type="line"/>
      <point x="100" y="0" type="line"/>
      <point x="490" y="0" type="line"/>
    </contour>
    <contour>
      <point x="434" y="18" type="move" name="ogonek"/>
    </contour>
    <contour>
      <point x="302" y="1034" type="move" name="top"/>
    </contour>
  </outline>
</glyph>
<glyph name="kgreenlandic" format="1">
  <advance width="1264"/>
  <unicode hex="0138"/>
  <outline>
    <contour>
      <point x="1244" y="0" type="line"/>
      <point x="884" y="700" type="line"/>
      <point x="1216" y="1034" type="line"/>
      <point x="834" y="1034" type="line"/>
      <point x="490" y="644" type="line"/>
      <point x="490" y="1034" type="line"/>
      <point x="100" y="1034" type="line"/>
      <point x="100" y="0" type="line"/>
      <point x="490" y="0" type="line"/>
      <point x="490" y="292" type="line"/>
      <point x="628" y="422" type="line"/>
      <point x="804" y="0" type="line"/>
    </contour>
  </outline>
</glyph>
<glyph name="Lslash" format="1">
  <advance width="598"/>
  <unicode hex="0141"/>
  <outline>
    <contour>
      <point x="437" y="544" type="line"/>
      <point x="0" y="428" type="line"/>
      <point x="0" y="269" type="line"/>
      <point x="437" y="393" type="line"/>
    </contour>
    <component base="L" xOffset="20"/>
  </outline>
</glyph>
<glyph name="lslash" format="1">
  <advance width="405"/>
  <unicode hex="0142"/>
  <outline>
    <contour>
      <point x="356" y="502" type="line"/>
      <point x="40" y="304" type="line"/>
      <point x="40" y="142" type="line"/>
      <point x="356" y="349" type="line"/>
    </contour>
    <component base="l" xOffset="80"/>
  </outline>
</glyph>
<glyph name="eng" format="1">
  <advance width="618"/>
  <unicode hex="014B"/>
  <outline>
    <contour>
      <point x="365" y="-166" type="curve" smooth="yes"/>
      <point x="482" y="-166"/>
      <point x="564" y="-92"/>
      <point x="564" y="28" type="curve" smooth="yes"/>
      <point x="564" y="369" type="line" smooth="yes"/>
      <point x="564" y="465"/>
      <point x="502" y="527"/>
      <point x="411" y="527" type="curve" smooth="yes"/>
      <point x="346" y="527"/>
      <point x="287" y="488"/>
      <point x="244" y="436" type="curve"/>
      <point x="244" y="517" type="line"/>
      <point x="53" y="517" type="line"/>
      <point x="50" y="0" type="line"/>
      <point x="247" y="0" type="line"/>
      <point x="247" y="340" type="line"/>
      <point x="265" y="373"/>
      <point x="287" y="389"/>
      <point x="318" y="389" type="curve" smooth="yes"/>
      <point x="349" y="389"/>
      <point x="369" y="371"/>
      <point x="369" y="342" type="curve" smooth="yes"/>
      <point x="369" y="25" type="line"/>
      <point x="369" y="0"/>
      <point x="356" y="-10"/>
      <point x="326" y="-15" type="curve"/>
      <point x="302" y="-18" type="line"/>
      <point x="302" y="-153" type="line"/>
      <point x="302" y="-153"/>
      <point x="309" y="-166"/>
    </contour>
  </outline>
</glyph>
<glyph name="OE" format="1">
  <advance width="1138"/>
  <unicode hex="0152"/>
  <outline>
    <contour>
      <point x="1084" y="160" type="line"/>
      <point x="734" y="160" type="line"/>
      <point x="734" y="285" type="line"/>
      <point x="948" y="285" type="line"/>
      <point x="948" y="442" type="line"/>
      <point x="734" y="442" type="line"/>
      <point x="734" y="564" type="line"/>
      <point x="1075" y="564" type="line"/>
      <point x="1076" y="723" type="line"/>
      <point x="606" y="723" type="line"/>
      <point x="545" y="723" type="line"/>
      <point x="511" y="730"/>
      <point x="469" y="733"/>
      <point x="419" y="733" type="curve" smooth="yes"/>
      <point x="185" y="733"/>
      <point x="45" y="586"/>
      <point x="45" y="360" type="curve" smooth="yes"/>
      <point x="45" y="135"/>
      <point x="181" y="-10"/>
      <point x="408" y="-10" type="curve" smooth="yes"/>
      <point x="462" y="-10"/>
      <point x="508" y="-7"/>
      <point x="545" y="0" type="curve"/>
      <point x="594" y="0" type="line"/>
      <point x="1084" y="0" type="line"/>
    </contour>
    <contour>
      <point x="396" y="142" type="curve" smooth="yes"/>
      <point x="309" y="142"/>
      <point x="277" y="201"/>
      <point x="277" y="357" type="curve" smooth="yes"/>
      <point x="277" y="518"/>
      <point x="311" y="583"/>
      <point x="396" y="583" type="curve" smooth="yes"/>
      <point x="479" y="583"/>
      <point x="513" y="518"/>
      <point x="513" y="357" type="curve" smooth="yes"/>
      <point x="513" y="201"/>
      <point x="481" y="142"/>
    </contour>
  </outline>
</glyph>
<glyph name="oe" format="1">
  <advance width="930"/>
  <unicode hex="0153"/>
  <outline>
    <contour>
      <point x="296" y="-10" type="curve" smooth="yes"/>
      <point x="360" y="-10"/>
      <point x="415" y="8"/>
      <point x="460" y="38" type="curve" smooth="yes"/>
      <point x="466" y="42"/>
      <point x="471" y="43"/>
      <point x="477" y="39" type="curve" smooth="yes"/>
      <point x="522" y="8"/>
      <point x="578" y="-10"/>
      <point x="642" y="-10" type="curve" smooth="yes"/>
      <point x="756" y="-10"/>
      <point x="826" y="20"/>
      <point x="899" y="132" type="curve"/>
      <point x="781" y="180" type="line"/>
      <point x="735" y="134"/>
      <point x="703" y="119"/>
      <point x="668" y="119" type="curve" smooth="yes"/>
      <point x="611" y="119"/>
      <point x="567" y="152"/>
      <point x="567" y="223" type="curve"/>
      <point x="903" y="223" type="line"/>
      <point x="903" y="415"/>
      <point x="791" y="527"/>
      <point x="638" y="527" type="curve" smooth="yes"/>
      <point x="581" y="527"/>
      <point x="528" y="510"/>
      <point x="485" y="479" type="curve" smooth="yes"/>
      <point x="475" y="472"/>
      <point x="470" y="472"/>
      <point x="460" y="479" type="curve" smooth="yes"/>
      <point x="416" y="509"/>
      <point x="361" y="527"/>
      <point x="297" y="527" type="curve" smooth="yes"/>
      <point x="143" y="527"/>
      <point x="25" y="418"/>
      <point x="25" y="255" type="curve" smooth="yes"/>
      <point x="25" y="100"/>
      <point x="137" y="-10"/>
    </contour>
    <contour>
      <point x="297" y="115" type="curve" smooth="yes"/>
      <point x="246" y="115"/>
      <point x="222" y="158"/>
      <point x="222" y="259" type="curve" smooth="yes"/>
      <point x="222" y="362"/>
      <point x="246" y="406"/>
      <point x="297" y="406" type="curve" smooth="yes"/>
      <point x="350" y="406"/>
      <point x="372" y="362"/>
      <point x="372" y="259" type="curve" smooth="yes"/>
      <point x="372" y="159"/>
      <point x="350" y="115"/>
    </contour>
    <contour>
      <point x="646" y="412" type="curve" smooth="yes"/>
      <point x="695" y="412"/>
      <point x="714" y="354"/>
      <point x="714" y="324" type="curve"/>
      <point x="570" y="325" type="line"/>
      <point x="569" y="385"/>
      <point x="606" y="412"/>
    </contour>
  </outline>
</glyph>
<glyph name="Tbar" format="1">
  <advance width="637"/>
  <unicode hex="0166"/>
  <outline>
    <contour>
      <point x="531" y="411" type="line"/>
      <point x="104" y="411" type="line"/>
      <point x="104" y="274" type="line"/>
      <point x="531" y="274" type="line"/>
    </contour>
    <component base="T"/>
  </outline>
</glyph>
<glyph name="tbar" format="1">
  <advance width="500"/>
  <unicode hex="0167"/>
  <outline>
    <contour>
      <point x="412" y="330" type="line"/>
      <point x="50" y="330" type="line"/>
      <point x="50" y="225" type="line"/>
      <point x="412" y="225" type="line"/>
    </contour>
    <component base="t" xOffset="40"/>
  </outline>
</glyph>
<glyph name="Schwa" format="1">
  <advance width="1576"/>
  <unicode hex="018F"/>
  <outline>
    <contour>
      <point x="1018" y="872" type="curve" smooth="yes"/>
      <point x="1018" y="840"/>
      <point x="1004" y="828"/>
      <point x="980" y="828" type="curve" smooth="yes"/>
      <point x="136" y="828" type="line" smooth="yes"/>
      <point x="92" y="828"/>
      <point x="90" y="808"/>
      <point x="90" y="764" type="curve" smooth="yes"/>
      <point x="90" y="266"/>
      <point x="326" y="-20"/>
      <point x="780" y="-20" type="curve" smooth="yes"/>
      <point x="1156" y="-20"/>
      <point x="1486" y="308"/>
      <point x="1486" y="742" type="curve" smooth="yes"/>
      <point x="1486" y="1168"/>
      <point x="1220" y="1466"/>
      <point x="786" y="1466" type="curve" smooth="yes"/>
      <point x="502" y="1466"/>
      <point x="294" y="1344"/>
      <point x="174" y="1106" type="curve" smooth="yes"/>
      <point x="158" y="1074"/>
      <point x="160" y="1056"/>
      <point x="184" y="1046" type="curve" smooth="yes"/>
      <point x="452" y="912" type="line" smooth="yes"/>
      <point x="486" y="896"/>
      <point x="498" y="900"/>
      <point x="506" y="914" type="curve" smooth="yes"/>
      <point x="596" y="1060"/>
      <point x="670" y="1128"/>
      <point x="790" y="1128" type="curve" smooth="yes"/>
      <point x="982" y="1128"/>
      <point x="1018" y="986"/>
    </contour>
    <contour>
      <point x="1014" y="554" type="line"/>
      <point x="992" y="374"/>
      <point x="934" y="284"/>
      <point x="776" y="284" type="curve" smooth="yes"/>
      <point x="644" y="284"/>
      <point x="564" y="392"/>
      <point x="564" y="520" type="curve" smooth="yes"/>
      <point x="564" y="550"/>
      <point x="574" y="556"/>
      <point x="606" y="556" type="curve" smooth="yes"/>
    </contour>
  </outline>
</glyph>
<glyph name="florin" format="1">
  <advance width="576"/>
  <unicode hex="0192"/>
  <outline>
    <contour>
      <point x="521" y="517" type="line"/>
      <point x="422" y="517" type="line"/>
      <point x="427" y="547" type="line" smooth="yes"/>
      <point x="432" y="574"/>
      <point x="457" y="597"/>
      <point x="480" y="597" type="curve" smooth="yes"/>
      <point x="540" y="597" type="line"/>
      <point x="561" y="723" type="line"/>
      <point x="422" y="723" type="line" smooth="yes"/>
      <point x="328" y="723"/>
      <point x="260" y="671"/>
      <point x="244" y="586" type="curve" smooth="yes"/>
      <point x="232" y="517" type="line"/>
      <point x="148" y="517" type="line"/>
      <point x="125" y="385" type="line"/>
      <point x="209" y="385" type="line"/>
      <point x="144" y="20" type="line" smooth="yes"/>
      <point x="136" y="-30"/>
      <point x="124" y="-41"/>
      <point x="90" y="-41" type="curve" smooth="yes"/>
      <point x="29" y="-41" type="line"/>
      <point x="10" y="-168" type="line"/>
      <point x="152" y="-168" type="line" smooth="yes"/>
      <point x="247" y="-168"/>
      <point x="316" y="-115"/>
      <point x="331" y="-30" type="curve" smooth="yes"/>
      <point x="404" y="385" type="line"/>
      <point x="497" y="385" type="line"/>
    </contour>
  </outline>
</glyph>
<glyph name="oinvertedbreve" format="1">
  <advance width="577"/>
  <unicode hex="020F"/>
  <outline>
    <component base="o"/>
    <component base="breveinvertedcomb" xOffset="76"/>
    <contour>
      <point x="288" y="517" type="move" name="top"/>
    </contour>
  </outline>
</glyph>
<glyph name="jdotless" format="1">
  <advance width="327"/>
  <unicode hex="0237"/>
  <outline>
    <contour>
      <point x="257" y="28" type="curve" smooth="yes"/>
      <point x="257" y="517" type="line"/>
      <point x="62" y="517" type="line"/>
      <point x="62" y="28" type="line"/>
      <point x="62" y="7"/>
      <point x="51" y="-6"/>
      <point x="14" y="-14" type="curve"/>
      <point x="-15" y="-19" type="line"/>
      <point x="-14" y="-149" type="line"/>
      <point x="-14" y="-149"/>
      <point x="0" y="-166"/>
      <point x="52" y="-166" type="curve"/>
      <point x="190" y="-166"/>
      <point x="257" y="-100"/>
    </contour>
    <contour>
      <point x="159" y="517" type="move" name="top"/>
    </contour>
  </outline>
</glyph>
<glyph name="commaturnedmod" format="1">
  <advance width="282"/>
  <unicode hex="02BB"/>
  <outline>
    <contour>
      <point x="227" y="675" type="line"/>
      <point x="227" y="725" type="line"/>
      <point x="124" y="745"/>
      <point x="50" y="654"/>
      <point x="50" y="566" type="curve"/>
      <point x="50" y="417" type="line"/>
      <point x="227" y="417" type="line"/>
      <point x="227" y="585" type="line"/>
      <point x="144" y="594" type="line"/>
      <point x="144" y="605" type="line"/>
      <point x="144" y="644"/>
      <point x="182" y="668"/>
      <point x="213" y="673" type="curve"/>
    </contour>
  </outline>
</glyph>
<glyph name="gravecomb" format="1">
  <advance width="686"/>
  <unicode hex="0300"/>
  <outline>
    <contour>
      <point x="112" y="1470" type="line"/>
      <point x="28" y="1234" type="line"/>
      <point x="582" y="1102" type="line"/>
      <point x="634" y="1256" type="line"/>
    </contour>
    <contour>
      <point x="334" y="1034" type="move" name="_top"/>
    </contour>
  </outline>
</glyph>
<glyph name="acutecomb" format="1">
  <advance width="686"/>
  <unicode hex="0301"/>
  <outline>
    <contour>
      <point x="558" y="1470" type="line"/>
      <point x="34" y="1256" type="line"/>
      <point x="86" y="1102" type="line"/>
      <point x="640" y="1234" type="line"/>
    </contour>
    <contour>
      <point x="334" y="1034" type="move" name="_top"/>
    </contour>
  </outline>
</glyph>
<glyph name="circumflexcomb" format="1">
  <advance width="441"/>
  <unicode hex="0302"/>
  <outline>
    <contour>
      <point x="277" y="580" type="line"/>
      <point x="416" y="580" type="line"/>
      <point x="282" y="733" type="line"/>
      <point x="150" y="733" type="line"/>
      <point x="12" y="580" type="line"/>
      <point x="144" y="580" type="line"/>
      <point x="215" y="662" type="line"/>
    </contour>
    <contour>
      <point x="216" y="517" type="move" name="_top"/>
    </contour>
  </outline>
</glyph>
<glyph name="tildecomb" format="1">
  <advance width="480"/>
  <unicode hex="0303"/>
  <outline>
    <contour>
      <point x="430" y="635" type="curve"/>
      <point x="410" y="738" type="line"/>
      <point x="388" y="720"/>
      <point x="354" y="697"/>
      <point x="315" y="697" type="curve" smooth="yes"/>
      <point x="269" y="697"/>
      <point x="215" y="730"/>
      <point x="153" y="730" type="curve" smooth="yes"/>
      <point x="101" y="730"/>
      <point x="71" y="706"/>
      <point x="45" y="677" type="curve"/>
      <point x="72" y="588" type="line"/>
      <point x="103" y="615"/>
      <point x="124" y="624"/>
      <point x="158" y="624" type="curve" smooth="yes"/>
      <point x="214" y="624"/>
      <point x="258" y="594"/>
      <point x="316" y="594" type="curve" smooth="yes"/>
      <point x="363" y="594"/>
      <point x="406" y="614"/>
    </contour>
    <contour>
      <point x="234" y="517" type="move" name="_top"/>
    </contour>
  </outline>
</glyph>
<glyph name="macroncomb" format="1">
  <advance width="452"/>
  <unicode hex="0304"/>
  <outline>
    <contour>
      <point x="421" y="723" type="line"/>
      <point x="21" y="723" type="line"/>
      <point x="21" y="604" type="line"/>
      <point x="421" y="604" type="line"/>
    </contour>
    <contour>
      <point x="221" y="517" type="move" name="_top"/>
    </contour>
  </outline>
</glyph>
<glyph name="brevecomb" format="1">
  <advance width="434"/>
  <unicode hex="0306"/>
  <outline>
    <contour>
      <point x="414" y="723" type="curve"/>
      <point x="308" y="723" type="line"/>
      <point x="289" y="689"/>
      <point x="261" y="665"/>
      <point x="217" y="665" type="curve" smooth="yes"/>
      <point x="173" y="665"/>
      <point x="144" y="689"/>
      <point x="125" y="723" type="curve"/>
      <point x="20" y="723" type="line"/>
      <point x="49" y="622"/>
      <point x="130" y="578"/>
      <point x="217" y="578" type="curve" smooth="yes"/>
      <point x="305" y="578"/>
      <point x="385" y="625"/>
    </contour>
    <contour>
      <point x="217" y="517" type="move" name="_top"/>
    </contour>
  </outline>
</glyph>
<glyph name="dotaccentcomb" format="1">
  <advance width="246"/>
  <unicode hex="0307"/>
  <outline>
    <contour>
      <point x="25" y="560" type="line"/>
      <point x="220" y="560" type="line"/>
      <point x="220" y="723" type="line"/>
      <point x="25" y="723" type="line"/>
    </contour>
    <contour>
      <point x="123" y="517" type="move" name="_top"/>
    </contour>
  </outline>
</glyph>
<glyph name="dieresiscomb" format="1">
  <advance width="452"/>
  <unicode hex="0308"/>
  <outline>
    <contour>
      <point x="256" y="579" type="line"/>
      <point x="451" y="579" type="line"/>
      <point x="451" y="743" type="line"/>
      <point x="256" y="743" type="line"/>
    </contour>
    <contour>
      <point x="1" y="579" type="line"/>
      <point x="196" y="579" type="line"/>
      <point x="196" y="743" type="line"/>
      <point x="1" y="743" type="line"/>
    </contour>
    <contour>
      <point x="228" y="520" type="move" name="_top"/>
    </contour>
  </outline>
</glyph>
<glyph name="hookabovecomb" format="1">
  <advance width="600"/>
  <unicode hex="0309"/>
  <outline>
    <contour>
      <point x="210" y="786" type="line"/>
      <point x="275" y="828"/>
      <point x="348" y="813"/>
      <point x="381" y="761" type="curve" smooth="yes"/>
      <point x="421" y="699"/>
      <point x="409" y="636"/>
      <point x="334" y="592" type="curve"/>
      <point x="293" y="657" type="line"/>
      <point x="317" y="672"/>
      <point x="325" y="693"/>
      <point x="311" y="716" type="curve" smooth="yes"/>
      <point x="300" y="734"/>
      <point x="272" y="737"/>
      <point x="251" y="723" type="curve"/>
    </contour>
    <contour>
      <point x="282" y="517" type="move" name="_top"/>
    </contour>
    <contour>
      <point x="232" y="599" type="move" name="_topviet"/>
    </contour>
  </outline>
</glyph>
<glyph name="ringcomb" format="1">
  <advance width="279"/>
  <unicode hex="030A"/>
  <outline>
    <contour>
      <point x="249" y="662" type="curve" smooth="yes"/>
      <point x="249" y="724"/>
      <point x="198" y="774"/>
      <point x="135" y="774" type="curve" smooth="yes"/>
      <point x="72" y="774"/>
      <point x="21" y="725"/>
      <point x="21" y="664" type="curve" smooth="yes"/>
      <point x="21" y="599"/>
      <point x="71" y="548"/>
      <point x="135" y="548" type="curve" smooth="yes"/>
      <point x="198" y="548"/>
      <point x="249" y="598"/>
    </contour>
    <contour>
      <point x="180" y="661" type="curve" smooth="yes"/>
      <point x="180" y="636"/>
      <point x="160" y="613"/>
      <point x="134" y="613" type="curve" smooth="yes"/>
      <point x="108" y="613"/>
      <point x="86" y="636"/>
      <point x="86" y="661" type="curve" smooth="yes"/>
      <point x="86" y="687"/>
      <point x="108" y="707"/>
      <point x="134" y="707" type="curve" smooth="yes"/>
      <point x="160" y="707"/>
      <point x="180" y="687"/>
    </contour>
    <contour>
      <point x="135" y="506" type="move" name="_top"/>
    </contour>
  </outline>
</glyph>
<glyph name="hungarumlautcomb" format="1">
  <advance width="974"/>
  <unicode hex="030B"/>
  <outline>
    <contour>
      <point x="350" y="1472" type="line"/>
      <point x="26" y="1202" type="line"/>
      <point x="142" y="1082" type="line"/>
      <point x="506" y="1286" type="line"/>
    </contour>
    <contour>
      <point x="776" y="1474" type="line"/>
      <point x="454" y="1202" type="line"/>
      <point x="568" y="1082" type="line"/>
      <point x="934" y="1286" type="line"/>
    </contour>
    <contour>
      <point x="478" y="1034" type="move" name="_top"/>
    </contour>
  </outline>
</glyph>
<glyph name="caroncomb" format="1">
  <advance width="441"/>
  <unicode hex="030C"/>
  <outline>
    <contour>
      <point x="277" y="724" type="line"/>
      <point x="215" y="642" type="line"/>
      <point x="144" y="724" type="line"/>
      <point x="12" y="724" type="line"/>
      <point x="149" y="570" type="line"/>
      <point x="282" y="570" type="line"/>
      <point x="416" y="724" type="line"/>
    </contour>
    <contour>
      <point x="216" y="517" type="move" name="_top"/>
    </contour>
  </outline>
</glyph>
<glyph name="dblgravecomb" format="1">
  <advance width="976"/>
  <unicode hex="030F"/>
  <outline>
    <contour>
      <point x="180" y="1474" type="line"/>
      <point x="20" y="1286" type="line"/>
      <point x="386" y="1080" type="line"/>
      <point x="500" y="1202" type="line"/>
    </contour>
    <contour>
      <point x="606" y="1474" type="line"/>
      <point x="446" y="1286" type="line"/>
      <point x="814" y="1080" type="line"/>
      <point x="926" y="1202" type="line"/>
    </contour>
    <contour>
      <point x="528" y="1034" type="move" name="_top"/>
    </contour>
  </outline>
</glyph>
<glyph name="breveinvertedcomb" format="1">
  <advance width="424"/>
  <unicode hex="0311"/>
  <outline>
    <component base="brevecomb" yScale="-1" xOffset="-5" yOffset="1335"/>
    <contour>
      <point x="212" y="517" type="move" name="_top"/>
    </contour>
  </outline>
</glyph>
<glyph name="horncomb" format="1">
  <advance width="450"/>
  <unicode hex="031B"/>
  <outline>
    <contour>
      <point x="450" y="1278" type="curve"/>
      <point x="216" y="1278" type="line"/>
      <point x="196" y="1040"/>
      <point x="142" y="1056"/>
      <point x="0" y="1058" type="curve"/>
      <point x="0" y="880" type="line"/>
      <point x="358" y="840"/>
      <point x="446" y="952"/>
    </contour>
    <contour>
      <point x="0" y="880" type="move" name="_horn"/>
    </contour>
    <contour>
      <point x="212" y="1060" type="move" name="_topright"/>
    </contour>
    <contour>
      <point x="212" y="1060" type="move" name="topright"/>
    </contour>
  </outline>
</glyph>
<glyph name="dotbelowcomb" format="1">
  <advance width="205"/>
  <unicode hex="0323"/>
  <outline>
    <component base="dotaccentcomb" xOffset="-20" yOffset="-794"/>
    <contour>
      <point x="102" y="0" type="move" name="_bottom"/>
    </contour>
  </outline>
</glyph>
<glyph name="commaaccentcomb" format="1">
  <advance width="177"/>
  <unicode hex="0326"/>
  <outline>
    <contour>
      <point x="40" y="-240" type="curve" smooth="yes"/>
      <point x="58" y="-240" type="line" smooth="yes"/>
      <point x="75" y="-240"/>
      <point x="82" y="-237"/>
      <point x="90" y="-226" type="curve" smooth="yes"/>
      <point x="142" y="-161" type="line" smooth="yes"/>
      <point x="143" y="-158"/>
      <point x="146" y="-153"/>
      <point x="146" y="-148" type="curve" smooth="yes"/>
      <point x="146" y="-63" type="line" smooth="yes"/>
      <point x="146" y="-54"/>
      <point x="141" y="-48"/>
      <point x="130" y="-48" type="curve" smooth="yes"/>
      <point x="38" y="-48" type="line" smooth="yes"/>
      <point x="28" y="-48"/>
      <point x="21" y="-54"/>
      <point x="21" y="-67" type="curve" smooth="yes"/>
      <point x="21" y="-127" type="line" smooth="yes"/>
      <point x="21" y="-142"/>
      <point x="26" y="-148"/>
      <point x="43" y="-148" type="curve" smooth="yes"/>
      <point x="52" y="-148" type="line" smooth="yes"/>
      <point x="65" y="-148"/>
      <point x="71" y="-163"/>
      <point x="61" y="-176" type="curve" smooth="yes"/>
      <point x="28" y="-220" type="line" smooth="yes"/>
      <point x="23" y="-228"/>
      <point x="29" y="-240"/>
    </contour>
    <contour>
      <point x="84" y="0" type="move" name="_bottom"/>
    </contour>
  </outline>
</glyph>
<glyph name="cedillacomb" format="1">
  <advance width="311"/>
  <unicode hex="0327"/>
  <outline>
    <contour>
      <point x="281" y="-134" type="curve" smooth="yes"/>
      <point x="281" y="-97"/>
      <point x="251" y="-52"/>
      <point x="169" y="-52" type="curve"/>
      <point x="190" y="5" type="line"/>
      <point x="111" y="5" type="line"/>
      <point x="74" y="-81" type="line" smooth="yes"/>
      <point x="69" y="-92"/>
      <point x="74" y="-93"/>
      <point x="84" y="-93" type="curve" smooth="yes"/>
      <point x="151" y="-93"/>
      <point x="173" y="-107"/>
      <point x="173" y="-131" type="curve" smooth="yes"/>
      <point x="173" y="-147"/>
      <point x="154" y="-157"/>
      <point x="127" y="-157" type="curve" smooth="yes"/>
      <point x="98" y="-157"/>
      <point x="66" y="-144"/>
      <point x="42" y="-131" type="curve"/>
      <point x="18" y="-190" type="line"/>
      <point x="57" y="-213"/>
      <point x="104" y="-219"/>
      <point x="151" y="-219" type="curve" smooth="yes"/>
      <point x="220" y="-219"/>
      <point x="281" y="-186"/>
    </contour>
    <contour>
      <point x="146" y="0" type="move" name="_bottom"/>
    </contour>
  </outline>
</glyph>
<glyph name="ogonekcomb" format="1">
  <advance width="285"/>
  <unicode hex="0328"/>
  <outline>
    <contour>
      <point x="21" y="-85" type="curve" smooth="yes"/>
      <point x="21" y="-143"/>
      <point x="68" y="-170"/>
      <point x="139" y="-170" type="curve" smooth="yes"/>
      <point x="189" y="-170"/>
      <point x="235" y="-156"/>
      <point x="255" y="-143" type="curve"/>
      <point x="255" y="-61" type="line"/>
      <point x="231" y="-75"/>
      <point x="211" y="-86"/>
      <point x="182" y="-86" type="curve" smooth="yes"/>
      <point x="164" y="-86"/>
      <point x="155" y="-77"/>
      <point x="155" y="-58" type="curve" smooth="yes"/>
      <point x="155" y="-36"/>
      <point x="172" y="-18"/>
      <point x="245" y="6" type="curve"/>
      <point x="112" y="6" type="line"/>
      <point x="36" y="-21"/>
      <point x="21" y="-52"/>
    </contour>
    <contour>
      <point x="223" y="10" type="move" name="_ogonek"/>
    </contour>
  </outline>
</glyph>
<glyph name="Delta" format="1">
  <advance width="714"/>
  <unicode hex="0394"/>
  <outline>
    <contour>
      <point x="25" y="0" type="line"/>
      <point x="679" y="0" type="line"/>
      <point x="679" y="114" type="line"/>
      <point x="462" y="723" type="line"/>
      <point x="243" y="723" type="line"/>
      <point x="25" y="115" type="line"/>
    </contour>
    <contour>
      <point x="234" y="155" type="line"/>
      <point x="348" y="527" type="line"/>
      <point x="461" y="155" type="line"/>
    </contour>
  </outline>
</glyph>
<glyph name="Omega" format="1">
  <advance width="779"/>
  <unicode hex="03A9"/>
  <outline>
    <contour>
      <point x="388" y="583" type="curve" smooth="yes"/>
      <point x="454" y="583"/>
      <point x="511" y="528"/>
      <point x="511" y="385" type="curve" smooth="yes"/>
      <point x="511" y="253"/>
      <point x="459" y="175"/>
      <point x="408" y="137" type="curve"/>
      <point x="408" y="0" type="line"/>
      <point x="720" y="0" type="line"/>
      <point x="720" y="160" type="line"/>
      <point x="616" y="160" type="line" smooth="yes"/>
      <point x="609" y="160"/>
      <point x="608" y="167"/>
      <point x="613" y="173" type="curve" smooth="yes"/>
      <point x="674" y="226"/>
      <point x="726" y="310"/>
      <point x="726" y="409" type="curve" smooth="yes"/>
      <point x="726" y="553"/>
      <point x="615" y="733"/>
      <point x="388" y="733" type="curve" smooth="yes"/>
      <point x="170" y="733"/>
      <point x="44" y="567"/>
      <point x="44" y="408" type="curve" smooth="yes"/>
      <point x="44" y="296"/>
      <point x="105" y="212"/>
      <point x="168" y="160" type="curve"/>
      <point x="50" y="160" type="line"/>
      <point x="50" y="0" type="line"/>
      <point x="363" y="0" type="line"/>
      <point x="363" y="115" type="line" smooth="yes"/>
      <point x="363" y="131"/>
      <point x="355" y="142"/>
      <point x="340" y="156" type="curve" smooth="yes"/>
      <point x="295" y="196"/>
      <point x="258" y="266"/>
      <point x="258" y="380" type="curve" smooth="yes"/>
      <point x="258" y="534"/>
      <point x="325" y="583"/>
    </contour>
  </outline>
</glyph>
<glyph name="mu" format="1">
  <advance width="609"/>
  <unicode hex="03BC"/>
  <outline>
    <contour>
      <point x="293" y="127" type="curve" smooth="yes"/>
      <point x="264" y="127"/>
      <point x="245" y="144"/>
      <point x="245" y="175" type="curve" smooth="yes"/>
      <point x="245" y="517" type="line"/>
      <point x="50" y="517" type="line"/>
      <point x="50" y="-161" type="line"/>
      <point x="245" y="-161" type="line"/>
      <point x="245" y="-21" type="line" smooth="yes"/>
      <point x="245" y="-10"/>
      <point x="248" y="-5"/>
      <point x="262" y="0" type="curve" smooth="yes"/>
      <point x="298" y="12"/>
      <point x="336" y="38"/>
      <point x="369" y="80" type="curve"/>
      <point x="369" y="0" type="line"/>
      <point x="559" y="0" type="line"/>
      <point x="563" y="517" type="line"/>
      <point x="366" y="517" type="line"/>
      <point x="366" y="167" type="line"/>
      <point x="348" y="144"/>
      <point x="322" y="127"/>
    </contour>
  </outline>
</glyph>
<glyph name="pi" format="1">
  <advance width="689"/>
  <unicode hex="03C0"/>
  <outline>
    <contour>
      <point x="659" y="385" type="line"/>
      <point x="659" y="517" type="line"/>
      <point x="20" y="517" type="line"/>
      <point x="20" y="385" type="line"/>
      <point x="91" y="385" type="line" smooth="yes"/>
      <point x="97" y="385"/>
      <point x="100" y="381"/>
      <point x="100" y="375" type="curve" smooth="yes"/>
      <point x="100" y="283"/>
      <point x="74" y="112"/>
      <point x="45" y="0" type="curve"/>
      <point x="228" y="0" type="line"/>
      <point x="260" y="96"/>
      <point x="287" y="286"/>
      <point x="287" y="385" type="curve"/>
      <point x="395" y="385" type="line"/>
      <point x="395" y="0" type="line"/>
      <point x="581" y="0" type="line"/>
      <point x="581" y="385" type="line"/>
    </contour>
  </outline>
</glyph>
<glyph name="endash" format="1">
  <advance width="629"/>
  <unicode hex="2013"/>
  <outline>
    <contour>
      <point x="564" y="315" type="line"/>
      <point x="55" y="315" type="line"/>
      <point x="55" y="178" type="line"/>
      <point x="564" y="178" type="line"/>
    </contour>
  </outline>
</glyph>
<glyph name="emdash" format="1">
  <advance width="945"/>
  <unicode hex="2014"/>
  <outline>
    <contour>
      <point x="881" y="315" type="line"/>
      <point x="54" y="315" type="line"/>
      <point x="54" y="178" type="line"/>
      <point x="881" y="178" type="line"/>
    </contour>
  </outline>
</glyph>
<glyph name="quoteright" format="1">
  <advance width="284"/>
  <unicode hex="2019"/>
  <outline>
    <contour>
      <point x="50" y="401" type="line"/>
      <point x="114" y="401" type="line"/>
      <point x="229" y="574" type="line"/>
      <point x="229" y="723" type="line"/>
      <point x="52" y="723" type="line"/>
      <point x="52" y="555" type="line"/>
      <point x="110" y="548" type="line"/>
    </contour>
  </outline>
</glyph>
<glyph name="quotesinglbase" format="1">
  <advance width="309"/>
  <unicode hex="201A"/>
  <outline>
    <contour>
      <point x="50" y="-151" type="line"/>
      <point x="114" y="-151" type="line"/>
      <point x="229" y="22" type="line"/>
      <point x="229" y="172" type="line"/>
      <point x="52" y="172" type="line"/>
      <point x="52" y="3" type="line"/>
      <point x="110" y="-4" type="line"/>
    </contour>
  </outline>
</glyph>
<glyph name="quotedblleft" format="1">
  <advance width="534"/>
  <unicode hex="201C"/>
  <outline>
    <contour>
      <point x="274" y="401" type="line"/>
      <point x="451" y="401" type="line"/>
      <point x="451" y="569" type="line"/>
      <point x="393" y="576" type="line"/>
      <point x="453" y="723" type="line"/>
      <point x="389" y="723" type="line"/>
      <point x="274" y="550" type="line"/>
    </contour>
    <contour>
      <point x="24" y="401" type="line"/>
      <point x="201" y="401" type="line"/>
      <point x="201" y="569" type="line"/>
      <point x="143" y="576" type="line"/>
      <point x="203" y="723" type="line"/>
      <point x="139" y="723" type="line"/>
      <point x="24" y="550" type="line"/>
    </contour>
  </outline>
</glyph>
<glyph name="quotedblright" format="1">
  <advance width="559"/>
  <unicode hex="201D"/>
  <outline>
    <contour>
      <point x="299" y="401" type="line"/>
      <point x="364" y="401" type="line"/>
      <point x="479" y="574" type="line"/>
      <point x="479" y="723" type="line"/>
      <point x="301" y="723" type="line"/>
      <point x="301" y="555" type="line"/>
      <point x="360" y="548" type="line"/>
    </contour>
    <contour>
      <point x="50" y="401" type="line"/>
      <point x="114" y="401" type="line"/>
      <point x="229" y="574" type="line"/>
      <point x="229" y="723" type="line"/>
      <point x="52" y="723" type="line"/>
      <point x="52" y="555" type="line"/>
      <point x="110" y="548" type="line"/>
    </contour>
  </outline>
</glyph>
<glyph name="dagger" format="1">
  <advance width="578"/>
  <unicode hex="2020"/>
  <outline>
    <contour>
      <point x="523" y="511" type="line"/>
      <point x="344" y="486" type="line"/>
      <point x="375" y="723" type="line"/>
      <point x="192" y="723" type="line"/>
      <point x="223" y="486" type="line"/>
      <point x="45" y="511" type="line"/>
      <point x="45" y="347" type="line"/>
      <point x="229" y="375" type="line"/>
      <point x="194" y="-161" type="line"/>
      <point x="374" y="-161" type="line"/>
      <point x="338" y="375" type="line"/>
      <point x="523" y="347" type="line"/>
    </contour>
  </outline>
</glyph>
<glyph name="daggerdbl" format="1">
  <advance width="578"/>
  <unicode hex="2021"/>
  <outline>
    <contour>
      <point x="340" y="354" type="line"/>
      <point x="523" y="327" type="line"/>
      <point x="523" y="490" type="line"/>
      <point x="344" y="465" type="line"/>
      <point x="374" y="723" type="line"/>
      <point x="192" y="723" type="line"/>
      <point x="223" y="465" type="line"/>
      <point x="45" y="490" type="line"/>
      <point x="45" y="327" type="line"/>
      <point x="227" y="354" type="line"/>
      <point x="227" y="168" type="line"/>
      <point x="45" y="195" type="line"/>
      <point x="45" y="31" type="line"/>
      <point x="224" y="57" type="line"/>
      <point x="192" y="-161" type="line"/>
      <point x="375" y="-161" type="line"/>
      <point x="343" y="57" type="line"/>
      <point x="523" y="31" type="line"/>
      <point x="523" y="195" type="line"/>
      <point x="340" y="168" type="line"/>
    </contour>
  </outline>
</glyph>
<glyph name="bullet" format="1">
  <advance width="386"/>
  <unicode hex="2022"/>
  <outline>
    <contour>
      <point x="185" y="217" type="curve" smooth="yes"/>
      <point x="268" y="217"/>
      <point x="336" y="285"/>
      <point x="336" y="368" type="curve" smooth="yes"/>
      <point x="336" y="450"/>
      <point x="268" y="518"/>
      <point x="185" y="518" type="curve" smooth="yes"/>
      <point x="102" y="518"/>
      <point x="35" y="450"/>
      <point x="35" y="368" type="curve" smooth="yes"/>
      <point x="35" y="285"/>
      <point x="102" y="217"/>
    </contour>
  </outline>
</glyph>
<glyph name="perthousand" format="1">
  <advance width="1395"/>
  <unicode hex="2030"/>
  <outline>
    <contour>
      <point x="234" y="734" type="curve" smooth="yes"/>
      <point x="126" y="734"/>
      <point x="40" y="634"/>
      <point x="40" y="527" type="curve" smooth="yes"/>
      <point x="40" y="422"/>
      <point x="124" y="326"/>
      <point x="234" y="326" type="curve" smooth="yes"/>
      <point x="343" y="326"/>
      <point x="426" y="422"/>
      <point x="426" y="527" type="curve" smooth="yes"/>
      <point x="426" y="634"/>
      <point x="341" y="734"/>
    </contour>
    <contour>
      <point x="233" y="421" type="curve" smooth="yes"/>
      <point x="193" y="421"/>
      <point x="181" y="457"/>
      <point x="181" y="527" type="curve" smooth="yes"/>
      <point x="181" y="600"/>
      <point x="194" y="640"/>
      <point x="233" y="640" type="curve" smooth="yes"/>
      <point x="272" y="640"/>
      <point x="285" y="601"/>
      <point x="285" y="527" type="curve" smooth="yes"/>
      <point x="285" y="457"/>
      <point x="274" y="421"/>
    </contour>
    <contour>
      <point x="728" y="399" type="curve" smooth="yes"/>
      <point x="620" y="399"/>
      <point x="534" y="298"/>
      <point x="534" y="192" type="curve" smooth="yes"/>
      <point x="534" y="87"/>
      <point x="618" y="-10"/>
      <point x="728" y="-10" type="curve" smooth="yes"/>
      <point x="838" y="-10"/>
      <point x="921" y="87"/>
      <point x="921" y="192" type="curve" smooth="yes"/>
      <point x="921" y="298"/>
      <point x="836" y="399"/>
    </contour>
    <contour>
      <point x="727" y="86" type="curve" smooth="yes"/>
      <point x="687" y="86"/>
      <point x="676" y="122"/>
      <point x="676" y="191" type="curve" smooth="yes"/>
      <point x="676" y="264"/>
      <point x="688" y="304"/>
      <point x="727" y="304" type="curve" smooth="yes"/>
      <point x="766" y="304"/>
      <point x="779" y="265"/>
      <point x="779" y="191" type="curve" smooth="yes"/>
      <point x="779" y="122"/>
      <point x="768" y="86"/>
    </contour>
    <contour>
      <point x="1154" y="399" type="curve" smooth="yes"/>
      <point x="1045" y="399"/>
      <point x="960" y="298"/>
      <point x="960" y="192" type="curve" smooth="yes"/>
      <point x="960" y="87"/>
      <point x="1043" y="-10"/>
      <point x="1154" y="-10" type="curve" smooth="yes"/>
      <point x="1263" y="-10"/>
      <point x="1346" y="87"/>
      <point x="1346" y="192" type="curve" smooth="yes"/>
      <point x="1346" y="298"/>
      <point x="1261" y="399"/>
    </contour>
    <contour>
      <point x="1153" y="86" type="curve" smooth="yes"/>
      <point x="1113" y="86"/>
      <point x="1101" y="122"/>
      <point x="1101" y="191" type="curve" smooth="yes"/>
      <point x="1101" y="264"/>
      <point x="1114" y="304"/>
      <point x="1153" y="304" type="curve" smooth="yes"/>
      <point x="1192" y="304"/>
      <point x="1204" y="265"/>
      <point x="1204" y="191" type="curve" smooth="yes"/>
      <point x="1204" y="122"/>
      <point x="1194" y="86"/>
    </contour>
    <component base="fraction" xOffset="379"/>
  </outline>
</glyph>
<glyph name="guilsinglleft" format="1">
  <advance width="337"/>
  <unicode hex="2039"/>
  <outline>
    <contour>
      <point x="203" y="251" type="line"/>
      <point x="267" y="451" type="line"/>
      <point x="166" y="451" type="line"/>
      <point x="60" y="251" type="line"/>
      <point x="167" y="59" type="line"/>
      <point x="267" y="59" type="line"/>
    </contour>
  </outline>
</glyph>
<glyph name="guilsinglright" format="1">
  <advance width="337"/>
  <unicode hex="203A"/>
  <outline>
    <contour>
      <point x="124" y="251" type="line"/>
      <point x="60" y="59" type="line"/>
      <point x="160" y="59" type="line"/>
      <point x="267" y="251" type="line"/>
      <point x="161" y="451" type="line"/>
      <point x="60" y="451" type="line"/>
    </contour>
  </outline>
</glyph>
<glyph name="fraction" format="1">
  <advance width="264"/>
  <unicode hex="2044"/>
  <outline>
    <contour>
      <point x="420" y="731" type="line"/>
      <point x="315" y="731" type="line"/>
      <point x="-172" y="-2" type="line"/>
      <point x="-66" y="-4" type="line"/>
    </contour>
  </outline>
</glyph>
<glyph name="colonsign" format="1">
  <advance width="1236"/>
  <unicode hex="20A1"/>
  <outline>
    <contour>
      <point x="542" y="1032" type="line"/>
      <point x="646" y="1446" type="line"/>
      <point x="460" y="1442" type="line"/>
      <point x="364" y="1092" type="line"/>
    </contour>
    <contour>
      <point x="874" y="1032" type="line"/>
      <point x="978" y="1446" type="line"/>
      <point x="792" y="1442" type="line"/>
      <point x="696" y="1092" type="line"/>
    </contour>
    <contour>
      <point x="720" y="2" type="line"/>
      <point x="812" y="356" type="line"/>
      <point x="636" y="416" type="line"/>
      <point x="532" y="8" type="line"/>
    </contour>
    <contour>
      <point x="388" y="2" type="line"/>
      <point x="480" y="356" type="line"/>
      <point x="304" y="416" type="line"/>
      <point x="202" y="8" type="line"/>
    </contour>
    <component base="c" xOffset="40" yOffset="206"/>
  </outline>
</glyph>
<glyph name="franc" format="1">
  <advance width="639"/>
  <unicode hex="20A3"/>
  <outline>
    <contour>
      <point x="411" y="205" type="line"/>
      <point x="-30" y="205" type="line"/>
      <point x="-30" y="106" type="line"/>
      <point x="411" y="106" type="line"/>
    </contour>
    <contour>
      <point x="54" y="723" type="line"/>
      <point x="54" y="0" type="line"/>
      <point x="275" y="0" type="line"/>
      <point x="275" y="279" type="line"/>
      <point x="490" y="279" type="line"/>
      <point x="490" y="434" type="line"/>
      <point x="275" y="434" type="line"/>
      <point x="275" y="564" type="line"/>
      <point x="608" y="564" type="line"/>
      <point x="609" y="723" type="line"/>
    </contour>
  </outline>
</glyph>
<glyph name="lira" format="1">
  <advance width="680"/>
  <unicode hex="20A4"/>
  <outline>
    <contour>
      <point x="645" y="206" type="curve"/>
      <point x="482" y="238" type="line"/>
      <point x="465" y="182"/>
      <point x="438" y="160"/>
      <point x="383" y="160" type="curve"/>
      <point x="280" y="160" type="line"/>
      <point x="311" y="180"/>
      <point x="333" y="207"/>
      <point x="345" y="239" type="curve"/>
      <point x="456" y="239" type="line"/>
      <point x="456" y="337" type="line"/>
      <point x="351" y="337" type="line"/>
      <point x="347" y="385" type="line"/>
      <point x="456" y="385" type="line"/>
      <point x="456" y="484" type="line"/>
      <point x="342" y="484" type="line" smooth="yes"/>
      <point x="335" y="484"/>
      <point x="331" y="488"/>
      <point x="330" y="496" type="curve" smooth="yes"/>
      <point x="329" y="506"/>
      <point x="328" y="515"/>
      <point x="328" y="523" type="curve" smooth="yes"/>
      <point x="328" y="561"/>
      <point x="346" y="583"/>
      <point x="376" y="583" type="curve" smooth="yes"/>
      <point x="410" y="583"/>
      <point x="425" y="552"/>
      <point x="437" y="519" type="curve"/>
      <point x="606" y="567" type="line"/>
      <point x="557" y="686"/>
      <point x="442" y="733"/>
      <point x="345" y="733" type="curve" smooth="yes"/>
      <point x="213" y="733"/>
      <point x="91" y="666"/>
      <point x="101" y="532" type="curve"/>
      <point x="104" y="484" type="line"/>
      <point x="26" y="484" type="line"/>
      <point x="26" y="385" type="line"/>
      <point x="118" y="385" type="line"/>
      <point x="124" y="337" type="line"/>
      <point x="26" y="337" type="line"/>
      <point x="26" y="239" type="line"/>
      <point x="128" y="239" type="line" smooth="yes"/>
      <point x="134" y="239"/>
      <point x="137" y="237"/>
      <point x="137" y="231" type="curve" smooth="yes"/>
      <point x="137" y="220"/>
      <point x="136" y="211"/>
      <point x="133" y="203" type="curve" smooth="yes"/>
      <point x="123" y="172"/>
      <point x="95" y="159"/>
      <point x="56" y="159" type="curve" smooth="yes"/>
      <point x="25" y="159" type="line"/>
      <point x="25" y="0" type="line"/>
      <point x="399" y="0" type="line" smooth="yes"/>
      <point x="523" y="0"/>
      <point x="615" y="73"/>
    </contour>
  </outline>
</glyph>
<glyph name="naira" format="1">
  <advance width="820"/>
  <unicode hex="20A6"/>
  <outline>
    <contour>
      <point x="800" y="532" type="line"/>
      <point x="10" y="532" type="line"/>
      <point x="10" y="444" type="line"/>
      <point x="800" y="444" type="line"/>
    </contour>
    <contour>
      <point x="800" y="298" type="line"/>
      <point x="10" y="298" type="line"/>
      <point x="10" y="210" type="line"/>
      <point x="800" y="210" type="line"/>
    </contour>
    <component base="N" xOffset="47"/>
  </outline>
</glyph>
<glyph name="won" format="1">
  <advance width="1200"/>
  <unicode hex="20A9"/>
  <outline>
    <contour>
      <point x="1180" y="659" type="line"/>
      <point x="10" y="659" type="line"/>
      <point x="10" y="561" type="line"/>
      <point x="1180" y="561" type="line"/>
    </contour>
    <contour>
      <point x="1180" y="503" type="line"/>
      <point x="10" y="503" type="line"/>
      <point x="10" y="405" type="line"/>
      <point x="1180" y="405" type="line"/>
    </contour>
    <component base="W" xOffset="99"/>
  </outline>
</glyph>
<glyph name="dong" format="1">
  <advance width="561"/>
  <unicode hex="20AB"/>
  <outline>
    <contour>
      <point x="322" y="133" type="line"/>
      <point x="481" y="133" type="line"/>
      <point x="481" y="723" type="line"/>
      <point x="320" y="723" type="line"/>
      <point x="320" y="532" type="line" smooth="yes"/>
      <point x="320" y="520"/>
      <point x="313" y="520"/>
      <point x="304" y="526" type="curve" smooth="yes"/>
      <point x="272" y="558"/>
      <point x="241" y="567"/>
      <point x="205" y="567" type="curve" smooth="yes"/>
      <point x="116" y="567"/>
      <point x="35" y="480"/>
      <point x="35" y="344" type="curve" smooth="yes"/>
      <point x="35" y="199"/>
      <point x="102" y="125"/>
      <point x="197" y="125" type="curve" smooth="yes"/>
      <point x="253" y="125"/>
      <point x="287" y="144"/>
      <point x="322" y="181" type="curve"/>
    </contour>
    <contour>
      <point x="319" y="437" type="curve"/>
      <point x="319" y="275" type="line" smooth="yes"/>
      <point x="319" y="243"/>
      <point x="295" y="221"/>
      <point x="263" y="221" type="curve" smooth="yes"/>
      <point x="221" y="221"/>
      <point x="198" y="253"/>
      <point x="198" y="345" type="curve" smooth="yes"/>
      <point x="198" y="439"/>
      <point x="225" y="468"/>
      <point x="263" y="468" type="curve" smooth="yes"/>
      <point x="288" y="468"/>
      <point x="302" y="457"/>
    </contour>
    <contour>
      <point x="541" y="674" type="line"/>
      <point x="225" y="674" type="line"/>
      <point x="225" y="596" type="line"/>
      <point x="541" y="596" type="line"/>
    </contour>
    <contour>
      <point x="481" y="87" type="line"/>
      <point x="66" y="87" type="line"/>
      <point x="66" y="0" type="line"/>
      <point x="481" y="0" type="line"/>
    </contour>
  </outline>
</glyph>
<glyph name="euro" format="1">
  <advance width="699"/>
  <unicode hex="20AC"/>
  <outline>
    <contour>
      <point x="402" y="-10" type="curve" smooth="yes"/>
      <point x="509" y="-10"/>
      <point x="602" y="47"/>
      <point x="656" y="119" type="curve"/>
      <point x="553" y="226" type="line"/>
      <point x="530" y="190"/>
      <point x="478" y="150"/>
      <point x="428" y="150" type="curve" smooth="yes"/>
      <point x="367" y="150"/>
      <point x="309" y="207"/>
      <point x="309" y="368" type="curve" smooth="yes"/>
      <point x="309" y="527"/>
      <point x="356" y="583"/>
      <point x="422" y="583" type="curve" smooth="yes"/>
      <point x="471" y="583"/>
      <point x="499" y="549"/>
      <point x="526" y="516" type="curve"/>
      <point x="659" y="610" type="line"/>
      <point x="605" y="685"/>
      <point x="513" y="733"/>
      <point x="404" y="733" type="curve" smooth="yes"/>
      <point x="219" y="733"/>
      <point x="85" y="591"/>
      <point x="85" y="371" type="curve" smooth="yes"/>
      <point x="85" y="151"/>
      <point x="219" y="-10"/>
    </contour>
    <contour>
      <point x="460" y="493" type="line"/>
      <point x="10" y="493" type="line"/>
      <point x="10" y="395" type="line"/>
      <point x="460" y="395" type="line"/>
    </contour>
    <contour>
      <point x="460" y="328" type="line"/>
      <point x="10" y="328" type="line"/>
      <point x="10" y="229" type="line"/>
      <point x="460" y="229" type="line"/>
    </contour>
  </outline>
</glyph>
<glyph name="rupeeIndian" format="1">
  <advance width="698"/>
  <unicode hex="20B9"/>
  <outline>
    <contour>
      <point x="30" y="435" type="line"/>
      <point x="30" y="299" type="line"/>
      <point x="245" y="299" type="line"/>
      <point x="349" y="0" type="line"/>
      <point x="589" y="0" type="line"/>
      <point x="453" y="316" type="line" smooth="yes"/>
      <point x="450" y="324"/>
      <point x="450" y="332"/>
      <point x="456" y="334" type="curve" smooth="yes"/>
      <point x="531" y="364"/>
      <point x="584" y="433"/>
      <point x="584" y="522" type="curve" smooth="yes"/>
      <point x="584" y="648"/>
      <point x="474" y="723"/>
      <point x="287" y="723" type="curve" smooth="yes"/>
      <point x="30" y="723" type="line"/>
      <point x="30" y="628" type="line"/>
      <point x="253" y="628" type="line" smooth="yes"/>
      <point x="317" y="628"/>
      <point x="355" y="599"/>
      <point x="355" y="529" type="curve" smooth="yes"/>
      <point x="355" y="466"/>
      <point x="328" y="435"/>
      <point x="258" y="435" type="curve" smooth="yes"/>
    </contour>
    <contour>
      <point x="666" y="723" type="line"/>
      <point x="30" y="723" type="line"/>
      <point x="30" y="635" type="line"/>
      <point x="666" y="635" type="line"/>
    </contour>
    <contour>
      <point x="666" y="576" type="line"/>
      <point x="30" y="576" type="line"/>
      <point x="30" y="488" type="line"/>
      <point x="666" y="488" type="line"/>
    </contour>
  </outline>
</glyph>
<glyph name="liraTurkish" format="1">
  <advance width="736"/>
  <unicode hex="20BA"/>
  <outline>
    <contour>
      <point x="308" y="0" type="line" smooth="yes"/>
      <point x="561" y="0"/>
      <point x="664" y="133"/>
      <point x="716" y="271" type="curve"/>
      <point x="547" y="306" type="line"/>
      <point x="514" y="217"/>
      <point x="457" y="163"/>
      <point x="395" y="160" type="curve" smooth="yes"/>
      <point x="372" y="160" type="line"/>
      <point x="372" y="723" type="line"/>
      <point x="150" y="723" type="line"/>
      <point x="150" y="0" type="line"/>
    </contour>
    <contour>
      <point x="480" y="601" type="line"/>
      <point x="15" y="432" type="line"/>
      <point x="49" y="339" type="line"/>
      <point x="514" y="509" type="line"/>
    </contour>
    <contour>
      <point x="499" y="446" type="line"/>
      <point x="35" y="277" type="line"/>
      <point x="69" y="184" type="line"/>
      <point x="532" y="353" type="line"/>
    </contour>
  </outline>
</glyph>
<glyph name="literSign" format="1">
  <advance width="628"/>
  <unicode hex="2113"/>
  <outline>
    <contour>
      <point x="531" y="215" type="line"/>
      <point x="521" y="206"/>
      <point x="521" y="206"/>
      <point x="522" y="206" type="curve" smooth="yes"/>
      <point x="481" y="161"/>
      <point x="431" y="131"/>
      <point x="383" y="131" type="curve" smooth="yes"/>
      <point x="337" y="131"/>
      <point x="303" y="159"/>
      <point x="303" y="195" type="curve"/>
      <point x="303" y="229" type="line"/>
      <point x="426" y="325"/>
      <point x="533" y="408"/>
      <point x="533" y="555" type="curve" smooth="yes"/>
      <point x="533" y="651"/>
      <point x="488" y="733"/>
      <point x="346" y="733" type="curve" smooth="yes"/>
      <point x="201" y="733"/>
      <point x="104" y="646"/>
      <point x="104" y="470" type="curve" smooth="yes"/>
      <point x="104" y="275" type="line"/>
      <point x="20" y="211" type="line"/>
      <point x="60" y="109" type="line"/>
      <point x="103" y="138" type="line" smooth="yes"/>
      <point x="105" y="140"/>
      <point x="107" y="139"/>
      <point x="108" y="135" type="curve" smooth="yes"/>
      <point x="129" y="58"/>
      <point x="181" y="-10"/>
      <point x="335" y="-10" type="curve" smooth="yes"/>
    </contour>
    <contour>
      <point x="303" y="487" type="line" smooth="yes"/>
      <point x="303" y="596"/>
      <point x="329" y="624"/>
      <point x="363" y="624" type="curve" smooth="yes"/>
      <point x="396" y="624"/>
      <point x="409" y="599"/>
      <point x="409" y="563" type="curve" smooth="yes"/>
      <point x="409" y="500"/>
      <point x="371" y="443"/>
      <point x="303" y="377" type="curve"/>
    </contour>
  </outline>
</glyph>
<glyph name="published" format="1">
  <advance width="843"/>
  <unicode hex="2117"/>
  <outline>
    <contour>
      <point x="416" y="-10" type="curve" smooth="yes"/>
      <point x="621" y="-10"/>
      <point x="788" y="155"/>
      <point x="788" y="362" type="curve" smooth="yes"/>
      <point x="788" y="566"/>
      <point x="621" y="733"/>
      <point x="416" y="733" type="curve" smooth="yes"/>
      <point x="211" y="733"/>
      <point x="45" y="566"/>
      <point x="45" y="362" type="curve" smooth="yes"/>
      <point x="45" y="155"/>
      <point x="211" y="-10"/>
    </contour>
    <contour>
      <point x="416" y="89" type="curve" smooth="yes"/>
      <point x="255" y="89"/>
      <point x="154" y="195"/>
      <point x="154" y="362" type="curve" smooth="yes"/>
      <point x="154" y="527"/>
      <point x="255" y="636"/>
      <point x="416" y="636" type="curve" smooth="yes"/>
      <point x="575" y="636"/>
      <point x="679" y="527"/>
      <point x="679" y="362" type="curve" smooth="yes"/>
      <point x="679" y="195"/>
      <point x="575" y="89"/>
    </contour>
    <contour>
      <point x="610" y="421" type="curve" smooth="yes"/>
      <point x="610" y="513"/>
      <point x="539" y="554"/>
      <point x="454" y="554" type="curve" smooth="yes"/>
      <point x="266" y="554" type="line"/>
      <point x="266" y="170" type="line"/>
      <point x="384" y="170" type="line"/>
      <point x="384" y="293" type="line"/>
      <point x="467" y="293" type="line" smooth="yes"/>
      <point x="552" y="293"/>
      <point x="610" y="338"/>
    </contour>
    <contour>
      <point x="490" y="423" type="curve" smooth="yes"/>
      <point x="490" y="393"/>
      <point x="475" y="375"/>
      <point x="450" y="375" type="curve" smooth="yes"/>
      <point x="384" y="375" type="line"/>
      <point x="384" y="470" type="line"/>
      <point x="447" y="470" type="line" smooth="yes"/>
      <point x="470" y="470"/>
      <point x="490" y="456"/>
    </contour>
  </outline>
</glyph>
<glyph name="Ohm" format="1">
  <advance width="767"/>
  <unicode hex="2126"/>
  <outline>
    <contour>
      <point x="387" y="598" type="curve" smooth="yes"/>
      <point x="455" y="598"/>
      <point x="513" y="542"/>
      <point x="513" y="395" type="curve" smooth="yes"/>
      <point x="513" y="259"/>
      <point x="460" y="179"/>
      <point x="407" y="140" type="curve"/>
      <point x="407" y="0" type="line"/>
      <point x="727" y="0" type="line"/>
      <point x="727" y="164" type="line"/>
      <point x="601" y="164" type="line"/>
      <point x="688" y="239"/>
      <point x="733" y="317"/>
      <point x="733" y="419" type="curve" smooth="yes"/>
      <point x="733" y="567"/>
      <point x="620" y="752"/>
      <point x="387" y="752" type="curve" smooth="yes"/>
      <point x="163" y="752"/>
      <point x="34" y="582"/>
      <point x="34" y="418" type="curve" smooth="yes"/>
      <point x="34" y="304"/>
      <point x="97" y="217"/>
      <point x="161" y="164" type="curve"/>
      <point x="40" y="164" type="line"/>
      <point x="40" y="0" type="line"/>
      <point x="361" y="0" type="line"/>
      <point x="361" y="140" type="line"/>
      <point x="304" y="180"/>
      <point x="254" y="269"/>
      <point x="254" y="390" type="curve" smooth="yes"/>
      <point x="254" y="548"/>
      <point x="322" y="598"/>
    </contour>
  </outline>
</glyph>
<glyph name="partialdiff" format="1">
  <advance width="619"/>
  <unicode hex="2202"/>
  <outline>
    <contour>
      <point x="101" y="553" type="line"/>
      <point x="129" y="571"/>
      <point x="168" y="595"/>
      <point x="232" y="595" type="curve" smooth="yes"/>
      <point x="364" y="595"/>
      <point x="408" y="490"/>
      <point x="408" y="439" type="curve" smooth="yes"/>
      <point x="408" y="428"/>
      <point x="406" y="418"/>
      <point x="390" y="431" type="curve" smooth="yes"/>
      <point x="363" y="453"/>
      <point x="332" y="476"/>
      <point x="266" y="476" type="curve" smooth="yes"/>
      <point x="122" y="476"/>
      <point x="35" y="367"/>
      <point x="35" y="232" type="curve" smooth="yes"/>
      <point x="35" y="95"/>
      <point x="126" y="-10"/>
      <point x="291" y="-10" type="curve" smooth="yes"/>
      <point x="487" y="-10"/>
      <point x="579" y="138"/>
      <point x="579" y="354" type="curve" smooth="yes"/>
      <point x="579" y="613"/>
      <point x="445" y="733"/>
      <point x="263" y="733" type="curve" smooth="yes"/>
      <point x="153" y="733"/>
      <point x="77" y="687"/>
      <point x="50" y="665" type="curve"/>
    </contour>
    <contour>
      <point x="288" y="123" type="line" smooth="yes"/>
      <point x="247" y="123"/>
      <point x="216" y="155"/>
      <point x="216" y="224" type="curve" smooth="yes"/>
      <point x="216" y="296"/>
      <point x="251" y="352"/>
      <point x="304" y="352" type="curve" smooth="yes"/>
      <point x="342" y="352"/>
      <point x="370" y="325"/>
      <point x="384" y="299" type="curve" smooth="yes"/>
      <point x="391" y="288"/>
      <point x="392" y="283"/>
      <point x="390" y="264" type="curve" smooth="yes"/>
      <point x="381" y="181"/>
      <point x="348" y="123"/>
      <point x="289" y="123" type="curve" smooth="yes"/>
    </contour>
  </outline>
</glyph>
<glyph name="emptyset" format="1">
  <advance width="614"/>
  <unicode hex="2205"/>
  <outline>
    <contour>
      <point x="303" y="123" type="curve" smooth="yes"/>
      <point x="436" y="123"/>
      <point x="544" y="231"/>
      <point x="544" y="364" type="curve" smooth="yes"/>
      <point x="544" y="496"/>
      <point x="436" y="604"/>
      <point x="303" y="604" type="curve" smooth="yes"/>
      <point x="171" y="604"/>
      <point x="63" y="496"/>
      <point x="63" y="364" type="curve" smooth="yes"/>
      <point x="63" y="231"/>
      <point x="171" y="123"/>
    </contour>
    <contour>
      <point x="303" y="205" type="curve" smooth="yes"/>
      <point x="216" y="205"/>
      <point x="145" y="276"/>
      <point x="145" y="364" type="curve" smooth="yes"/>
      <point x="145" y="450"/>
      <point x="216" y="522"/>
      <point x="303" y="522" type="curve" smooth="yes"/>
      <point x="391" y="522"/>
      <point x="462" y="450"/>
      <point x="462" y="364" type="curve" smooth="yes"/>
      <point x="462" y="276"/>
      <point x="391" y="205"/>
    </contour>
    <contour>
      <point x="569" y="552" type="line"/>
      <point x="512" y="613" type="line"/>
      <point x="30" y="167" type="line"/>
      <point x="89" y="105" type="line"/>
    </contour>
  </outline>
</glyph>
<glyph name="increment" format="1">
  <advance width="832"/>
  <unicode hex="2206"/>
  <outline>
    <contour>
      <point x="15" y="0" type="line"/>
      <point x="817" y="0" type="line"/>
      <point x="426" y="723" type="line"/>
    </contour>
    <contour>
      <point x="296" y="159" type="line"/>
      <point x="426" y="386" type="line"/>
      <point x="545" y="159" type="line"/>
    </contour>
  </outline>
</glyph>
<glyph name="product" format="1">
  <advance width="736"/>
  <unicode hex="220F"/>
  <outline>
    <contour>
      <point x="706" y="723" type="line"/>
      <point x="20" y="723" type="line"/>
      <point x="20" y="566" type="line"/>
      <point x="101" y="566" type="line"/>
      <point x="101" y="0" type="line"/>
      <point x="300" y="0" type="line"/>
      <point x="300" y="566" type="line"/>
      <point x="425" y="566" type="line"/>
      <point x="425" y="0" type="line"/>
      <point x="624" y="0" type="line"/>
      <point x="624" y="566" type="line"/>
      <point x="706" y="566" type="line"/>
    </contour>
  </outline>
</glyph>
<glyph name="summation" format="1">
  <advance width="612"/>
  <unicode hex="2211"/>
  <outline>
    <contour>
      <point x="572" y="0" type="line"/>
      <point x="572" y="162" type="line"/>
      <point x="283" y="162" type="line"/>
      <point x="473" y="380" type="line"/>
      <point x="304" y="570" type="line"/>
      <point x="554" y="570" type="line"/>
      <point x="554" y="723" type="line"/>
      <point x="40" y="723" type="line"/>
      <point x="40" y="595" type="line"/>
      <point x="232" y="357" type="line"/>
      <point x="30" y="114" type="line"/>
      <point x="30" y="0" type="line"/>
    </contour>
  </outline>
</glyph>
<glyph name="minus" format="1">
  <advance width="619"/>
  <unicode hex="2212"/>
  <outline>
    <contour>
      <point x="564" y="433" type="line"/>
      <point x="55" y="433" type="line"/>
      <point x="55" y="295" type="line"/>
      <point x="564" y="295" type="line"/>
    </contour>
  </outline>
</glyph>
<glyph name="bulletoperator" format="1">
  <advance width="387"/>
  <unicode hex="2219"/>
  <outline>
    <contour>
      <point x="186" y="275" type="curve" smooth="yes"/>
      <point x="236" y="275"/>
      <point x="277" y="316"/>
      <point x="277" y="366" type="curve" smooth="yes"/>
      <point x="277" y="416"/>
      <point x="236" y="457"/>
      <point x="186" y="457" type="curve" smooth="yes"/>
      <point x="136" y="457"/>
      <point x="95" y="416"/>
      <point x="95" y="366" type="curve" smooth="yes"/>
      <point x="95" y="316"/>
      <point x="136" y="275"/>
    </contour>
  </outline>
</glyph>
<glyph name="radical" format="1">
  <advance width="733"/>
  <unicode hex="221A"/>
  <outline>
    <contour>
      <point x="728" y="826" type="line"/>
      <point x="568" y="826" type="line"/>
      <point x="368" y="12" type="line"/>
      <point x="238" y="374" type="line"/>
      <point x="15" y="295" type="line"/>
      <point x="53" y="191" type="line"/>
      <point x="135" y="221" type="line"/>
      <point x="274" y="-161" type="line"/>
      <point x="468" y="-161" type="line"/>
    </contour>
  </outline>
</glyph>
<glyph name="infinity" format="1">
  <advance width="847"/>
  <unicode hex="221E"/>
  <outline>
    <contour>
      <point x="792" y="275" type="line" smooth="yes"/>
      <point x="792" y="388"/>
      <point x="715" y="460"/>
      <point x="613" y="460" type="curve" smooth="yes"/>
      <point x="526" y="460"/>
      <point x="477" y="406"/>
      <point x="439" y="363" type="curve" smooth="yes"/>
      <point x="428" y="351"/>
      <point x="424" y="350"/>
      <point x="413" y="363" type="curve" smooth="yes"/>
      <point x="363" y="417"/>
      <point x="323" y="460"/>
      <point x="239" y="460" type="curve" smooth="yes"/>
      <point x="127" y="460"/>
      <point x="45" y="383"/>
      <point x="45" y="268" type="curve" smooth="yes"/>
      <point x="45" y="152"/>
      <point x="129" y="77"/>
      <point x="226" y="77" type="curve" smooth="yes"/>
      <point x="331" y="77"/>
      <point x="389" y="162"/>
      <point x="409" y="182" type="curve" smooth="yes"/>
      <point x="418" y="193"/>
      <point x="421" y="191"/>
      <point x="429" y="182" type="curve" smooth="yes"/>
      <point x="478" y="125"/>
      <point x="521" y="77"/>
      <point x="604" y="77" type="curve" smooth="yes"/>
      <point x="705" y="77"/>
      <point x="792" y="149"/>
      <point x="792" y="273" type="curve" smooth="yes"/>
    </contour>
    <contour>
      <point x="238" y="190" type="line" smooth="yes"/>
      <point x="196" y="190"/>
      <point x="163" y="223"/>
      <point x="163" y="271" type="curve" smooth="yes"/>
      <point x="163" y="317"/>
      <point x="193" y="350"/>
      <point x="237" y="350" type="curve" smooth="yes"/>
      <point x="275" y="350"/>
      <point x="304" y="325"/>
      <point x="332" y="284" type="curve" smooth="yes"/>
      <point x="342" y="267"/>
      <point x="343" y="264"/>
      <point x="333" y="250" type="curve" smooth="yes"/>
      <point x="314" y="224"/>
      <point x="278" y="190"/>
      <point x="240" y="190" type="curve" smooth="yes"/>
    </contour>
    <contour>
      <point x="603" y="350" type="line" smooth="yes"/>
      <point x="647" y="350"/>
      <point x="674" y="312"/>
      <point x="674" y="270" type="curve" smooth="yes"/>
      <point x="674" y="232"/>
      <point x="650" y="190"/>
      <point x="606" y="190" type="curve" smooth="yes"/>
      <point x="586" y="190"/>
      <point x="548" y="198"/>
      <point x="507" y="254" type="curve" smooth="yes"/>
      <point x="500" y="263"/>
      <point x="496" y="274"/>
      <point x="507" y="287" type="curve" smooth="yes"/>
      <point x="532" y="316"/>
      <point x="563" y="350"/>
      <point x="602" y="350" type="curve" smooth="yes"/>
    </contour>
  </outline>
</glyph>
<glyph name="integral" format="1">
  <advance width="495"/>
  <unicode hex="222B"/>
  <outline>
    <contour>
      <point x="146" y="551" type="curve" smooth="yes"/>
      <point x="146" y="451"/>
      <point x="163" y="241"/>
      <point x="163" y="93" type="curve" smooth="yes"/>
      <point x="163" y="13"/>
      <point x="148" y="-8"/>
      <point x="115" y="-8" type="curve" smooth="yes"/>
      <point x="87" y="-8"/>
      <point x="66" y="1"/>
      <point x="53" y="8" type="curve"/>
      <point x="15" y="-148" type="line"/>
      <point x="36" y="-160"/>
      <point x="74" y="-172"/>
      <point x="125" y="-172" type="curve" smooth="yes"/>
      <point x="274" y="-172"/>
      <point x="337" y="-76"/>
      <point x="337" y="121" type="curve" smooth="yes"/>
      <point x="337" y="222"/>
      <point x="321" y="418"/>
      <point x="321" y="574" type="curve" smooth="yes"/>
      <point x="321" y="649"/>
      <point x="335" y="672"/>
      <point x="369" y="672" type="curve" smooth="yes"/>
      <point x="398" y="672"/>
      <point x="419" y="662"/>
      <point x="434" y="655" type="curve"/>
      <point x="470" y="811" type="line"/>
      <point x="451" y="823"/>
      <point x="411" y="836"/>
      <point x="358" y="836" type="curve" smooth="yes"/>
      <point x="207" y="836"/>
      <point x="146" y="741"/>
    </contour>
  </outline>
</glyph>
